<svg width="420" height="380" viewBox="0 0 420 380" fill="none" xmlns="http://www.w3.org/2000/svg">
<rect width="420" height="380" rx="15" fill="#F1F3F1"/>
<path d="M51.7884 116H45.8565L54.8949 89.8182H62.0284L71.054 116H65.1222L58.5639 95.8011H58.3594L51.7884 116ZM51.4176 105.709H65.429V110.03H51.4176V105.709ZM74.2053 116V89.8182H79.6513V99.6619H79.8175C80.0561 99.1335 80.4013 98.5966 80.853 98.0511C81.3132 97.4972 81.9098 97.0369 82.6428 96.6705C83.3842 96.2955 84.3047 96.108 85.4041 96.108C86.8359 96.108 88.157 96.483 89.3672 97.233C90.5774 97.9744 91.5447 99.0952 92.2692 100.595C92.9936 102.087 93.3558 103.957 93.3558 106.207C93.3558 108.398 93.0021 110.247 92.2947 111.756C91.5959 113.256 90.6413 114.393 89.4311 115.169C88.2294 115.936 86.8828 116.32 85.3913 116.32C84.3345 116.32 83.4354 116.145 82.6939 115.795C81.9609 115.446 81.3601 115.007 80.8913 114.479C80.4226 113.942 80.0646 113.401 79.8175 112.855H79.5746V116H74.2053ZM79.5362 106.182C79.5362 107.349 79.6982 108.368 80.022 109.237C80.3459 110.107 80.8146 110.784 81.4283 111.27C82.0419 111.747 82.7876 111.986 83.6655 111.986C84.5518 111.986 85.3018 111.743 85.9155 111.257C86.5291 110.763 86.9936 110.081 87.3089 109.212C87.6328 108.334 87.7947 107.324 87.7947 106.182C87.7947 105.048 87.6371 104.051 87.3217 103.19C87.0064 102.33 86.5419 101.656 85.9283 101.17C85.3146 100.685 84.5604 100.442 83.6655 100.442C82.7791 100.442 82.0291 100.676 81.4155 101.145C80.8104 101.614 80.3459 102.278 80.022 103.139C79.6982 104 79.5362 105.014 79.5362 106.182ZM96.9897 116V96.3636H102.436V116H96.9897ZM99.7255 93.8324C98.9158 93.8324 98.2212 93.5639 97.6417 93.027C97.0707 92.4815 96.7852 91.8295 96.7852 91.071C96.7852 90.321 97.0707 89.6776 97.6417 89.1406C98.2212 88.5952 98.9158 88.3224 99.7255 88.3224C100.535 88.3224 101.225 88.5952 101.797 89.1406C102.376 89.6776 102.666 90.321 102.666 91.071C102.666 91.8295 102.376 92.4815 101.797 93.027C101.225 93.5639 100.535 93.8324 99.7255 93.8324ZM112.244 89.8182V116H106.798V89.8182H112.244ZM116.607 116V96.3636H122.053V116H116.607ZM119.343 93.8324C118.533 93.8324 117.838 93.5639 117.259 93.027C116.688 92.4815 116.402 91.8295 116.402 91.071C116.402 90.321 116.688 89.6776 117.259 89.1406C117.838 88.5952 118.533 88.3224 119.343 88.3224C120.152 88.3224 120.843 88.5952 121.414 89.1406C121.993 89.6776 122.283 90.321 122.283 91.071C122.283 91.8295 121.993 92.4815 121.414 93.027C120.843 93.5639 120.152 93.8324 119.343 93.8324ZM136.86 96.3636V100.455H125.035V96.3636H136.86ZM127.719 91.6591H133.165V109.966C133.165 110.469 133.242 110.861 133.396 111.142C133.549 111.415 133.762 111.607 134.035 111.717C134.316 111.828 134.64 111.884 135.006 111.884C135.262 111.884 135.518 111.862 135.773 111.82C136.029 111.768 136.225 111.73 136.362 111.705L137.218 115.757C136.945 115.842 136.562 115.94 136.067 116.051C135.573 116.17 134.972 116.243 134.265 116.268C132.952 116.32 131.802 116.145 130.813 115.744C129.833 115.344 129.07 114.722 128.525 113.878C127.979 113.034 127.711 111.969 127.719 110.682V91.6591ZM143.77 123.364C143.08 123.364 142.432 123.308 141.827 123.197C141.23 123.095 140.736 122.963 140.344 122.801L141.571 118.736C142.21 118.932 142.786 119.038 143.297 119.055C143.817 119.072 144.264 118.953 144.639 118.697C145.023 118.442 145.334 118.007 145.572 117.393L145.892 116.562L138.848 96.3636H144.575L148.641 110.784H148.845L152.949 96.3636H158.714L151.082 118.122C150.716 119.179 150.217 120.099 149.587 120.884C148.964 121.676 148.176 122.286 147.222 122.712C146.267 123.146 145.116 123.364 143.77 123.364ZM180.278 96.3636V100.455H168.453V96.3636H180.278ZM171.137 91.6591H176.583V109.966C176.583 110.469 176.66 110.861 176.814 111.142C176.967 111.415 177.18 111.607 177.453 111.717C177.734 111.828 178.058 111.884 178.424 111.884C178.68 111.884 178.936 111.862 179.191 111.82C179.447 111.768 179.643 111.73 179.779 111.705L180.636 115.757C180.363 115.842 179.98 115.94 179.485 116.051C178.991 116.17 178.39 116.243 177.683 116.268C176.37 116.32 175.22 116.145 174.231 115.744C173.251 115.344 172.488 114.722 171.943 113.878C171.397 113.034 171.129 111.969 171.137 110.682V91.6591ZM192.487 116.384C190.501 116.384 188.784 115.962 187.335 115.118C185.895 114.266 184.782 113.081 183.998 111.564C183.214 110.038 182.822 108.27 182.822 106.259C182.822 104.23 183.214 102.457 183.998 100.94C184.782 99.4148 185.895 98.2301 187.335 97.3864C188.784 96.5341 190.501 96.108 192.487 96.108C194.473 96.108 196.186 96.5341 197.626 97.3864C199.075 98.2301 200.191 99.4148 200.975 100.94C201.76 102.457 202.152 104.23 202.152 106.259C202.152 108.27 201.76 110.038 200.975 111.564C200.191 113.081 199.075 114.266 197.626 115.118C196.186 115.962 194.473 116.384 192.487 116.384ZM192.512 112.165C193.416 112.165 194.17 111.909 194.775 111.398C195.38 110.878 195.836 110.17 196.143 109.276C196.458 108.381 196.616 107.362 196.616 106.22C196.616 105.078 196.458 104.06 196.143 103.165C195.836 102.27 195.38 101.562 194.775 101.043C194.17 100.523 193.416 100.263 192.512 100.263C191.6 100.263 190.833 100.523 190.211 101.043C189.598 101.562 189.133 102.27 188.818 103.165C188.511 104.06 188.358 105.078 188.358 106.22C188.358 107.362 188.511 108.381 188.818 109.276C189.133 110.17 189.598 110.878 190.211 111.398C190.833 111.909 191.6 112.165 192.512 112.165ZM214.127 116V89.8182H219.663V111.436H230.887V116H214.127ZM243.4 116.384C241.38 116.384 239.641 115.974 238.184 115.156C236.735 114.33 235.618 113.162 234.834 111.653C234.05 110.136 233.658 108.342 233.658 106.271C233.658 104.251 234.05 102.479 234.834 100.953C235.618 99.4276 236.722 98.2386 238.145 97.3864C239.577 96.5341 241.256 96.108 243.182 96.108C244.478 96.108 245.684 96.3168 246.8 96.7344C247.925 97.1435 248.905 97.7614 249.74 98.5881C250.584 99.4148 251.24 100.455 251.709 101.707C252.178 102.952 252.412 104.409 252.412 106.08V107.575H235.831V104.2H247.286C247.286 103.416 247.115 102.722 246.775 102.116C246.434 101.511 245.961 101.038 245.355 100.697C244.759 100.348 244.064 100.173 243.272 100.173C242.445 100.173 241.712 100.365 241.073 100.749C240.442 101.124 239.948 101.631 239.59 102.27C239.232 102.901 239.049 103.604 239.04 104.379V107.588C239.04 108.56 239.219 109.399 239.577 110.107C239.944 110.814 240.459 111.359 241.124 111.743C241.789 112.126 242.577 112.318 243.489 112.318C244.094 112.318 244.648 112.233 245.151 112.062C245.654 111.892 246.084 111.636 246.442 111.295C246.8 110.955 247.073 110.537 247.26 110.043L252.297 110.375C252.042 111.585 251.517 112.642 250.725 113.545C249.941 114.44 248.926 115.139 247.682 115.642C246.446 116.136 245.019 116.384 243.4 116.384ZM261.566 116.371C260.313 116.371 259.196 116.153 258.216 115.719C257.236 115.276 256.461 114.624 255.89 113.763C255.327 112.893 255.046 111.811 255.046 110.516C255.046 109.425 255.246 108.509 255.647 107.767C256.047 107.026 256.593 106.429 257.283 105.977C257.973 105.526 258.757 105.185 259.635 104.955C260.522 104.724 261.451 104.562 262.422 104.469C263.564 104.349 264.485 104.239 265.184 104.136C265.882 104.026 266.39 103.864 266.705 103.651C267.02 103.437 267.178 103.122 267.178 102.705V102.628C267.178 101.818 266.922 101.192 266.411 100.749C265.908 100.305 265.192 100.084 264.263 100.084C263.283 100.084 262.503 100.301 261.924 100.736C261.344 101.162 260.961 101.699 260.773 102.347L255.736 101.938C255.992 100.744 256.495 99.7131 257.245 98.8438C257.995 97.9659 258.962 97.2926 260.147 96.8239C261.34 96.3466 262.721 96.108 264.289 96.108C265.38 96.108 266.424 96.2358 267.421 96.4915C268.426 96.7472 269.317 97.1435 270.093 97.6804C270.877 98.2173 271.495 98.9077 271.946 99.7514C272.398 100.587 272.624 101.588 272.624 102.756V116H267.459V113.277H267.306C266.99 113.891 266.569 114.432 266.04 114.901C265.512 115.361 264.877 115.723 264.135 115.987C263.394 116.243 262.537 116.371 261.566 116.371ZM263.125 112.612C263.926 112.612 264.634 112.455 265.248 112.139C265.861 111.815 266.343 111.381 266.692 110.835C267.042 110.29 267.216 109.672 267.216 108.982V106.898C267.046 107.009 266.811 107.111 266.513 107.205C266.223 107.29 265.895 107.371 265.529 107.447C265.162 107.516 264.796 107.58 264.429 107.639C264.063 107.69 263.73 107.737 263.432 107.78C262.793 107.874 262.235 108.023 261.757 108.227C261.28 108.432 260.909 108.709 260.645 109.058C260.381 109.399 260.249 109.825 260.249 110.337C260.249 111.078 260.517 111.645 261.054 112.037C261.6 112.42 262.29 112.612 263.125 112.612ZM276.849 116V96.3636H282.129V99.7898H282.333C282.691 98.571 283.292 97.6506 284.136 97.0284C284.98 96.3977 285.951 96.0824 287.051 96.0824C287.324 96.0824 287.618 96.0994 287.933 96.1335C288.248 96.1676 288.525 96.2145 288.764 96.2741V101.107C288.508 101.03 288.154 100.962 287.703 100.902C287.251 100.842 286.838 100.812 286.463 100.812C285.662 100.812 284.946 100.987 284.315 101.337C283.693 101.678 283.199 102.155 282.832 102.768C282.474 103.382 282.295 104.089 282.295 104.891V116H276.849ZM297.026 104.648V116H291.58V96.3636H296.77V99.8281H297C297.435 98.6861 298.163 97.7827 299.186 97.1179C300.209 96.4446 301.449 96.108 302.906 96.108C304.27 96.108 305.459 96.4062 306.473 97.0028C307.487 97.5994 308.276 98.4517 308.838 99.5597C309.401 100.659 309.682 101.972 309.682 103.497V116H304.236V104.469C304.244 103.267 303.938 102.33 303.315 101.656C302.693 100.974 301.837 100.634 300.746 100.634C300.013 100.634 299.365 100.791 298.803 101.107C298.249 101.422 297.814 101.882 297.499 102.487C297.192 103.084 297.034 103.804 297.026 104.648Z" fill="#118E11"/>
<path d="M58.6023 184.727C58.483 183.72 57.9991 182.938 57.1506 182.381C56.3021 181.824 55.2614 181.545 54.0284 181.545C53.1269 181.545 52.3381 181.691 51.6619 181.983C50.9924 182.275 50.4688 182.676 50.0909 183.186C49.7197 183.696 49.5341 184.277 49.5341 184.926C49.5341 185.47 49.6634 185.937 49.9219 186.328C50.187 186.713 50.5251 187.034 50.9361 187.293C51.3471 187.545 51.7779 187.753 52.2287 187.919C52.6795 188.078 53.0938 188.207 53.4716 188.307L55.5398 188.864C56.0701 189.003 56.66 189.195 57.3097 189.44C57.9659 189.686 58.5923 190.02 59.1889 190.445C59.7921 190.862 60.2893 191.399 60.6804 192.055C61.0715 192.712 61.267 193.517 61.267 194.472C61.267 195.572 60.9787 196.566 60.402 197.455C59.8319 198.343 58.9967 199.049 57.8963 199.572C56.8026 200.096 55.4735 200.358 53.9091 200.358C52.4508 200.358 51.188 200.123 50.1207 199.652C49.0601 199.181 48.2249 198.525 47.6151 197.683C47.0118 196.841 46.6705 195.864 46.5909 194.75H49.1364C49.2027 195.519 49.4612 196.155 49.9119 196.659C50.3693 197.156 50.946 197.527 51.642 197.773C52.3447 198.011 53.1004 198.131 53.9091 198.131C54.8504 198.131 55.6955 197.978 56.4446 197.673C57.1937 197.362 57.7869 196.931 58.2244 196.381C58.6619 195.824 58.8807 195.174 58.8807 194.432C58.8807 193.756 58.6918 193.205 58.3139 192.781C57.9361 192.357 57.4389 192.012 56.8224 191.747C56.206 191.482 55.5398 191.25 54.8239 191.051L52.3182 190.335C50.7273 189.878 49.4678 189.225 48.5398 188.376C47.6117 187.528 47.1477 186.418 47.1477 185.045C47.1477 183.905 47.456 182.911 48.0724 182.062C48.6955 181.207 49.5308 180.545 50.5781 180.074C51.6321 179.597 52.8087 179.358 54.108 179.358C55.4205 179.358 56.5871 179.593 57.608 180.064C58.6288 180.528 59.4375 181.164 60.0341 181.973C60.6373 182.782 60.9555 183.7 60.9886 184.727H58.6023ZM67.3498 179.636V200H65.0032V179.636H67.3498ZM77.8523 200.318C76.4735 200.318 75.2637 199.99 74.223 199.334C73.1889 198.678 72.3802 197.759 71.7969 196.58C71.2202 195.4 70.9318 194.021 70.9318 192.443C70.9318 190.852 71.2202 189.464 71.7969 188.277C72.3802 187.09 73.1889 186.169 74.223 185.513C75.2637 184.857 76.4735 184.528 77.8523 184.528C79.2311 184.528 80.4375 184.857 81.4716 185.513C82.5123 186.169 83.321 187.09 83.8977 188.277C84.4811 189.464 84.7727 190.852 84.7727 192.443C84.7727 194.021 84.4811 195.4 83.8977 196.58C83.321 197.759 82.5123 198.678 81.4716 199.334C80.4375 199.99 79.2311 200.318 77.8523 200.318ZM77.8523 198.21C78.8996 198.21 79.7614 197.942 80.4375 197.405C81.1136 196.868 81.6141 196.162 81.9389 195.287C82.2637 194.412 82.4261 193.464 82.4261 192.443C82.4261 191.422 82.2637 190.471 81.9389 189.589C81.6141 188.708 81.1136 187.995 80.4375 187.452C79.7614 186.908 78.8996 186.636 77.8523 186.636C76.8049 186.636 75.9432 186.908 75.267 187.452C74.5909 187.995 74.0904 188.708 73.7656 189.589C73.4408 190.471 73.2784 191.422 73.2784 192.443C73.2784 193.464 73.4408 194.412 73.7656 195.287C74.0904 196.162 74.5909 196.868 75.267 197.405C75.9432 197.942 76.8049 198.21 77.8523 198.21ZM91.2955 200L86.642 184.727H89.108L92.4091 196.42H92.5682L95.8295 184.727H98.3352L101.557 196.381H101.716L105.017 184.727H107.483L102.83 200H100.523L97.1818 188.267H96.9432L93.6023 200H91.2955ZM116.469 200.318C114.998 200.318 113.728 199.993 112.661 199.344C111.6 198.688 110.782 197.773 110.205 196.599C109.635 195.42 109.35 194.047 109.35 192.483C109.35 190.919 109.635 189.54 110.205 188.347C110.782 187.147 111.584 186.212 112.611 185.543C113.645 184.866 114.852 184.528 116.23 184.528C117.026 184.528 117.811 184.661 118.587 184.926C119.363 185.191 120.069 185.622 120.705 186.219C121.341 186.809 121.848 187.591 122.226 188.565C122.604 189.54 122.793 190.74 122.793 192.165V193.159H111.02V191.131H120.407C120.407 190.269 120.234 189.5 119.89 188.824C119.551 188.148 119.068 187.614 118.438 187.223C117.815 186.832 117.079 186.636 116.23 186.636C115.296 186.636 114.487 186.868 113.804 187.332C113.128 187.79 112.608 188.386 112.243 189.122C111.879 189.858 111.696 190.647 111.696 191.489V192.841C111.696 193.994 111.895 194.972 112.293 195.774C112.697 196.57 113.257 197.176 113.973 197.594C114.689 198.005 115.521 198.21 116.469 198.21C117.086 198.21 117.642 198.124 118.14 197.952C118.643 197.773 119.078 197.508 119.442 197.156C119.807 196.798 120.088 196.354 120.287 195.824L122.554 196.46C122.316 197.229 121.915 197.905 121.351 198.489C120.788 199.065 120.092 199.516 119.263 199.841C118.435 200.159 117.503 200.318 116.469 200.318ZM126.363 200V184.727H128.63V187.034H128.789C129.067 186.278 129.571 185.665 130.3 185.195C131.029 184.724 131.851 184.489 132.766 184.489C132.938 184.489 133.154 184.492 133.412 184.499C133.671 184.505 133.866 184.515 133.999 184.528V186.915C133.919 186.895 133.737 186.865 133.452 186.825C133.174 186.779 132.879 186.756 132.567 186.756C131.825 186.756 131.162 186.911 130.578 187.223C130.002 187.528 129.544 187.952 129.206 188.496C128.875 189.033 128.709 189.646 128.709 190.335V200H126.363ZM151.298 184.727V186.716H143.383V184.727H151.298ZM145.69 181.068H148.036V195.625C148.036 196.288 148.132 196.785 148.325 197.116C148.523 197.441 148.775 197.66 149.08 197.773C149.392 197.879 149.72 197.932 150.065 197.932C150.323 197.932 150.535 197.919 150.701 197.892C150.867 197.859 150.999 197.832 151.099 197.812L151.576 199.92C151.417 199.98 151.195 200.04 150.91 200.099C150.625 200.166 150.263 200.199 149.826 200.199C149.163 200.199 148.513 200.056 147.877 199.771C147.247 199.486 146.724 199.052 146.306 198.469C145.895 197.885 145.69 197.15 145.69 196.261V181.068ZM160.868 200.318C159.489 200.318 158.279 199.99 157.239 199.334C156.205 198.678 155.396 197.759 154.812 196.58C154.236 195.4 153.947 194.021 153.947 192.443C153.947 190.852 154.236 189.464 154.812 188.277C155.396 187.09 156.205 186.169 157.239 185.513C158.279 184.857 159.489 184.528 160.868 184.528C162.247 184.528 163.453 184.857 164.487 185.513C165.528 186.169 166.337 187.09 166.913 188.277C167.497 189.464 167.788 190.852 167.788 192.443C167.788 194.021 167.497 195.4 166.913 196.58C166.337 197.759 165.528 198.678 164.487 199.334C163.453 199.99 162.247 200.318 160.868 200.318ZM160.868 198.21C161.915 198.21 162.777 197.942 163.453 197.405C164.129 196.868 164.63 196.162 164.955 195.287C165.279 194.412 165.442 193.464 165.442 192.443C165.442 191.422 165.279 190.471 164.955 189.589C164.63 188.708 164.129 187.995 163.453 187.452C162.777 186.908 161.915 186.636 160.868 186.636C159.821 186.636 158.959 186.908 158.283 187.452C157.607 187.995 157.106 188.708 156.781 189.589C156.456 190.471 156.294 191.422 156.294 192.443C156.294 193.464 156.456 194.412 156.781 195.287C157.106 196.162 157.607 196.868 158.283 197.405C158.959 197.942 159.821 198.21 160.868 198.21ZM185.887 184.727V186.716H177.973V184.727H185.887ZM180.279 181.068H182.626V195.625C182.626 196.288 182.722 196.785 182.914 197.116C183.113 197.441 183.365 197.66 183.67 197.773C183.982 197.879 184.31 197.932 184.654 197.932C184.913 197.932 185.125 197.919 185.291 197.892C185.457 197.859 185.589 197.832 185.689 197.812L186.166 199.92C186.007 199.98 185.785 200.04 185.5 200.099C185.215 200.166 184.853 200.199 184.416 200.199C183.753 200.199 183.103 200.056 182.467 199.771C181.837 199.486 181.314 199.052 180.896 198.469C180.485 197.885 180.279 197.15 180.279 196.261V181.068ZM193.912 200.358C192.944 200.358 192.065 200.176 191.277 199.811C190.488 199.44 189.861 198.906 189.397 198.21C188.933 197.508 188.701 196.659 188.701 195.665C188.701 194.79 188.874 194.08 189.218 193.537C189.563 192.987 190.024 192.556 190.6 192.244C191.177 191.933 191.814 191.701 192.51 191.548C193.212 191.389 193.918 191.263 194.627 191.17C195.556 191.051 196.308 190.962 196.885 190.902C197.468 190.836 197.892 190.726 198.157 190.574C198.429 190.421 198.565 190.156 198.565 189.778V189.699C198.565 188.718 198.297 187.955 197.76 187.412C197.229 186.868 196.424 186.597 195.343 186.597C194.223 186.597 193.345 186.842 192.708 187.332C192.072 187.823 191.625 188.347 191.366 188.903L189.139 188.108C189.537 187.18 190.067 186.457 190.73 185.94C191.399 185.417 192.128 185.052 192.917 184.847C193.713 184.634 194.495 184.528 195.264 184.528C195.754 184.528 196.318 184.588 196.954 184.707C197.597 184.82 198.217 185.055 198.814 185.413C199.417 185.771 199.917 186.312 200.315 187.034C200.713 187.757 200.912 188.724 200.912 189.938V200H198.565V197.932H198.446C198.287 198.263 198.021 198.618 197.65 198.996C197.279 199.374 196.785 199.695 196.169 199.96C195.552 200.225 194.8 200.358 193.912 200.358ZM194.27 198.25C195.198 198.25 195.98 198.068 196.616 197.703C197.259 197.339 197.743 196.868 198.068 196.291C198.399 195.714 198.565 195.108 198.565 194.472V192.324C198.466 192.443 198.247 192.553 197.909 192.652C197.577 192.745 197.193 192.828 196.755 192.901C196.324 192.967 195.904 193.027 195.493 193.08C195.088 193.126 194.76 193.166 194.508 193.199C193.898 193.278 193.328 193.408 192.798 193.587C192.274 193.759 191.85 194.021 191.525 194.372C191.207 194.717 191.048 195.187 191.048 195.784C191.048 196.599 191.35 197.216 191.953 197.634C192.563 198.045 193.335 198.25 194.27 198.25ZM207.382 194.432L207.342 191.528H207.82L214.501 184.727H217.405L210.286 191.926H210.087L207.382 194.432ZM205.195 200V179.636H207.541V200H205.195ZM214.899 200L208.933 192.443L210.604 190.812L217.882 200H214.899ZM226.2 200.318C224.728 200.318 223.459 199.993 222.391 199.344C221.331 198.688 220.512 197.773 219.935 196.599C219.365 195.42 219.08 194.047 219.08 192.483C219.08 190.919 219.365 189.54 219.935 188.347C220.512 187.147 221.314 186.212 222.342 185.543C223.376 184.866 224.582 184.528 225.961 184.528C226.756 184.528 227.542 184.661 228.317 184.926C229.093 185.191 229.799 185.622 230.435 186.219C231.072 186.809 231.579 187.591 231.957 188.565C232.335 189.54 232.523 190.74 232.523 192.165V193.159H220.751V191.131H230.137C230.137 190.269 229.965 189.5 229.62 188.824C229.282 188.148 228.798 187.614 228.168 187.223C227.545 186.832 226.809 186.636 225.961 186.636C225.026 186.636 224.218 186.868 223.535 187.332C222.859 187.79 222.338 188.386 221.974 189.122C221.609 189.858 221.427 190.647 221.427 191.489V192.841C221.427 193.994 221.626 194.972 222.023 195.774C222.428 196.57 222.988 197.176 223.704 197.594C224.42 198.005 225.252 198.21 226.2 198.21C226.816 198.21 227.373 198.124 227.87 197.952C228.374 197.773 228.808 197.508 229.173 197.156C229.537 196.798 229.819 196.354 230.018 195.824L232.285 196.46C232.046 197.229 231.645 197.905 231.082 198.489C230.518 199.065 229.822 199.516 228.994 199.841C228.165 200.159 227.234 200.318 226.2 200.318ZM243.968 200V184.727H246.315V200H243.968ZM245.161 182.182C244.704 182.182 244.309 182.026 243.978 181.714C243.653 181.403 243.491 181.028 243.491 180.591C243.491 180.153 243.653 179.779 243.978 179.467C244.309 179.156 244.704 179 245.161 179C245.619 179 246.01 179.156 246.335 179.467C246.666 179.779 246.832 180.153 246.832 180.591C246.832 181.028 246.666 181.403 246.335 181.714C246.01 182.026 245.619 182.182 245.161 182.182ZM252.959 190.812V200H250.613V184.727H252.88V187.114H253.078C253.436 186.338 253.98 185.715 254.709 185.244C255.438 184.767 256.38 184.528 257.533 184.528C258.567 184.528 259.472 184.741 260.248 185.165C261.023 185.582 261.626 186.219 262.057 187.074C262.488 187.922 262.703 188.996 262.703 190.295V200H260.357V190.455C260.357 189.255 260.045 188.32 259.422 187.651C258.799 186.974 257.944 186.636 256.857 186.636C256.108 186.636 255.438 186.799 254.848 187.124C254.265 187.448 253.804 187.922 253.466 188.545C253.128 189.169 252.959 189.924 252.959 190.812ZM277.213 190.812V200H274.866V184.727H277.134V187.114H277.332C277.69 186.338 278.234 185.715 278.963 185.244C279.692 184.767 280.634 184.528 281.787 184.528C282.821 184.528 283.726 184.741 284.501 185.165C285.277 185.582 285.88 186.219 286.311 187.074C286.742 187.922 286.957 188.996 286.957 190.295V200H284.611V190.455C284.611 189.255 284.299 188.32 283.676 187.651C283.053 186.974 282.198 186.636 281.111 186.636C280.362 186.636 279.692 186.799 279.102 187.124C278.519 187.448 278.058 187.922 277.72 188.545C277.382 189.169 277.213 189.924 277.213 190.812ZM297.649 200.318C296.177 200.318 294.908 199.993 293.841 199.344C292.78 198.688 291.961 197.773 291.385 196.599C290.815 195.42 290.529 194.047 290.529 192.483C290.529 190.919 290.815 189.54 291.385 188.347C291.961 187.147 292.763 186.212 293.791 185.543C294.825 184.866 296.031 184.528 297.41 184.528C298.206 184.528 298.991 184.661 299.767 184.926C300.542 185.191 301.248 185.622 301.885 186.219C302.521 186.809 303.028 187.591 303.406 188.565C303.784 189.54 303.973 190.74 303.973 192.165V193.159H292.2V191.131H301.586C301.586 190.269 301.414 189.5 301.069 188.824C300.731 188.148 300.247 187.614 299.618 187.223C298.994 186.832 298.259 186.636 297.41 186.636C296.475 186.636 295.667 186.868 294.984 187.332C294.308 187.79 293.788 188.386 293.423 189.122C293.058 189.858 292.876 190.647 292.876 191.489V192.841C292.876 193.994 293.075 194.972 293.473 195.774C293.877 196.57 294.437 197.176 295.153 197.594C295.869 198.005 296.701 198.21 297.649 198.21C298.265 198.21 298.822 198.124 299.319 197.952C299.823 197.773 300.257 197.508 300.622 197.156C300.986 196.798 301.268 196.354 301.467 195.824L303.734 196.46C303.495 197.229 303.094 197.905 302.531 198.489C301.967 199.065 301.271 199.516 300.443 199.841C299.614 200.159 298.683 200.318 297.649 200.318ZM311.002 200L306.349 184.727H308.815L312.116 196.42H312.275L315.537 184.727H318.042L321.264 196.381H321.423L324.724 184.727H327.19L322.537 200H320.23L316.889 188.267H316.65L313.309 200H311.002ZM47.1477 234V218.727H49.4943V234H47.1477ZM48.3409 216.182C47.8835 216.182 47.4891 216.026 47.1577 215.714C46.8329 215.403 46.6705 215.028 46.6705 214.591C46.6705 214.153 46.8329 213.779 47.1577 213.467C47.4891 213.156 47.8835 213 48.3409 213C48.7983 213 49.1894 213.156 49.5142 213.467C49.8456 213.779 50.0114 214.153 50.0114 214.591C50.0114 215.028 49.8456 215.403 49.5142 215.714C49.1894 216.026 48.7983 216.182 48.3409 216.182ZM56.1388 224.812V234H53.7923V218.727H56.0593V221.114H56.2582C56.6161 220.338 57.1597 219.715 57.8888 219.244C58.618 218.767 59.5593 218.528 60.7127 218.528C61.7468 218.528 62.6516 218.741 63.4272 219.165C64.2028 219.582 64.806 220.219 65.2369 221.074C65.6677 221.922 65.8832 222.996 65.8832 224.295V234H63.5366V224.455C63.5366 223.255 63.225 222.32 62.6019 221.651C61.9788 220.974 61.1237 220.636 60.0366 220.636C59.2875 220.636 58.618 220.799 58.0281 221.124C57.4447 221.448 56.984 221.922 56.646 222.545C56.3079 223.169 56.1388 223.924 56.1388 224.812ZM76.9723 218.727V220.716H68.7393V218.727H76.9723ZM71.2053 234V216.619C71.2053 215.744 71.4107 215.015 71.8217 214.432C72.2327 213.848 72.7663 213.411 73.4226 213.119C74.0788 212.828 74.7715 212.682 75.5007 212.682C76.0774 212.682 76.5481 212.728 76.9126 212.821C77.2772 212.914 77.549 213 77.728 213.08L77.0518 215.108C76.9325 215.068 76.7668 215.018 76.5547 214.959C76.3492 214.899 76.0774 214.869 75.7393 214.869C74.9638 214.869 74.4036 215.065 74.0589 215.456C73.7209 215.847 73.5518 216.42 73.5518 217.176V234H71.2053ZM85.8366 234.318C84.4579 234.318 83.2481 233.99 82.2074 233.334C81.1733 232.678 80.3646 231.759 79.7812 230.58C79.2045 229.4 78.9162 228.021 78.9162 226.443C78.9162 224.852 79.2045 223.464 79.7812 222.277C80.3646 221.09 81.1733 220.169 82.2074 219.513C83.2481 218.857 84.4579 218.528 85.8366 218.528C87.2154 218.528 88.4219 218.857 89.456 219.513C90.4967 220.169 91.3054 221.09 91.8821 222.277C92.4654 223.464 92.7571 224.852 92.7571 226.443C92.7571 228.021 92.4654 229.4 91.8821 230.58C91.3054 231.759 90.4967 232.678 89.456 233.334C88.4219 233.99 87.2154 234.318 85.8366 234.318ZM85.8366 232.21C86.884 232.21 87.7457 231.942 88.4219 231.405C89.098 230.868 89.5985 230.162 89.9233 229.287C90.2481 228.412 90.4105 227.464 90.4105 226.443C90.4105 225.422 90.2481 224.471 89.9233 223.589C89.5985 222.708 89.098 221.995 88.4219 221.452C87.7457 220.908 86.884 220.636 85.8366 220.636C84.7893 220.636 83.9276 220.908 83.2514 221.452C82.5753 221.995 82.0748 222.708 81.75 223.589C81.4252 224.471 81.2628 225.422 81.2628 226.443C81.2628 227.464 81.4252 228.412 81.75 229.287C82.0748 230.162 82.5753 230.868 83.2514 231.405C83.9276 231.942 84.7893 232.21 85.8366 232.21ZM96.3391 234V218.727H98.6062V221.034H98.7653C99.0437 220.278 99.5475 219.665 100.277 219.195C101.006 218.724 101.828 218.489 102.743 218.489C102.915 218.489 103.13 218.492 103.389 218.499C103.647 218.505 103.843 218.515 103.975 218.528V220.915C103.896 220.895 103.714 220.865 103.429 220.825C103.15 220.779 102.855 220.756 102.544 220.756C101.801 220.756 101.138 220.911 100.555 221.223C99.9783 221.528 99.521 221.952 99.1829 222.496C98.8514 223.033 98.6857 223.646 98.6857 224.335V234H96.3391ZM106.757 234V218.727H109.024V221.114H109.223C109.541 220.298 110.055 219.665 110.764 219.214C111.473 218.757 112.325 218.528 113.32 218.528C114.327 218.528 115.166 218.757 115.835 219.214C116.511 219.665 117.038 220.298 117.416 221.114H117.575C117.966 220.325 118.553 219.698 119.335 219.234C120.117 218.764 121.055 218.528 122.149 218.528C123.515 218.528 124.632 218.956 125.5 219.811C126.368 220.66 126.803 221.982 126.803 223.778V234H124.456V223.778C124.456 222.652 124.148 221.846 123.531 221.362C122.915 220.878 122.189 220.636 121.354 220.636C120.28 220.636 119.448 220.961 118.858 221.611C118.268 222.254 117.973 223.069 117.973 224.057V234H115.587V223.54C115.587 222.671 115.305 221.972 114.741 221.442C114.178 220.905 113.452 220.636 112.564 220.636C111.954 220.636 111.384 220.799 110.854 221.124C110.33 221.448 109.906 221.899 109.581 222.476C109.263 223.046 109.104 223.705 109.104 224.455V234H106.757ZM135.587 234.358C134.62 234.358 133.741 234.176 132.952 233.811C132.164 233.44 131.537 232.906 131.073 232.21C130.609 231.508 130.377 230.659 130.377 229.665C130.377 228.79 130.549 228.08 130.894 227.537C131.239 226.987 131.7 226.556 132.276 226.244C132.853 225.933 133.489 225.701 134.185 225.548C134.888 225.389 135.594 225.263 136.303 225.17C137.231 225.051 137.984 224.962 138.56 224.902C139.144 224.836 139.568 224.726 139.833 224.574C140.105 224.421 140.241 224.156 140.241 223.778V223.699C140.241 222.718 139.972 221.955 139.435 221.412C138.905 220.868 138.1 220.597 137.019 220.597C135.899 220.597 135.021 220.842 134.384 221.332C133.748 221.823 133.3 222.347 133.042 222.903L130.815 222.108C131.212 221.18 131.743 220.457 132.406 219.94C133.075 219.417 133.804 219.052 134.593 218.847C135.388 218.634 136.171 218.528 136.94 218.528C137.43 218.528 137.994 218.588 138.63 218.707C139.273 218.82 139.893 219.055 140.489 219.413C141.093 219.771 141.593 220.312 141.991 221.034C142.388 221.757 142.587 222.724 142.587 223.938V234H140.241V231.932H140.121C139.962 232.263 139.697 232.618 139.326 232.996C138.955 233.374 138.461 233.695 137.844 233.96C137.228 234.225 136.476 234.358 135.587 234.358ZM135.945 232.25C136.873 232.25 137.656 232.068 138.292 231.703C138.935 231.339 139.419 230.868 139.744 230.291C140.075 229.714 140.241 229.108 140.241 228.472V226.324C140.141 226.443 139.923 226.553 139.585 226.652C139.253 226.745 138.869 226.828 138.431 226.901C138 226.967 137.579 227.027 137.168 227.08C136.764 227.126 136.436 227.166 136.184 227.199C135.574 227.278 135.004 227.408 134.474 227.587C133.95 227.759 133.526 228.021 133.201 228.372C132.883 228.717 132.724 229.187 132.724 229.784C132.724 230.599 133.025 231.216 133.629 231.634C134.238 232.045 135.011 232.25 135.945 232.25ZM153.512 218.727V220.716H145.598V218.727H153.512ZM147.904 215.068H150.251V229.625C150.251 230.288 150.347 230.785 150.539 231.116C150.738 231.441 150.99 231.66 151.295 231.773C151.607 231.879 151.935 231.932 152.279 231.932C152.538 231.932 152.75 231.919 152.916 231.892C153.082 231.859 153.214 231.832 153.314 231.812L153.791 233.92C153.632 233.98 153.41 234.04 153.125 234.099C152.84 234.166 152.478 234.199 152.041 234.199C151.378 234.199 150.728 234.056 150.092 233.771C149.462 233.486 148.939 233.052 148.521 232.469C148.11 231.885 147.904 231.15 147.904 230.261V215.068ZM157.042 234V218.727H159.389V234H157.042ZM158.235 216.182C157.778 216.182 157.384 216.026 157.052 215.714C156.727 215.403 156.565 215.028 156.565 214.591C156.565 214.153 156.727 213.779 157.052 213.467C157.384 213.156 157.778 213 158.235 213C158.693 213 159.084 213.156 159.409 213.467C159.74 213.779 159.906 214.153 159.906 214.591C159.906 215.028 159.74 215.403 159.409 215.714C159.084 216.026 158.693 216.182 158.235 216.182ZM169.891 234.318C168.513 234.318 167.303 233.99 166.262 233.334C165.228 232.678 164.419 231.759 163.836 230.58C163.259 229.4 162.971 228.021 162.971 226.443C162.971 224.852 163.259 223.464 163.836 222.277C164.419 221.09 165.228 220.169 166.262 219.513C167.303 218.857 168.513 218.528 169.891 218.528C171.27 218.528 172.477 218.857 173.511 219.513C174.551 220.169 175.36 221.09 175.937 222.277C176.52 223.464 176.812 224.852 176.812 226.443C176.812 228.021 176.52 229.4 175.937 230.58C175.36 231.759 174.551 232.678 173.511 233.334C172.477 233.99 171.27 234.318 169.891 234.318ZM169.891 232.21C170.939 232.21 171.8 231.942 172.477 231.405C173.153 230.868 173.653 230.162 173.978 229.287C174.303 228.412 174.465 227.464 174.465 226.443C174.465 225.422 174.303 224.471 173.978 223.589C173.653 222.708 173.153 221.995 172.477 221.452C171.8 220.908 170.939 220.636 169.891 220.636C168.844 220.636 167.982 220.908 167.306 221.452C166.63 221.995 166.129 222.708 165.805 223.589C165.48 224.471 165.317 225.422 165.317 226.443C165.317 227.464 165.48 228.412 165.805 229.287C166.129 230.162 166.63 230.868 167.306 231.405C167.982 231.942 168.844 232.21 169.891 232.21ZM182.74 224.812V234H180.394V218.727H182.661V221.114H182.86C183.218 220.338 183.761 219.715 184.49 219.244C185.22 218.767 186.161 218.528 187.314 218.528C188.348 218.528 189.253 218.741 190.029 219.165C190.804 219.582 191.408 220.219 191.838 221.074C192.269 221.922 192.485 222.996 192.485 224.295V234H190.138V224.455C190.138 223.255 189.827 222.32 189.203 221.651C188.58 220.974 187.725 220.636 186.638 220.636C185.889 220.636 185.22 220.799 184.63 221.124C184.046 221.448 183.586 221.922 183.248 222.545C182.909 223.169 182.74 223.924 182.74 224.812ZM209.142 234.358C208.174 234.358 207.296 234.176 206.507 233.811C205.718 233.44 205.092 232.906 204.628 232.21C204.164 231.508 203.932 230.659 203.932 229.665C203.932 228.79 204.104 228.08 204.449 227.537C204.794 226.987 205.254 226.556 205.831 226.244C206.408 225.933 207.044 225.701 207.74 225.548C208.443 225.389 209.149 225.263 209.858 225.17C210.786 225.051 211.538 224.962 212.115 224.902C212.698 224.836 213.123 224.726 213.388 224.574C213.66 224.421 213.795 224.156 213.795 223.778V223.699C213.795 222.718 213.527 221.955 212.99 221.412C212.46 220.868 211.654 220.597 210.574 220.597C209.454 220.597 208.575 220.842 207.939 221.332C207.303 221.823 206.855 222.347 206.597 222.903L204.369 222.108C204.767 221.18 205.297 220.457 205.96 219.94C206.63 219.417 207.359 219.052 208.148 218.847C208.943 218.634 209.725 218.528 210.494 218.528C210.985 218.528 211.548 218.588 212.185 218.707C212.828 218.82 213.447 219.055 214.044 219.413C214.647 219.771 215.148 220.312 215.545 221.034C215.943 221.757 216.142 222.724 216.142 223.938V234H213.795V231.932H213.676C213.517 232.263 213.252 232.618 212.881 232.996C212.509 233.374 212.016 233.695 211.399 233.96C210.783 234.225 210.03 234.358 209.142 234.358ZM209.5 232.25C210.428 232.25 211.21 232.068 211.847 231.703C212.49 231.339 212.973 230.868 213.298 230.291C213.63 229.714 213.795 229.108 213.795 228.472V226.324C213.696 226.443 213.477 226.553 213.139 226.652C212.808 226.745 212.423 226.828 211.986 226.901C211.555 226.967 211.134 227.027 210.723 227.08C210.319 227.126 209.991 227.166 209.739 227.199C209.129 227.278 208.559 227.408 208.028 227.587C207.505 227.759 207.08 228.021 206.756 228.372C206.438 228.717 206.278 229.187 206.278 229.784C206.278 230.599 206.58 231.216 207.183 231.634C207.793 232.045 208.565 232.25 209.5 232.25ZM222.772 224.812V234H220.425V218.727H222.692V221.114H222.891C223.249 220.338 223.792 219.715 224.522 219.244C225.251 218.767 226.192 218.528 227.346 218.528C228.38 218.528 229.284 218.741 230.06 219.165C230.836 219.582 231.439 220.219 231.87 221.074C232.301 221.922 232.516 222.996 232.516 224.295V234H230.169V224.455C230.169 223.255 229.858 222.32 229.235 221.651C228.612 220.974 227.757 220.636 226.669 220.636C225.92 220.636 225.251 220.799 224.661 221.124C224.078 221.448 223.617 221.922 223.279 222.545C222.941 223.169 222.772 223.924 222.772 224.812ZM242.571 234.318C241.298 234.318 240.175 233.997 239.2 233.354C238.226 232.704 237.464 231.789 236.913 230.609C236.363 229.423 236.088 228.021 236.088 226.403C236.088 224.799 236.363 223.407 236.913 222.227C237.464 221.047 238.229 220.136 239.21 219.493C240.191 218.85 241.325 218.528 242.611 218.528C243.605 218.528 244.391 218.694 244.967 219.026C245.551 219.35 245.995 219.722 246.3 220.139C246.611 220.55 246.853 220.888 247.026 221.153H247.224V213.636H249.571V234H247.304V231.653H247.026C246.853 231.932 246.608 232.283 246.29 232.707C245.972 233.125 245.518 233.5 244.928 233.831C244.338 234.156 243.552 234.318 242.571 234.318ZM242.889 232.21C243.83 232.21 244.626 231.965 245.276 231.474C245.925 230.977 246.419 230.291 246.757 229.416C247.095 228.535 247.264 227.517 247.264 226.364C247.264 225.223 247.098 224.226 246.767 223.371C246.436 222.509 245.945 221.839 245.295 221.362C244.646 220.878 243.844 220.636 242.889 220.636C241.895 220.636 241.066 220.892 240.403 221.402C239.747 221.906 239.253 222.592 238.922 223.46C238.597 224.322 238.435 225.29 238.435 226.364C238.435 227.451 238.6 228.438 238.932 229.327C239.27 230.208 239.767 230.911 240.423 231.435C241.086 231.952 241.908 232.21 242.889 232.21ZM268.712 218.727V220.716H260.797V218.727H268.712ZM263.104 215.068H265.45V229.625C265.45 230.288 265.546 230.785 265.739 231.116C265.938 231.441 266.189 231.66 266.494 231.773C266.806 231.879 267.134 231.932 267.479 231.932C267.737 231.932 267.949 231.919 268.115 231.892C268.281 231.859 268.413 231.832 268.513 231.812L268.99 233.92C268.831 233.98 268.609 234.04 268.324 234.099C268.039 234.166 267.678 234.199 267.24 234.199C266.577 234.199 265.928 234.056 265.291 233.771C264.661 233.486 264.138 233.052 263.72 232.469C263.309 231.885 263.104 231.15 263.104 230.261V215.068ZM278.282 234.318C276.903 234.318 275.693 233.99 274.653 233.334C273.619 232.678 272.81 231.759 272.227 230.58C271.65 229.4 271.362 228.021 271.362 226.443C271.362 224.852 271.65 223.464 272.227 222.277C272.81 221.09 273.619 220.169 274.653 219.513C275.693 218.857 276.903 218.528 278.282 218.528C279.661 218.528 280.867 218.857 281.901 219.513C282.942 220.169 283.751 221.09 284.327 222.277C284.911 223.464 285.202 224.852 285.202 226.443C285.202 228.021 284.911 229.4 284.327 230.58C283.751 231.759 282.942 232.678 281.901 233.334C280.867 233.99 279.661 234.318 278.282 234.318ZM278.282 232.21C279.329 232.21 280.191 231.942 280.867 231.405C281.543 230.868 282.044 230.162 282.369 229.287C282.693 228.412 282.856 227.464 282.856 226.443C282.856 225.422 282.693 224.471 282.369 223.589C282.044 222.708 281.543 221.995 280.867 221.452C280.191 220.908 279.329 220.636 278.282 220.636C277.235 220.636 276.373 220.908 275.697 221.452C275.021 221.995 274.52 222.708 274.195 223.589C273.871 224.471 273.708 225.422 273.708 226.443C273.708 227.464 273.871 228.412 274.195 229.287C274.52 230.162 275.021 230.868 275.697 231.405C276.373 231.942 277.235 232.21 278.282 232.21ZM47.1477 268V252.727H49.4148V255.034H49.5739C49.8523 254.278 50.3561 253.665 51.0852 253.195C51.8144 252.724 52.6364 252.489 53.5511 252.489C53.7235 252.489 53.9389 252.492 54.1974 252.499C54.456 252.505 54.6515 252.515 54.7841 252.528V254.915C54.7045 254.895 54.5223 254.865 54.2372 254.825C53.9588 254.779 53.6638 254.756 53.3523 254.756C52.6098 254.756 51.947 254.911 51.3636 255.223C50.7869 255.528 50.3295 255.952 49.9915 256.496C49.66 257.033 49.4943 257.646 49.4943 258.335V268H47.1477ZM63.5043 268.318C62.0327 268.318 60.7633 267.993 59.696 267.344C58.6354 266.688 57.8168 265.773 57.2401 264.599C56.67 263.42 56.3849 262.047 56.3849 260.483C56.3849 258.919 56.67 257.54 57.2401 256.347C57.8168 255.147 58.6188 254.212 59.6463 253.543C60.6804 252.866 61.8868 252.528 63.2656 252.528C64.0611 252.528 64.8466 252.661 65.6222 252.926C66.3977 253.191 67.1037 253.622 67.7401 254.219C68.3764 254.809 68.8835 255.591 69.2614 256.565C69.6392 257.54 69.8281 258.74 69.8281 260.165V261.159H58.0554V259.131H67.4418C67.4418 258.269 67.2694 257.5 66.9247 256.824C66.5866 256.148 66.1027 255.614 65.473 255.223C64.8499 254.832 64.1141 254.636 63.2656 254.636C62.331 254.636 61.5223 254.868 60.8395 255.332C60.1634 255.79 59.643 256.386 59.2784 257.122C58.9138 257.858 58.7315 258.647 58.7315 259.489V260.841C58.7315 261.994 58.9304 262.972 59.3281 263.774C59.7325 264.57 60.2926 265.176 61.0085 265.594C61.7244 266.005 62.5563 266.21 63.5043 266.21C64.1207 266.21 64.6776 266.124 65.1747 265.952C65.6785 265.773 66.1127 265.508 66.4773 265.156C66.8419 264.798 67.1236 264.354 67.3224 263.824L69.5895 264.46C69.3509 265.229 68.9498 265.905 68.3864 266.489C67.8229 267.065 67.1269 267.516 66.2983 267.841C65.4697 268.159 64.5384 268.318 63.5043 268.318ZM79.6023 268.318C78.1705 268.318 76.9375 267.98 75.9034 267.304C74.8693 266.628 74.0739 265.696 73.517 264.51C72.9602 263.323 72.6818 261.968 72.6818 260.443C72.6818 258.892 72.9669 257.523 73.5369 256.337C74.1136 255.143 74.9157 254.212 75.9432 253.543C76.9773 252.866 78.1837 252.528 79.5625 252.528C80.6364 252.528 81.6042 252.727 82.4659 253.125C83.3277 253.523 84.0336 254.08 84.5838 254.795C85.134 255.511 85.4754 256.347 85.608 257.301H83.2614C83.0824 256.605 82.6847 255.989 82.0682 255.452C81.4583 254.908 80.6364 254.636 79.6023 254.636C78.6875 254.636 77.8854 254.875 77.196 255.352C76.5133 255.823 75.9796 256.489 75.5952 257.351C75.2173 258.206 75.0284 259.21 75.0284 260.364C75.0284 261.544 75.214 262.571 75.5852 263.446C75.9631 264.321 76.4934 265 77.1761 265.484C77.8655 265.968 78.6742 266.21 79.6023 266.21C80.2121 266.21 80.7656 266.104 81.2628 265.892C81.7599 265.68 82.1809 265.375 82.5256 264.977C82.8703 264.58 83.1155 264.102 83.2614 263.545H85.608C85.4754 264.447 85.1473 265.259 84.6236 265.982C84.1065 266.697 83.4205 267.268 82.5653 267.692C81.7169 268.109 80.7292 268.318 79.6023 268.318ZM93.5327 268.358C92.5649 268.358 91.6866 268.176 90.8977 267.811C90.1089 267.44 89.4825 266.906 89.0185 266.21C88.5545 265.508 88.3224 264.659 88.3224 263.665C88.3224 262.79 88.4948 262.08 88.8395 261.537C89.1842 260.987 89.6449 260.556 90.2216 260.244C90.7983 259.933 91.4347 259.701 92.1307 259.548C92.8333 259.389 93.5393 259.263 94.2486 259.17C95.1766 259.051 95.929 258.962 96.5057 258.902C97.089 258.836 97.5133 258.726 97.7784 258.574C98.0502 258.421 98.1861 258.156 98.1861 257.778V257.699C98.1861 256.718 97.9176 255.955 97.3807 255.412C96.8504 254.868 96.045 254.597 94.9645 254.597C93.8442 254.597 92.9659 254.842 92.3295 255.332C91.6932 255.823 91.2457 256.347 90.9872 256.903L88.7599 256.108C89.1577 255.18 89.688 254.457 90.3509 253.94C91.0204 253.417 91.7495 253.052 92.5384 252.847C93.3338 252.634 94.116 252.528 94.8849 252.528C95.3755 252.528 95.9389 252.588 96.5753 252.707C97.2183 252.82 97.8381 253.055 98.4347 253.413C99.0379 253.771 99.5384 254.312 99.9361 255.034C100.334 255.757 100.533 256.724 100.533 257.938V268H98.1861V265.932H98.0668C97.9077 266.263 97.6425 266.618 97.2713 266.996C96.9001 267.374 96.4063 267.695 95.7898 267.96C95.1733 268.225 94.4209 268.358 93.5327 268.358ZM93.8906 266.25C94.8187 266.25 95.6009 266.068 96.2372 265.703C96.8802 265.339 97.3641 264.868 97.6889 264.291C98.0204 263.714 98.1861 263.108 98.1861 262.472V260.324C98.0866 260.443 97.8679 260.553 97.5298 260.652C97.1984 260.745 96.8139 260.828 96.3764 260.901C95.9455 260.967 95.5246 261.027 95.1136 261.08C94.7093 261.126 94.3812 261.166 94.1293 261.199C93.5194 261.278 92.9493 261.408 92.419 261.587C91.8954 261.759 91.4711 262.021 91.1463 262.372C90.8281 262.717 90.669 263.187 90.669 263.784C90.669 264.599 90.9706 265.216 91.5739 265.634C92.1837 266.045 92.956 266.25 93.8906 266.25ZM107.162 247.636V268H104.816V247.636H107.162ZM113.807 247.636V268H111.46V247.636H113.807ZM128.167 262.432L128.127 259.528H128.605L135.287 252.727H138.19L131.071 259.926H130.872L128.167 262.432ZM125.98 268V247.636H128.326V268H125.98ZM135.684 268L129.718 260.443L131.389 258.812L138.667 268H135.684ZM143.557 258.812V268H141.21V252.727H143.477V255.114H143.676C144.034 254.338 144.578 253.715 145.307 253.244C146.036 252.767 146.977 252.528 148.131 252.528C149.165 252.528 150.07 252.741 150.845 253.165C151.621 253.582 152.224 254.219 152.655 255.074C153.086 255.922 153.301 256.996 153.301 258.295V268H150.955V258.455C150.955 257.255 150.643 256.32 150.02 255.651C149.397 254.974 148.542 254.636 147.455 254.636C146.705 254.636 146.036 254.799 145.446 255.124C144.863 255.448 144.402 255.922 144.064 256.545C143.726 257.169 143.557 257.924 143.557 258.812ZM163.794 268.318C162.415 268.318 161.205 267.99 160.164 267.334C159.13 266.678 158.322 265.759 157.738 264.58C157.162 263.4 156.873 262.021 156.873 260.443C156.873 258.852 157.162 257.464 157.738 256.277C158.322 255.09 159.13 254.169 160.164 253.513C161.205 252.857 162.415 252.528 163.794 252.528C165.172 252.528 166.379 252.857 167.413 253.513C168.454 254.169 169.262 255.09 169.839 256.277C170.422 257.464 170.714 258.852 170.714 260.443C170.714 262.021 170.422 263.4 169.839 264.58C169.262 265.759 168.454 266.678 167.413 267.334C166.379 267.99 165.172 268.318 163.794 268.318ZM163.794 266.21C164.841 266.21 165.703 265.942 166.379 265.405C167.055 264.868 167.556 264.162 167.88 263.287C168.205 262.412 168.368 261.464 168.368 260.443C168.368 259.422 168.205 258.471 167.88 257.589C167.556 256.708 167.055 255.995 166.379 255.452C165.703 254.908 164.841 254.636 163.794 254.636C162.746 254.636 161.885 254.908 161.208 255.452C160.532 255.995 160.032 256.708 159.707 257.589C159.382 258.471 159.22 259.422 159.22 260.443C159.22 261.464 159.382 262.412 159.707 263.287C160.032 264.162 160.532 264.868 161.208 265.405C161.885 265.942 162.746 266.21 163.794 266.21ZM177.237 268L172.583 252.727H175.049L178.35 264.42H178.51L181.771 252.727H184.277L187.498 264.381H187.657L190.958 252.727H193.424L188.771 268H186.464L183.123 256.267H182.885L179.544 268H177.237ZM198.873 247.636V268H196.527V247.636H198.873ZM209.575 268.318C208.103 268.318 206.834 267.993 205.766 267.344C204.706 266.688 203.887 265.773 203.31 264.599C202.74 263.42 202.455 262.047 202.455 260.483C202.455 258.919 202.74 257.54 203.31 256.347C203.887 255.147 204.689 254.212 205.717 253.543C206.751 252.866 207.957 252.528 209.336 252.528C210.131 252.528 210.917 252.661 211.692 252.926C212.468 253.191 213.174 253.622 213.81 254.219C214.447 254.809 214.954 255.591 215.332 256.565C215.71 257.54 215.898 258.74 215.898 260.165V261.159H204.126V259.131H213.512C213.512 258.269 213.34 257.5 212.995 256.824C212.657 256.148 212.173 255.614 211.543 255.223C210.92 254.832 210.184 254.636 209.336 254.636C208.401 254.636 207.593 254.868 206.91 255.332C206.234 255.79 205.713 256.386 205.349 257.122C204.984 257.858 204.802 258.647 204.802 259.489V260.841C204.802 261.994 205.001 262.972 205.398 263.774C205.803 264.57 206.363 265.176 207.079 265.594C207.795 266.005 208.627 266.21 209.575 266.21C210.191 266.21 210.748 266.124 211.245 265.952C211.749 265.773 212.183 265.508 212.548 265.156C212.912 264.798 213.194 264.354 213.393 263.824L215.66 264.46C215.421 265.229 215.02 265.905 214.457 266.489C213.893 267.065 213.197 267.516 212.369 267.841C211.54 268.159 210.609 268.318 209.575 268.318ZM225.235 268.318C223.962 268.318 222.839 267.997 221.864 267.354C220.89 266.704 220.128 265.789 219.577 264.609C219.027 263.423 218.752 262.021 218.752 260.403C218.752 258.799 219.027 257.407 219.577 256.227C220.128 255.047 220.893 254.136 221.874 253.493C222.855 252.85 223.989 252.528 225.275 252.528C226.269 252.528 227.055 252.694 227.631 253.026C228.215 253.35 228.659 253.722 228.964 254.139C229.275 254.55 229.517 254.888 229.69 255.153H229.888V247.636H232.235V268H229.968V265.653H229.69C229.517 265.932 229.272 266.283 228.954 266.707C228.636 267.125 228.182 267.5 227.592 267.831C227.002 268.156 226.216 268.318 225.235 268.318ZM225.553 266.21C226.495 266.21 227.29 265.965 227.94 265.474C228.589 264.977 229.083 264.291 229.421 263.416C229.759 262.535 229.928 261.517 229.928 260.364C229.928 259.223 229.763 258.226 229.431 257.371C229.1 256.509 228.609 255.839 227.96 255.362C227.31 254.878 226.508 254.636 225.553 254.636C224.559 254.636 223.73 254.892 223.067 255.402C222.411 255.906 221.917 256.592 221.586 257.46C221.261 258.322 221.099 259.29 221.099 260.364C221.099 261.451 221.264 262.438 221.596 263.327C221.934 264.208 222.431 264.911 223.087 265.435C223.75 265.952 224.572 266.21 225.553 266.21ZM243.023 274.045C241.89 274.045 240.915 273.9 240.1 273.608C239.285 273.323 238.605 272.945 238.062 272.474C237.525 272.01 237.097 271.513 236.779 270.983L238.648 269.67C238.861 269.949 239.129 270.267 239.454 270.625C239.779 270.99 240.223 271.304 240.786 271.57C241.356 271.841 242.102 271.977 243.023 271.977C244.256 271.977 245.274 271.679 246.076 271.082C246.878 270.486 247.279 269.551 247.279 268.278V265.176H247.08C246.908 265.455 246.663 265.799 246.344 266.21C246.033 266.615 245.582 266.976 244.992 267.294C244.409 267.606 243.62 267.761 242.626 267.761C241.393 267.761 240.286 267.47 239.305 266.886C238.33 266.303 237.558 265.455 236.988 264.341C236.424 263.227 236.143 261.875 236.143 260.284C236.143 258.72 236.418 257.357 236.968 256.197C237.518 255.031 238.284 254.129 239.265 253.493C240.246 252.85 241.379 252.528 242.665 252.528C243.66 252.528 244.449 252.694 245.032 253.026C245.622 253.35 246.073 253.722 246.384 254.139C246.702 254.55 246.948 254.888 247.12 255.153H247.359V252.727H249.626V268.438C249.626 269.75 249.327 270.817 248.731 271.639C248.141 272.468 247.345 273.074 246.344 273.459C245.35 273.85 244.243 274.045 243.023 274.045ZM242.944 265.653C243.885 265.653 244.681 265.438 245.33 265.007C245.98 264.576 246.474 263.956 246.812 263.148C247.15 262.339 247.319 261.371 247.319 260.244C247.319 259.144 247.153 258.173 246.822 257.331C246.49 256.489 246 255.83 245.35 255.352C244.701 254.875 243.898 254.636 242.944 254.636C241.95 254.636 241.121 254.888 240.458 255.392C239.802 255.896 239.308 256.572 238.977 257.42C238.652 258.269 238.489 259.21 238.489 260.244C238.489 261.305 238.655 262.243 238.987 263.058C239.325 263.867 239.822 264.503 240.478 264.967C241.141 265.425 241.963 265.653 242.944 265.653ZM260.325 268.318C258.853 268.318 257.584 267.993 256.516 267.344C255.456 266.688 254.637 265.773 254.06 264.599C253.49 263.42 253.205 262.047 253.205 260.483C253.205 258.919 253.49 257.54 254.06 256.347C254.637 255.147 255.439 254.212 256.467 253.543C257.501 252.866 258.707 252.528 260.086 252.528C260.881 252.528 261.667 252.661 262.442 252.926C263.218 253.191 263.924 253.622 264.56 254.219C265.197 254.809 265.704 255.591 266.082 256.565C266.46 257.54 266.648 258.74 266.648 260.165V261.159H254.876V259.131H264.262C264.262 258.269 264.09 257.5 263.745 256.824C263.407 256.148 262.923 255.614 262.293 255.223C261.67 254.832 260.934 254.636 260.086 254.636C259.151 254.636 258.343 254.868 257.66 255.332C256.984 255.79 256.463 256.386 256.099 257.122C255.734 257.858 255.552 258.647 255.552 259.489V260.841C255.552 261.994 255.751 262.972 256.148 263.774C256.553 264.57 257.113 265.176 257.829 265.594C258.545 266.005 259.377 266.21 260.325 266.21C260.941 266.21 261.498 266.124 261.995 265.952C262.499 265.773 262.933 265.508 263.298 265.156C263.662 264.798 263.944 264.354 264.143 263.824L266.41 264.46C266.171 265.229 265.77 265.905 265.207 266.489C264.643 267.065 263.947 267.516 263.119 267.841C262.29 268.159 261.359 268.318 260.325 268.318Z" fill="#586858"/>
</svg>
