<svg width="420" height="380" viewBox="0 0 420 380" fill="none" xmlns="http://www.w3.org/2000/svg">
<rect width="420" height="380" rx="15" fill="#F1F3F1"/>
<path d="M70.3764 98.9844H64.777C64.6747 98.2599 64.4659 97.6165 64.1506 97.054C63.8352 96.483 63.4304 95.9972 62.9361 95.5966C62.4418 95.196 61.8707 94.8892 61.223 94.6761C60.5838 94.4631 59.8892 94.3565 59.1392 94.3565C57.7841 94.3565 56.6037 94.6932 55.598 95.3665C54.5923 96.0312 53.8125 97.0028 53.2585 98.2812C52.7045 99.5511 52.4276 101.094 52.4276 102.909C52.4276 104.776 52.7045 106.344 53.2585 107.614C53.821 108.884 54.6051 109.842 55.6108 110.49C56.6165 111.138 57.7798 111.462 59.1009 111.462C59.8423 111.462 60.5284 111.364 61.1591 111.168C61.7983 110.972 62.3651 110.686 62.8594 110.311C63.3537 109.928 63.7628 109.463 64.0866 108.918C64.419 108.372 64.6491 107.75 64.777 107.051L70.3764 107.077C70.2315 108.278 69.8693 109.438 69.2898 110.554C68.7188 111.662 67.9474 112.655 66.9759 113.533C66.0128 114.402 64.8622 115.092 63.5241 115.604C62.1946 116.107 60.6903 116.358 59.0114 116.358C56.6761 116.358 54.5881 115.83 52.7472 114.773C50.9148 113.716 49.4659 112.186 48.4006 110.183C47.3438 108.18 46.8153 105.756 46.8153 102.909C46.8153 100.054 47.3523 97.625 48.4261 95.6222C49.5 93.6193 50.9574 92.0937 52.7983 91.0455C54.6392 89.9886 56.7102 89.4602 59.0114 89.4602C60.5284 89.4602 61.9347 89.6733 63.2301 90.0994C64.5341 90.5256 65.6889 91.1477 66.6946 91.9659C67.7003 92.7756 68.5185 93.7685 69.1491 94.9446C69.7884 96.1207 70.1974 97.4673 70.3764 98.9844ZM83.1158 116.384C81.13 116.384 79.4126 115.962 77.9638 115.118C76.5234 114.266 75.4112 113.081 74.6271 111.564C73.843 110.038 73.451 108.27 73.451 106.259C73.451 104.23 73.843 102.457 74.6271 100.94C75.4112 99.4148 76.5234 98.2301 77.9638 97.3864C79.4126 96.5341 81.13 96.108 83.1158 96.108C85.1016 96.108 86.8146 96.5341 88.255 97.3864C89.7038 98.2301 90.8203 99.4148 91.6044 100.94C92.3885 102.457 92.7805 104.23 92.7805 106.259C92.7805 108.27 92.3885 110.038 91.6044 111.564C90.8203 113.081 89.7038 114.266 88.255 115.118C86.8146 115.962 85.1016 116.384 83.1158 116.384ZM83.1413 112.165C84.0447 112.165 84.799 111.909 85.4041 111.398C86.0092 110.878 86.4652 110.17 86.772 109.276C87.0874 108.381 87.245 107.362 87.245 106.22C87.245 105.078 87.0874 104.06 86.772 103.165C86.4652 102.27 86.0092 101.562 85.4041 101.043C84.799 100.523 84.0447 100.263 83.1413 100.263C82.2294 100.263 81.4624 100.523 80.8402 101.043C80.2266 101.562 79.7621 102.27 79.4467 103.165C79.1399 104.06 78.9865 105.078 78.9865 106.22C78.9865 107.362 79.1399 108.381 79.4467 109.276C79.7621 110.17 80.2266 110.878 80.8402 111.398C81.4624 111.909 82.2294 112.165 83.1413 112.165ZM101.768 104.648V116H96.3217V96.3636H101.512V99.8281H101.742C102.177 98.6861 102.906 97.7827 103.928 97.1179C104.951 96.4446 106.191 96.108 107.648 96.108C109.012 96.108 110.201 96.4062 111.215 97.0028C112.229 97.5994 113.018 98.4517 113.58 99.5597C114.143 100.659 114.424 101.972 114.424 103.497V116H108.978V104.469C108.987 103.267 108.68 102.33 108.058 101.656C107.435 100.974 106.579 100.634 105.488 100.634C104.755 100.634 104.107 100.791 103.545 101.107C102.991 101.422 102.556 101.882 102.241 102.487C101.934 103.084 101.776 103.804 101.768 104.648ZM127.588 116.384C125.577 116.384 123.847 115.957 122.398 115.105C120.958 114.244 119.85 113.051 119.074 111.526C118.307 110 117.924 108.244 117.924 106.259C117.924 104.247 118.311 102.483 119.087 100.966C119.871 99.4403 120.983 98.2514 122.424 97.3991C123.864 96.5384 125.577 96.108 127.563 96.108C129.276 96.108 130.776 96.419 132.063 97.0412C133.35 97.6634 134.368 98.5369 135.118 99.6619C135.868 100.787 136.282 102.108 136.358 103.625H131.219C131.074 102.645 130.691 101.857 130.069 101.26C129.455 100.655 128.65 100.352 127.652 100.352C126.809 100.352 126.071 100.582 125.441 101.043C124.819 101.494 124.333 102.155 123.983 103.024C123.634 103.893 123.459 104.946 123.459 106.182C123.459 107.435 123.63 108.5 123.971 109.378C124.32 110.256 124.81 110.925 125.441 111.385C126.071 111.845 126.809 112.075 127.652 112.075C128.275 112.075 128.833 111.947 129.327 111.692C129.83 111.436 130.243 111.065 130.567 110.58C130.9 110.085 131.117 109.493 131.219 108.803H136.358C136.273 110.303 135.864 111.624 135.131 112.766C134.407 113.899 133.405 114.786 132.127 115.425C130.848 116.064 129.336 116.384 127.588 116.384ZM148.794 116.384C146.774 116.384 145.036 115.974 143.578 115.156C142.129 114.33 141.013 113.162 140.229 111.653C139.445 110.136 139.053 108.342 139.053 106.271C139.053 104.251 139.445 102.479 140.229 100.953C141.013 99.4276 142.116 98.2386 143.54 97.3864C144.972 96.5341 146.651 96.108 148.577 96.108C149.872 96.108 151.078 96.3168 152.195 96.7344C153.32 97.1435 154.3 97.7614 155.135 98.5881C155.979 99.4148 156.635 100.455 157.104 101.707C157.572 102.952 157.807 104.409 157.807 106.08V107.575H141.226V104.2H152.68C152.68 103.416 152.51 102.722 152.169 102.116C151.828 101.511 151.355 101.038 150.75 100.697C150.153 100.348 149.459 100.173 148.666 100.173C147.839 100.173 147.107 100.365 146.467 100.749C145.837 101.124 145.342 101.631 144.984 102.27C144.626 102.901 144.443 103.604 144.435 104.379V107.588C144.435 108.56 144.614 109.399 144.972 110.107C145.338 110.814 145.854 111.359 146.518 111.743C147.183 112.126 147.972 112.318 148.884 112.318C149.489 112.318 150.043 112.233 150.545 112.062C151.048 111.892 151.479 111.636 151.837 111.295C152.195 110.955 152.467 110.537 152.655 110.043L157.692 110.375C157.436 111.585 156.912 112.642 156.119 113.545C155.335 114.44 154.321 115.139 153.077 115.642C151.841 116.136 150.413 116.384 148.794 116.384ZM166.807 104.648V116H161.361V96.3636H166.551V99.8281H166.781C167.216 98.6861 167.945 97.7827 168.967 97.1179C169.99 96.4446 171.23 96.108 172.688 96.108C174.051 96.108 175.24 96.4062 176.254 97.0028C177.268 97.5994 178.057 98.4517 178.619 99.5597C179.182 100.659 179.463 101.972 179.463 103.497V116H174.017V104.469C174.026 103.267 173.719 102.33 173.097 101.656C172.474 100.974 171.618 100.634 170.527 100.634C169.794 100.634 169.146 100.791 168.584 101.107C168.03 101.422 167.595 101.882 167.28 102.487C166.973 103.084 166.815 103.804 166.807 104.648ZM194.2 96.3636V100.455H182.375V96.3636H194.2ZM185.059 91.6591H190.505V109.966C190.505 110.469 190.582 110.861 190.735 111.142C190.889 111.415 191.102 111.607 191.375 111.717C191.656 111.828 191.98 111.884 192.346 111.884C192.602 111.884 192.858 111.862 193.113 111.82C193.369 111.768 193.565 111.73 193.701 111.705L194.558 115.757C194.285 115.842 193.902 115.94 193.407 116.051C192.913 116.17 192.312 116.243 191.605 116.268C190.292 116.32 189.142 116.145 188.153 115.744C187.173 115.344 186.41 114.722 185.865 113.878C185.319 113.034 185.051 111.969 185.059 110.682V91.6591ZM197.748 116V96.3636H203.027V99.7898H203.232C203.59 98.571 204.191 97.6506 205.034 97.0284C205.878 96.3977 206.85 96.0824 207.949 96.0824C208.222 96.0824 208.516 96.0994 208.831 96.1335C209.147 96.1676 209.424 96.2145 209.662 96.2741V101.107C209.407 101.03 209.053 100.962 208.601 100.902C208.15 100.842 207.736 100.812 207.361 100.812C206.56 100.812 205.844 100.987 205.213 101.337C204.591 101.678 204.097 102.155 203.73 102.768C203.373 103.382 203.194 104.089 203.194 104.891V116H197.748ZM217.515 116.371C216.262 116.371 215.146 116.153 214.165 115.719C213.185 115.276 212.41 114.624 211.839 113.763C211.276 112.893 210.995 111.811 210.995 110.516C210.995 109.425 211.195 108.509 211.596 107.767C211.996 107.026 212.542 106.429 213.232 105.977C213.923 105.526 214.707 105.185 215.585 104.955C216.471 104.724 217.4 104.562 218.371 104.469C219.513 104.349 220.434 104.239 221.133 104.136C221.832 104.026 222.339 103.864 222.654 103.651C222.969 103.437 223.127 103.122 223.127 102.705V102.628C223.127 101.818 222.871 101.192 222.36 100.749C221.857 100.305 221.141 100.084 220.212 100.084C219.232 100.084 218.452 100.301 217.873 100.736C217.293 101.162 216.91 101.699 216.722 102.347L211.685 101.938C211.941 100.744 212.444 99.7131 213.194 98.8438C213.944 97.9659 214.911 97.2926 216.096 96.8239C217.289 96.3466 218.67 96.108 220.238 96.108C221.329 96.108 222.373 96.2358 223.37 96.4915C224.376 96.7472 225.266 97.1435 226.042 97.6804C226.826 98.2173 227.444 98.9077 227.896 99.7514C228.347 100.587 228.573 101.588 228.573 102.756V116H223.408V113.277H223.255C222.94 113.891 222.518 114.432 221.989 114.901C221.461 115.361 220.826 115.723 220.085 115.987C219.343 116.243 218.487 116.371 217.515 116.371ZM219.075 112.612C219.876 112.612 220.583 112.455 221.197 112.139C221.81 111.815 222.292 111.381 222.641 110.835C222.991 110.29 223.165 109.672 223.165 108.982V106.898C222.995 107.009 222.761 107.111 222.462 107.205C222.173 107.29 221.844 107.371 221.478 107.447C221.112 107.516 220.745 107.58 220.379 107.639C220.012 107.69 219.68 107.737 219.381 107.78C218.742 107.874 218.184 108.023 217.707 108.227C217.229 108.432 216.859 108.709 216.594 109.058C216.33 109.399 216.198 109.825 216.198 110.337C216.198 111.078 216.467 111.645 217.004 112.037C217.549 112.42 218.239 112.612 219.075 112.612ZM243.243 96.3636V100.455H231.418V96.3636H243.243ZM234.102 91.6591H239.548V109.966C239.548 110.469 239.625 110.861 239.778 111.142C239.932 111.415 240.145 111.607 240.418 111.717C240.699 111.828 241.023 111.884 241.389 111.884C241.645 111.884 241.901 111.862 242.156 111.82C242.412 111.768 242.608 111.73 242.744 111.705L243.601 115.757C243.328 115.842 242.945 115.94 242.45 116.051C241.956 116.17 241.355 116.243 240.648 116.268C239.335 116.32 238.185 116.145 237.196 115.744C236.216 115.344 235.453 114.722 234.908 113.878C234.362 113.034 234.094 111.969 234.102 110.682V91.6591ZM246.79 116V96.3636H252.237V116H246.79ZM249.526 93.8324C248.717 93.8324 248.022 93.5639 247.442 93.027C246.871 92.4815 246.586 91.8295 246.586 91.071C246.586 90.321 246.871 89.6776 247.442 89.1406C248.022 88.5952 248.717 88.3224 249.526 88.3224C250.336 88.3224 251.026 88.5952 251.597 89.1406C252.177 89.6776 252.467 90.321 252.467 91.071C252.467 91.8295 252.177 92.4815 251.597 93.027C251.026 93.5639 250.336 93.8324 249.526 93.8324ZM265.471 116.384C263.485 116.384 261.768 115.962 260.319 115.118C258.879 114.266 257.767 113.081 256.983 111.564C256.199 110.038 255.806 108.27 255.806 106.259C255.806 104.23 256.199 102.457 256.983 100.94C257.767 99.4148 258.879 98.2301 260.319 97.3864C261.768 96.5341 263.485 96.108 265.471 96.108C267.457 96.108 269.17 96.5341 270.61 97.3864C272.059 98.2301 273.176 99.4148 273.96 100.94C274.744 102.457 275.136 104.23 275.136 106.259C275.136 108.27 274.744 110.038 273.96 111.564C273.176 113.081 272.059 114.266 270.61 115.118C269.17 115.962 267.457 116.384 265.471 116.384ZM265.497 112.165C266.4 112.165 267.154 111.909 267.76 111.398C268.365 110.878 268.821 110.17 269.127 109.276C269.443 108.381 269.6 107.362 269.6 106.22C269.6 105.078 269.443 104.06 269.127 103.165C268.821 102.27 268.365 101.562 267.76 101.043C267.154 100.523 266.4 100.263 265.497 100.263C264.585 100.263 263.818 100.523 263.196 101.043C262.582 101.562 262.118 102.27 261.802 103.165C261.495 104.06 261.342 105.078 261.342 106.22C261.342 107.362 261.495 108.381 261.802 109.276C262.118 110.17 262.582 110.878 263.196 111.398C263.818 111.909 264.585 112.165 265.497 112.165ZM284.123 104.648V116H278.677V96.3636H283.868V99.8281H284.098C284.532 98.6861 285.261 97.7827 286.284 97.1179C287.306 96.4446 288.547 96.108 290.004 96.108C291.368 96.108 292.556 96.4062 293.571 97.0028C294.585 97.5994 295.373 98.4517 295.936 99.5597C296.498 100.659 296.779 101.972 296.779 103.497V116H291.333V104.469C291.342 103.267 291.035 102.33 290.413 101.656C289.791 100.974 288.934 100.634 287.843 100.634C287.11 100.634 286.463 100.791 285.9 101.107C285.346 101.422 284.912 101.882 284.596 102.487C284.289 103.084 284.132 103.804 284.123 104.648Z" fill="#118E11"/>
<path d="M53.75 200H47.4659V179.636H54.0284C56.0038 179.636 57.6941 180.044 59.0994 180.859C60.5047 181.668 61.5819 182.831 62.331 184.349C63.08 185.861 63.4545 187.67 63.4545 189.778C63.4545 191.9 63.0767 193.726 62.321 195.257C61.5653 196.782 60.465 197.955 59.0199 198.777C57.5748 199.592 55.8182 200 53.75 200ZM49.9318 197.812H53.5909C55.2746 197.812 56.67 197.488 57.777 196.838C58.884 196.188 59.7093 195.264 60.2528 194.064C60.7964 192.864 61.0682 191.436 61.0682 189.778C61.0682 188.134 60.7997 186.719 60.2628 185.533C59.7259 184.339 58.9238 183.425 57.8565 182.788C56.7893 182.145 55.4602 181.824 53.8693 181.824H49.9318V197.812ZM67.2727 200V184.727H69.6193V200H67.2727ZM68.4659 182.182C68.0085 182.182 67.6141 182.026 67.2827 181.714C66.9579 181.403 66.7955 181.028 66.7955 180.591C66.7955 180.153 66.9579 179.779 67.2827 179.467C67.6141 179.156 68.0085 179 68.4659 179C68.9233 179 69.3144 179.156 69.6392 179.467C69.9706 179.779 70.1364 180.153 70.1364 180.591C70.1364 181.028 69.9706 181.403 69.6392 181.714C69.3144 182.026 68.9233 182.182 68.4659 182.182ZM80.7184 184.727V186.716H72.4854V184.727H80.7184ZM74.9513 200V182.619C74.9513 181.744 75.1568 181.015 75.5678 180.432C75.9788 179.848 76.5124 179.411 77.1687 179.119C77.8249 178.828 78.5176 178.682 79.2468 178.682C79.8235 178.682 80.2942 178.728 80.6587 178.821C81.0233 178.914 81.2951 179 81.4741 179.08L80.7979 181.108C80.6786 181.068 80.5129 181.018 80.3008 180.959C80.0953 180.899 79.8235 180.869 79.4854 180.869C78.7099 180.869 78.1497 181.065 77.805 181.456C77.467 181.847 77.2979 182.42 77.2979 183.176V200H74.9513ZM90.8082 184.727V186.716H82.5753V184.727H90.8082ZM85.0412 200V182.619C85.0412 181.744 85.2467 181.015 85.6577 180.432C86.0687 179.848 86.6023 179.411 87.2585 179.119C87.9148 178.828 88.6075 178.682 89.3366 178.682C89.9134 178.682 90.384 178.728 90.7486 178.821C91.1132 178.914 91.3849 179 91.5639 179.08L90.8878 181.108C90.7685 181.068 90.6027 181.018 90.3906 180.959C90.1851 180.899 89.9134 180.869 89.5753 180.869C88.7997 180.869 88.2396 181.065 87.8949 181.456C87.5568 181.847 87.3878 182.42 87.3878 183.176V200H85.0412ZM94.0969 200V184.727H96.4435V200H94.0969ZM95.2901 182.182C94.8327 182.182 94.4383 182.026 94.1069 181.714C93.7821 181.403 93.6197 181.028 93.6197 180.591C93.6197 180.153 93.7821 179.779 94.1069 179.467C94.4383 179.156 94.8327 179 95.2901 179C95.7475 179 96.1386 179.156 96.4634 179.467C96.7949 179.779 96.9606 180.153 96.9606 180.591C96.9606 181.028 96.7949 181.403 96.4634 181.714C96.1386 182.026 95.7475 182.182 95.2901 182.182ZM106.946 200.318C105.514 200.318 104.281 199.98 103.247 199.304C102.213 198.628 101.418 197.696 100.861 196.51C100.304 195.323 100.026 193.968 100.026 192.443C100.026 190.892 100.311 189.523 100.881 188.337C101.457 187.143 102.259 186.212 103.287 185.543C104.321 184.866 105.527 184.528 106.906 184.528C107.98 184.528 108.948 184.727 109.81 185.125C110.671 185.523 111.377 186.08 111.928 186.795C112.478 187.511 112.819 188.347 112.952 189.301H110.605C110.426 188.605 110.028 187.989 109.412 187.452C108.802 186.908 107.98 186.636 106.946 186.636C106.031 186.636 105.229 186.875 104.54 187.352C103.857 187.823 103.323 188.489 102.939 189.351C102.561 190.206 102.372 191.21 102.372 192.364C102.372 193.544 102.558 194.571 102.929 195.446C103.307 196.321 103.837 197 104.52 197.484C105.209 197.968 106.018 198.21 106.946 198.21C107.556 198.21 108.109 198.104 108.607 197.892C109.104 197.68 109.525 197.375 109.869 196.977C110.214 196.58 110.459 196.102 110.605 195.545H112.952C112.819 196.447 112.491 197.259 111.967 197.982C111.45 198.697 110.764 199.268 109.909 199.692C109.061 200.109 108.073 200.318 106.946 200.318ZM126.007 193.756V184.727H128.354V200H126.007V197.415H125.848C125.49 198.19 124.933 198.85 124.178 199.393C123.422 199.93 122.467 200.199 121.314 200.199C120.359 200.199 119.511 199.99 118.768 199.572C118.026 199.148 117.443 198.512 117.018 197.663C116.594 196.808 116.382 195.731 116.382 194.432V184.727H118.729V194.273C118.729 195.386 119.04 196.275 119.663 196.938C120.293 197.6 121.095 197.932 122.07 197.932C122.653 197.932 123.246 197.783 123.849 197.484C124.459 197.186 124.97 196.729 125.381 196.112C125.798 195.496 126.007 194.71 126.007 193.756ZM134.998 179.636V200H132.652V179.636H134.998ZM145.938 184.727V186.716H138.023V184.727H145.938ZM140.33 181.068H142.677V195.625C142.677 196.288 142.773 196.785 142.965 197.116C143.164 197.441 143.416 197.66 143.721 197.773C144.032 197.879 144.361 197.932 144.705 197.932C144.964 197.932 145.176 197.919 145.342 197.892C145.507 197.859 145.64 197.832 145.739 197.812L146.217 199.92C146.058 199.98 145.835 200.04 145.55 200.099C145.265 200.166 144.904 200.199 144.467 200.199C143.804 200.199 143.154 200.056 142.518 199.771C141.888 199.486 141.364 199.052 140.947 198.469C140.536 197.885 140.33 197.15 140.33 196.261V181.068ZM150.979 205.727C150.582 205.727 150.227 205.694 149.915 205.628C149.604 205.568 149.388 205.509 149.269 205.449L149.866 203.381C150.436 203.527 150.94 203.58 151.377 203.54C151.815 203.5 152.202 203.304 152.54 202.953C152.885 202.608 153.2 202.048 153.485 201.273L153.923 200.08L148.275 184.727H150.82L155.036 196.898H155.195L159.411 184.727H161.957L155.474 202.227C155.182 203.016 154.821 203.669 154.39 204.186C153.959 204.71 153.459 205.098 152.888 205.349C152.325 205.601 151.689 205.727 150.979 205.727ZM172.929 200V184.727H175.276V200H172.929ZM174.122 182.182C173.665 182.182 173.27 182.026 172.939 181.714C172.614 181.403 172.452 181.028 172.452 180.591C172.452 180.153 172.614 179.779 172.939 179.467C173.27 179.156 173.665 179 174.122 179C174.58 179 174.971 179.156 175.295 179.467C175.627 179.779 175.793 180.153 175.793 180.591C175.793 181.028 175.627 181.403 175.295 181.714C174.971 182.026 174.58 182.182 174.122 182.182ZM185.738 206.045C184.605 206.045 183.63 205.9 182.815 205.608C182 205.323 181.32 204.945 180.777 204.474C180.24 204.01 179.812 203.513 179.494 202.983L181.363 201.67C181.575 201.949 181.844 202.267 182.169 202.625C182.493 202.99 182.938 203.304 183.501 203.57C184.071 203.841 184.817 203.977 185.738 203.977C186.971 203.977 187.989 203.679 188.791 203.082C189.593 202.486 189.994 201.551 189.994 200.278V197.176H189.795C189.623 197.455 189.377 197.799 189.059 198.21C188.748 198.615 188.297 198.976 187.707 199.294C187.124 199.606 186.335 199.761 185.341 199.761C184.108 199.761 183.001 199.47 182.02 198.886C181.045 198.303 180.273 197.455 179.703 196.341C179.139 195.227 178.858 193.875 178.858 192.284C178.858 190.72 179.133 189.357 179.683 188.197C180.233 187.031 180.999 186.129 181.98 185.493C182.961 184.85 184.094 184.528 185.38 184.528C186.375 184.528 187.163 184.694 187.747 185.026C188.337 185.35 188.788 185.722 189.099 186.139C189.417 186.55 189.663 186.888 189.835 187.153H190.074V184.727H192.341V200.438C192.341 201.75 192.042 202.817 191.446 203.639C190.856 204.468 190.06 205.074 189.059 205.459C188.065 205.85 186.958 206.045 185.738 206.045ZM185.659 197.653C186.6 197.653 187.395 197.438 188.045 197.007C188.695 196.576 189.189 195.956 189.527 195.148C189.865 194.339 190.034 193.371 190.034 192.244C190.034 191.144 189.868 190.173 189.537 189.331C189.205 188.489 188.715 187.83 188.065 187.352C187.415 186.875 186.613 186.636 185.659 186.636C184.664 186.636 183.836 186.888 183.173 187.392C182.517 187.896 182.023 188.572 181.691 189.42C181.367 190.269 181.204 191.21 181.204 192.244C181.204 193.305 181.37 194.243 181.701 195.058C182.039 195.867 182.537 196.503 183.193 196.967C183.856 197.425 184.678 197.653 185.659 197.653ZM198.983 190.812V200H196.636V184.727H198.903V187.114H199.102C199.46 186.338 200.003 185.715 200.733 185.244C201.462 184.767 202.403 184.528 203.556 184.528C204.591 184.528 205.495 184.741 206.271 185.165C207.047 185.582 207.65 186.219 208.081 187.074C208.511 187.922 208.727 188.996 208.727 190.295V200H206.38V190.455C206.38 189.255 206.069 188.32 205.446 187.651C204.823 186.974 203.967 186.636 202.88 186.636C202.131 186.636 201.462 186.799 200.872 187.124C200.288 187.448 199.828 187.922 199.49 188.545C199.152 189.169 198.983 189.924 198.983 190.812ZM219.219 200.318C217.841 200.318 216.631 199.99 215.59 199.334C214.556 198.678 213.747 197.759 213.164 196.58C212.587 195.4 212.299 194.021 212.299 192.443C212.299 190.852 212.587 189.464 213.164 188.277C213.747 187.09 214.556 186.169 215.59 185.513C216.631 184.857 217.841 184.528 219.219 184.528C220.598 184.528 221.805 184.857 222.839 185.513C223.879 186.169 224.688 187.09 225.265 188.277C225.848 189.464 226.14 190.852 226.14 192.443C226.14 194.021 225.848 195.4 225.265 196.58C224.688 197.759 223.879 198.678 222.839 199.334C221.805 199.99 220.598 200.318 219.219 200.318ZM219.219 198.21C220.267 198.21 221.129 197.942 221.805 197.405C222.481 196.868 222.981 196.162 223.306 195.287C223.631 194.412 223.793 193.464 223.793 192.443C223.793 191.422 223.631 190.471 223.306 189.589C222.981 188.708 222.481 187.995 221.805 187.452C221.129 186.908 220.267 186.636 219.219 186.636C218.172 186.636 217.31 186.908 216.634 187.452C215.958 187.995 215.458 188.708 215.133 189.589C214.808 190.471 214.646 191.422 214.646 192.443C214.646 193.464 214.808 194.412 215.133 195.287C215.458 196.162 215.958 196.868 216.634 197.405C217.31 197.942 218.172 198.21 219.219 198.21ZM229.722 200V184.727H231.989V187.034H232.148C232.426 186.278 232.93 185.665 233.659 185.195C234.389 184.724 235.211 184.489 236.125 184.489C236.298 184.489 236.513 184.492 236.772 184.499C237.03 184.505 237.226 184.515 237.358 184.528V186.915C237.279 186.895 237.096 186.865 236.811 186.825C236.533 186.779 236.238 186.756 235.926 186.756C235.184 186.756 234.521 186.911 233.938 187.223C233.361 187.528 232.904 187.952 232.566 188.496C232.234 189.033 232.069 189.646 232.069 190.335V200H229.722ZM240.14 200V184.727H242.487V200H240.14ZM241.333 182.182C240.876 182.182 240.481 182.026 240.15 181.714C239.825 181.403 239.663 181.028 239.663 180.591C239.663 180.153 239.825 179.779 240.15 179.467C240.481 179.156 240.876 179 241.333 179C241.79 179 242.182 179.156 242.506 179.467C242.838 179.779 243.004 180.153 243.004 180.591C243.004 181.028 242.838 181.403 242.506 181.714C242.182 182.026 241.79 182.182 241.333 182.182ZM249.131 190.812V200H246.784V184.727H249.051V187.114H249.25C249.608 186.338 250.152 185.715 250.881 185.244C251.61 184.767 252.551 184.528 253.705 184.528C254.739 184.528 255.644 184.741 256.419 185.165C257.195 185.582 257.798 186.219 258.229 187.074C258.66 187.922 258.875 188.996 258.875 190.295V200H256.529V190.455C256.529 189.255 256.217 188.32 255.594 187.651C254.971 186.974 254.116 186.636 253.029 186.636C252.28 186.636 251.61 186.799 251.02 187.124C250.437 187.448 249.976 187.922 249.638 188.545C249.3 189.169 249.131 189.924 249.131 190.812ZM269.328 206.045C268.195 206.045 267.22 205.9 266.405 205.608C265.589 205.323 264.91 204.945 264.366 204.474C263.83 204.01 263.402 203.513 263.084 202.983L264.953 201.67C265.165 201.949 265.434 202.267 265.759 202.625C266.083 202.99 266.527 203.304 267.091 203.57C267.661 203.841 268.407 203.977 269.328 203.977C270.561 203.977 271.579 203.679 272.381 203.082C273.183 202.486 273.584 201.551 273.584 200.278V197.176H273.385C273.213 197.455 272.967 197.799 272.649 198.21C272.338 198.615 271.887 198.976 271.297 199.294C270.714 199.606 269.925 199.761 268.93 199.761C267.697 199.761 266.59 199.47 265.609 198.886C264.635 198.303 263.863 197.455 263.293 196.341C262.729 195.227 262.447 193.875 262.447 192.284C262.447 190.72 262.723 189.357 263.273 188.197C263.823 187.031 264.589 186.129 265.57 185.493C266.551 184.85 267.684 184.528 268.97 184.528C269.964 184.528 270.753 184.694 271.337 185.026C271.927 185.35 272.377 185.722 272.689 186.139C273.007 186.55 273.252 186.888 273.425 187.153H273.663V184.727H275.93V200.438C275.93 201.75 275.632 202.817 275.036 203.639C274.446 204.468 273.65 205.074 272.649 205.459C271.655 205.85 270.548 206.045 269.328 206.045ZM269.249 197.653C270.19 197.653 270.985 197.438 271.635 197.007C272.285 196.576 272.778 195.956 273.116 195.148C273.455 194.339 273.624 193.371 273.624 192.244C273.624 191.144 273.458 190.173 273.126 189.331C272.795 188.489 272.304 187.83 271.655 187.352C271.005 186.875 270.203 186.636 269.249 186.636C268.254 186.636 267.426 186.888 266.763 187.392C266.107 187.896 265.613 188.572 265.281 189.42C264.956 190.269 264.794 191.21 264.794 192.244C264.794 193.305 264.96 194.243 265.291 195.058C265.629 195.867 266.126 196.503 266.783 196.967C267.446 197.425 268.268 197.653 269.249 197.653ZM47.1477 234V218.727H49.4943V234H47.1477ZM48.3409 216.182C47.8835 216.182 47.4891 216.026 47.1577 215.714C46.8329 215.403 46.6705 215.028 46.6705 214.591C46.6705 214.153 46.8329 213.779 47.1577 213.467C47.4891 213.156 47.8835 213 48.3409 213C48.7983 213 49.1894 213.156 49.5142 213.467C49.8456 213.779 50.0114 214.153 50.0114 214.591C50.0114 215.028 49.8456 215.403 49.5142 215.714C49.1894 216.026 48.7983 216.182 48.3409 216.182ZM53.7923 234V218.727H56.0593V221.034H56.2184C56.4968 220.278 57.0006 219.665 57.7298 219.195C58.4589 218.724 59.2809 218.489 60.1957 218.489C60.368 218.489 60.5835 218.492 60.842 218.499C61.1005 218.505 61.296 218.515 61.4286 218.528V220.915C61.3491 220.895 61.1668 220.865 60.8817 220.825C60.6033 220.779 60.3084 220.756 59.9968 220.756C59.2544 220.756 58.5915 220.911 58.0082 221.223C57.4315 221.528 56.9741 221.952 56.636 222.496C56.3046 223.033 56.1388 223.646 56.1388 224.335V234H53.7923ZM64.2102 234V218.727H66.4773V221.034H66.6364C66.9148 220.278 67.4186 219.665 68.1477 219.195C68.8769 218.724 69.6989 218.489 70.6136 218.489C70.786 218.489 71.0014 218.492 71.2599 218.499C71.5185 218.505 71.714 218.515 71.8466 218.528V220.915C71.767 220.895 71.5848 220.865 71.2997 220.825C71.0213 220.779 70.7263 220.756 70.4148 220.756C69.6723 220.756 69.0095 220.911 68.4261 221.223C67.8494 221.528 67.392 221.952 67.054 222.496C66.7225 223.033 66.5568 223.646 66.5568 224.335V234H64.2102ZM80.5668 234.318C79.0952 234.318 77.8258 233.993 76.7585 233.344C75.6979 232.688 74.8793 231.773 74.3026 230.599C73.7325 229.42 73.4474 228.047 73.4474 226.483C73.4474 224.919 73.7325 223.54 74.3026 222.347C74.8793 221.147 75.6813 220.212 76.7088 219.543C77.7429 218.866 78.9493 218.528 80.3281 218.528C81.1236 218.528 81.9091 218.661 82.6847 218.926C83.4602 219.191 84.1662 219.622 84.8026 220.219C85.4389 220.809 85.946 221.591 86.3239 222.565C86.7017 223.54 86.8906 224.74 86.8906 226.165V227.159H75.1179V225.131H84.5043C84.5043 224.269 84.3319 223.5 83.9872 222.824C83.6491 222.148 83.1652 221.614 82.5355 221.223C81.9124 220.832 81.1766 220.636 80.3281 220.636C79.3935 220.636 78.5848 220.868 77.902 221.332C77.2259 221.79 76.7055 222.386 76.3409 223.122C75.9763 223.858 75.794 224.647 75.794 225.489V226.841C75.794 227.994 75.9929 228.972 76.3906 229.774C76.795 230.57 77.3551 231.176 78.071 231.594C78.7869 232.005 79.6188 232.21 80.5668 232.21C81.1832 232.21 81.7401 232.124 82.2372 231.952C82.741 231.773 83.1752 231.508 83.5398 231.156C83.9044 230.798 84.1861 230.354 84.3849 229.824L86.652 230.46C86.4134 231.229 86.0123 231.905 85.4489 232.489C84.8854 233.065 84.1894 233.516 83.3608 233.841C82.5322 234.159 81.6009 234.318 80.5668 234.318ZM92.8068 213.636V234H90.4602V213.636H92.8068ZM103.508 234.318C102.037 234.318 100.767 233.993 99.6999 233.344C98.6393 232.688 97.8207 231.773 97.244 230.599C96.6739 229.42 96.3888 228.047 96.3888 226.483C96.3888 224.919 96.6739 223.54 97.244 222.347C97.8207 221.147 98.6228 220.212 99.6502 219.543C100.684 218.866 101.891 218.528 103.27 218.528C104.065 218.528 104.85 218.661 105.626 218.926C106.402 219.191 107.108 219.622 107.744 220.219C108.38 220.809 108.887 221.591 109.265 222.565C109.643 223.54 109.832 224.74 109.832 226.165V227.159H98.0593V225.131H107.446C107.446 224.269 107.273 223.5 106.929 222.824C106.591 222.148 106.107 221.614 105.477 221.223C104.854 220.832 104.118 220.636 103.27 220.636C102.335 220.636 101.526 220.868 100.843 221.332C100.167 221.79 99.6469 222.386 99.2823 223.122C98.9177 223.858 98.7354 224.647 98.7354 225.489V226.841C98.7354 227.994 98.9343 228.972 99.332 229.774C99.7364 230.57 100.297 231.176 101.012 231.594C101.728 232.005 102.56 232.21 103.508 232.21C104.125 232.21 104.681 232.124 105.179 231.952C105.682 231.773 106.117 231.508 106.481 231.156C106.846 230.798 107.127 230.354 107.326 229.824L109.593 230.46C109.355 231.229 108.954 231.905 108.39 232.489C107.827 233.065 107.131 233.516 106.302 233.841C105.474 234.159 104.542 234.318 103.508 234.318ZM125.425 218.727L119.778 234H117.391L111.744 218.727H114.289L118.505 230.898H118.664L122.88 218.727H125.425ZM132.552 234.358C131.584 234.358 130.706 234.176 129.917 233.811C129.128 233.44 128.502 232.906 128.038 232.21C127.574 231.508 127.342 230.659 127.342 229.665C127.342 228.79 127.514 228.08 127.859 227.537C128.204 226.987 128.664 226.556 129.241 226.244C129.818 225.933 130.454 225.701 131.15 225.548C131.853 225.389 132.559 225.263 133.268 225.17C134.196 225.051 134.949 224.962 135.525 224.902C136.109 224.836 136.533 224.726 136.798 224.574C137.07 224.421 137.206 224.156 137.206 223.778V223.699C137.206 222.718 136.937 221.955 136.4 221.412C135.87 220.868 135.065 220.597 133.984 220.597C132.864 220.597 131.985 220.842 131.349 221.332C130.713 221.823 130.265 222.347 130.007 222.903L127.779 222.108C128.177 221.18 128.708 220.457 129.37 219.94C130.04 219.417 130.769 219.052 131.558 218.847C132.353 218.634 133.136 218.528 133.904 218.528C134.395 218.528 134.958 218.588 135.595 218.707C136.238 218.82 136.858 219.055 137.454 219.413C138.057 219.771 138.558 220.312 138.956 221.034C139.353 221.757 139.552 222.724 139.552 223.938V234H137.206V231.932H137.086C136.927 232.263 136.662 232.618 136.291 232.996C135.92 233.374 135.426 233.695 134.809 233.96C134.193 234.225 133.44 234.358 132.552 234.358ZM132.91 232.25C133.838 232.25 134.62 232.068 135.257 231.703C135.9 231.339 136.384 230.868 136.708 230.291C137.04 229.714 137.206 229.108 137.206 228.472V226.324C137.106 226.443 136.887 226.553 136.549 226.652C136.218 226.745 135.833 226.828 135.396 226.901C134.965 226.967 134.544 227.027 134.133 227.08C133.729 227.126 133.401 227.166 133.149 227.199C132.539 227.278 131.969 227.408 131.439 227.587C130.915 227.759 130.491 228.021 130.166 228.372C129.848 228.717 129.689 229.187 129.689 229.784C129.689 230.599 129.99 231.216 130.593 231.634C131.203 232.045 131.975 232.25 132.91 232.25ZM146.182 224.812V234H143.835V218.727H146.102V221.114H146.301C146.659 220.338 147.203 219.715 147.932 219.244C148.661 218.767 149.602 218.528 150.756 218.528C151.79 218.528 152.695 218.741 153.47 219.165C154.246 219.582 154.849 220.219 155.28 221.074C155.711 221.922 155.926 222.996 155.926 224.295V234H153.58V224.455C153.58 223.255 153.268 222.32 152.645 221.651C152.022 220.974 151.167 220.636 150.08 220.636C149.33 220.636 148.661 220.799 148.071 221.124C147.488 221.448 147.027 221.922 146.689 222.545C146.351 223.169 146.182 223.924 146.182 224.812ZM166.856 218.727V220.716H158.941V218.727H166.856ZM161.248 215.068H163.595V229.625C163.595 230.288 163.691 230.785 163.883 231.116C164.082 231.441 164.334 231.66 164.639 231.773C164.95 231.879 165.279 231.932 165.623 231.932C165.882 231.932 166.094 231.919 166.26 231.892C166.425 231.859 166.558 231.832 166.657 231.812L167.135 233.92C166.975 233.98 166.753 234.04 166.468 234.099C166.183 234.166 165.822 234.199 165.385 234.199C164.722 234.199 164.072 234.056 163.436 233.771C162.806 233.486 162.282 233.052 161.865 232.469C161.454 231.885 161.248 231.15 161.248 230.261V215.068ZM189.079 222.148L186.971 222.744C186.839 222.393 186.643 222.052 186.385 221.72C186.133 221.382 185.788 221.104 185.35 220.885C184.913 220.666 184.353 220.557 183.67 220.557C182.735 220.557 181.957 220.772 181.333 221.203C180.717 221.627 180.409 222.168 180.409 222.824C180.409 223.407 180.621 223.868 181.045 224.206C181.469 224.544 182.132 224.826 183.034 225.051L185.301 225.608C186.666 225.939 187.684 226.446 188.353 227.129C189.023 227.805 189.358 228.677 189.358 229.744C189.358 230.619 189.106 231.402 188.602 232.091C188.105 232.78 187.409 233.324 186.514 233.722C185.619 234.119 184.578 234.318 183.392 234.318C181.834 234.318 180.545 233.98 179.524 233.304C178.503 232.628 177.857 231.64 177.585 230.341L179.812 229.784C180.024 230.606 180.425 231.223 181.015 231.634C181.612 232.045 182.391 232.25 183.352 232.25C184.446 232.25 185.314 232.018 185.957 231.554C186.607 231.083 186.931 230.52 186.931 229.864C186.931 229.333 186.746 228.889 186.375 228.531C186.003 228.167 185.433 227.895 184.664 227.716L182.119 227.119C180.72 226.788 179.693 226.274 179.037 225.578C178.387 224.875 178.062 223.997 178.062 222.943C178.062 222.081 178.304 221.319 178.788 220.656C179.279 219.993 179.945 219.473 180.787 219.095C181.635 218.717 182.596 218.528 183.67 218.528C185.181 218.528 186.368 218.86 187.23 219.523C188.098 220.186 188.715 221.061 189.079 222.148ZM199.532 218.727V220.716H191.617V218.727H199.532ZM193.924 215.068H196.271V229.625C196.271 230.288 196.367 230.785 196.559 231.116C196.758 231.441 197.01 231.66 197.315 231.773C197.626 231.879 197.954 231.932 198.299 231.932C198.558 231.932 198.77 231.919 198.935 231.892C199.101 231.859 199.234 231.832 199.333 231.812L199.81 233.92C199.651 233.98 199.429 234.04 199.144 234.099C198.859 234.166 198.498 234.199 198.06 234.199C197.397 234.199 196.748 234.056 196.112 233.771C195.482 233.486 194.958 233.052 194.54 232.469C194.129 231.885 193.924 231.15 193.924 230.261V215.068ZM203.062 234V218.727H205.408V234H203.062ZM204.255 216.182C203.798 216.182 203.403 216.026 203.072 215.714C202.747 215.403 202.585 215.028 202.585 214.591C202.585 214.153 202.747 213.779 203.072 213.467C203.403 213.156 203.798 213 204.255 213C204.712 213 205.103 213.156 205.428 213.467C205.76 213.779 205.925 214.153 205.925 214.591C205.925 215.028 205.76 215.403 205.428 215.714C205.103 216.026 204.712 216.182 204.255 216.182ZM209.706 234V218.727H211.973V221.114H212.172C212.49 220.298 213.004 219.665 213.713 219.214C214.423 218.757 215.275 218.528 216.269 218.528C217.276 218.528 218.115 218.757 218.784 219.214C219.461 219.665 219.988 220.298 220.365 221.114H220.525C220.916 220.325 221.502 219.698 222.284 219.234C223.067 218.764 224.005 218.528 225.098 218.528C226.464 218.528 227.581 218.956 228.449 219.811C229.318 220.66 229.752 221.982 229.752 223.778V234H227.405V223.778C227.405 222.652 227.097 221.846 226.48 221.362C225.864 220.878 225.138 220.636 224.303 220.636C223.229 220.636 222.397 220.961 221.807 221.611C221.217 222.254 220.922 223.069 220.922 224.057V234H218.536V223.54C218.536 222.671 218.254 221.972 217.691 221.442C217.127 220.905 216.401 220.636 215.513 220.636C214.903 220.636 214.333 220.799 213.803 221.124C213.279 221.448 212.855 221.899 212.53 222.476C212.212 223.046 212.053 223.705 212.053 224.455V234H209.706ZM243.667 227.756V218.727H246.014V234H243.667V231.415H243.508C243.15 232.19 242.593 232.85 241.838 233.393C241.082 233.93 240.127 234.199 238.974 234.199C238.02 234.199 237.171 233.99 236.429 233.572C235.686 233.148 235.103 232.512 234.679 231.663C234.254 230.808 234.042 229.731 234.042 228.432V218.727H236.389V228.273C236.389 229.386 236.7 230.275 237.324 230.938C237.953 231.6 238.755 231.932 239.73 231.932C240.313 231.932 240.906 231.783 241.51 231.484C242.119 231.186 242.63 230.729 243.041 230.112C243.458 229.496 243.667 228.71 243.667 227.756ZM252.658 213.636V234H250.312V213.636H252.658ZM256.956 234V218.727H259.303V234H256.956ZM258.15 216.182C257.692 216.182 257.298 216.026 256.966 215.714C256.641 215.403 256.479 215.028 256.479 214.591C256.479 214.153 256.641 213.779 256.966 213.467C257.298 213.156 257.692 213 258.15 213C258.607 213 258.998 213.156 259.323 213.467C259.654 213.779 259.82 214.153 259.82 214.591C259.82 215.028 259.654 215.403 259.323 215.714C258.998 216.026 258.607 216.182 258.15 216.182ZM267.101 231.216L266.942 232.29C266.829 233.045 266.657 233.854 266.425 234.716C266.199 235.578 265.964 236.39 265.719 237.152C265.473 237.914 265.271 238.521 265.112 238.972H263.322C263.409 238.547 263.521 237.987 263.661 237.291C263.8 236.595 263.939 235.816 264.078 234.955C264.224 234.099 264.343 233.224 264.436 232.33L264.555 231.216H267.101ZM285.727 234.318C284.255 234.318 282.986 233.993 281.919 233.344C280.858 232.688 280.039 231.773 279.463 230.599C278.893 229.42 278.608 228.047 278.608 226.483C278.608 224.919 278.893 223.54 279.463 222.347C280.039 221.147 280.842 220.212 281.869 219.543C282.903 218.866 284.109 218.528 285.488 218.528C286.284 218.528 287.069 218.661 287.845 218.926C288.62 219.191 289.326 219.622 289.963 220.219C290.599 220.809 291.106 221.591 291.484 222.565C291.862 223.54 292.051 224.74 292.051 226.165V227.159H280.278V225.131H289.664C289.664 224.269 289.492 223.5 289.147 222.824C288.809 222.148 288.325 221.614 287.696 221.223C287.073 220.832 286.337 220.636 285.488 220.636C284.554 220.636 283.745 220.868 283.062 221.332C282.386 221.79 281.866 222.386 281.501 223.122C281.136 223.858 280.954 224.647 280.954 225.489V226.841C280.954 227.994 281.153 228.972 281.551 229.774C281.955 230.57 282.515 231.176 283.231 231.594C283.947 232.005 284.779 232.21 285.727 232.21C286.343 232.21 286.9 232.124 287.397 231.952C287.901 231.773 288.335 231.508 288.7 231.156C289.065 230.798 289.346 230.354 289.545 229.824L291.812 230.46C291.574 231.229 291.172 231.905 290.609 232.489C290.046 233.065 289.35 233.516 288.521 233.841C287.692 234.159 286.761 234.318 285.727 234.318ZM297.331 234.159C296.84 234.159 296.419 233.983 296.068 233.632C295.717 233.281 295.541 232.86 295.541 232.369C295.541 231.879 295.717 231.458 296.068 231.107C296.419 230.755 296.84 230.58 297.331 230.58C297.821 230.58 298.242 230.755 298.593 231.107C298.945 231.458 299.12 231.879 299.12 232.369C299.12 232.694 299.038 232.992 298.872 233.264C298.713 233.536 298.497 233.755 298.225 233.92C297.96 234.08 297.662 234.159 297.331 234.159ZM309.496 240.045C308.363 240.045 307.388 239.9 306.573 239.608C305.757 239.323 305.078 238.945 304.534 238.474C303.998 238.01 303.57 237.513 303.252 236.983L305.121 235.67C305.333 235.949 305.602 236.267 305.926 236.625C306.251 236.99 306.695 237.304 307.259 237.57C307.829 237.841 308.575 237.977 309.496 237.977C310.729 237.977 311.747 237.679 312.549 237.082C313.351 236.486 313.752 235.551 313.752 234.278V231.176H313.553C313.381 231.455 313.135 231.799 312.817 232.21C312.506 232.615 312.055 232.976 311.465 233.294C310.882 233.606 310.093 233.761 309.098 233.761C307.865 233.761 306.758 233.47 305.777 232.886C304.803 232.303 304.031 231.455 303.461 230.341C302.897 229.227 302.615 227.875 302.615 226.284C302.615 224.72 302.891 223.357 303.441 222.197C303.991 221.031 304.757 220.129 305.738 219.493C306.719 218.85 307.852 218.528 309.138 218.528C310.132 218.528 310.921 218.694 311.505 219.026C312.095 219.35 312.545 219.722 312.857 220.139C313.175 220.55 313.42 220.888 313.593 221.153H313.831V218.727H316.098V234.438C316.098 235.75 315.8 236.817 315.203 237.639C314.614 238.468 313.818 239.074 312.817 239.459C311.823 239.85 310.716 240.045 309.496 240.045ZM309.417 231.653C310.358 231.653 311.153 231.438 311.803 231.007C312.453 230.576 312.946 229.956 313.284 229.148C313.623 228.339 313.792 227.371 313.792 226.244C313.792 225.144 313.626 224.173 313.294 223.331C312.963 222.489 312.472 221.83 311.823 221.352C311.173 220.875 310.371 220.636 309.417 220.636C308.422 220.636 307.594 220.888 306.931 221.392C306.275 221.896 305.781 222.572 305.449 223.42C305.124 224.269 304.962 225.21 304.962 226.244C304.962 227.305 305.128 228.243 305.459 229.058C305.797 229.867 306.294 230.503 306.951 230.967C307.614 231.425 308.435 231.653 309.417 231.653ZM322.104 234.159C321.614 234.159 321.193 233.983 320.841 233.632C320.49 233.281 320.314 232.86 320.314 232.369C320.314 231.879 320.49 231.458 320.841 231.107C321.193 230.755 321.614 230.58 322.104 230.58C322.595 230.58 323.016 230.755 323.367 231.107C323.718 231.458 323.894 231.879 323.894 232.369C323.894 232.694 323.811 232.992 323.645 233.264C323.486 233.536 323.271 233.755 322.999 233.92C322.734 234.08 322.435 234.159 322.104 234.159ZM331.605 231.216L331.446 232.29C331.333 233.045 331.161 233.854 330.929 234.716C330.703 235.578 330.468 236.39 330.223 237.152C329.977 237.914 329.775 238.521 329.616 238.972H327.826C327.913 238.547 328.025 237.987 328.164 237.291C328.304 236.595 328.443 235.816 328.582 234.955C328.728 234.099 328.847 233.224 328.94 232.33L329.059 231.216H331.605ZM47.1477 273.727V252.727H49.4148V255.153H49.6932C49.8655 254.888 50.1042 254.55 50.4091 254.139C50.7206 253.722 51.1648 253.35 51.7415 253.026C52.3248 252.694 53.1136 252.528 54.108 252.528C55.3939 252.528 56.5275 252.85 57.5085 253.493C58.4896 254.136 59.2552 255.047 59.8054 256.227C60.3556 257.407 60.6307 258.799 60.6307 260.403C60.6307 262.021 60.3556 263.423 59.8054 264.609C59.2552 265.789 58.4929 266.704 57.5185 267.354C56.544 267.997 55.4205 268.318 54.1477 268.318C53.1667 268.318 52.3812 268.156 51.7912 267.831C51.2012 267.5 50.7472 267.125 50.429 266.707C50.1108 266.283 49.8655 265.932 49.6932 265.653H49.4943V273.727H47.1477ZM49.4545 260.364C49.4545 261.517 49.6236 262.535 49.9616 263.416C50.2997 264.291 50.7936 264.977 51.4432 265.474C52.0928 265.965 52.8883 266.21 53.8295 266.21C54.8106 266.21 55.6293 265.952 56.2855 265.435C56.9484 264.911 57.4455 264.208 57.777 263.327C58.1151 262.438 58.2841 261.451 58.2841 260.364C58.2841 259.29 58.1184 258.322 57.7869 257.46C57.4621 256.592 56.9683 255.906 56.3054 255.402C55.6491 254.892 54.8239 254.636 53.8295 254.636C52.875 254.636 52.0729 254.878 51.4233 255.362C50.7737 255.839 50.2831 256.509 49.9517 257.371C49.6203 258.226 49.4545 259.223 49.4545 260.364ZM70.4148 268.318C69.036 268.318 67.8262 267.99 66.7855 267.334C65.7514 266.678 64.9427 265.759 64.3594 264.58C63.7827 263.4 63.4943 262.021 63.4943 260.443C63.4943 258.852 63.7827 257.464 64.3594 256.277C64.9427 255.09 65.7514 254.169 66.7855 253.513C67.8262 252.857 69.036 252.528 70.4148 252.528C71.7936 252.528 73 252.857 74.0341 253.513C75.0748 254.169 75.8835 255.09 76.4602 256.277C77.0436 257.464 77.3352 258.852 77.3352 260.443C77.3352 262.021 77.0436 263.4 76.4602 264.58C75.8835 265.759 75.0748 266.678 74.0341 267.334C73 267.99 71.7936 268.318 70.4148 268.318ZM70.4148 266.21C71.4621 266.21 72.3239 265.942 73 265.405C73.6761 264.868 74.1766 264.162 74.5014 263.287C74.8262 262.412 74.9886 261.464 74.9886 260.443C74.9886 259.422 74.8262 258.471 74.5014 257.589C74.1766 256.708 73.6761 255.995 73 255.452C72.3239 254.908 71.4621 254.636 70.4148 254.636C69.3674 254.636 68.5057 254.908 67.8295 255.452C67.1534 255.995 66.6529 256.708 66.3281 257.589C66.0033 258.471 65.8409 259.422 65.8409 260.443C65.8409 261.464 66.0033 262.412 66.3281 263.287C66.6529 264.162 67.1534 264.868 67.8295 265.405C68.5057 265.942 69.3674 266.21 70.4148 266.21ZM80.9173 273.727V252.727H83.1843V255.153H83.4627C83.6351 254.888 83.8737 254.55 84.1786 254.139C84.4902 253.722 84.9343 253.35 85.511 253.026C86.0943 252.694 86.8832 252.528 87.8775 252.528C89.1635 252.528 90.297 252.85 91.2781 253.493C92.2591 254.136 93.0247 255.047 93.5749 256.227C94.1251 257.407 94.4002 258.799 94.4002 260.403C94.4002 262.021 94.1251 263.423 93.5749 264.609C93.0247 265.789 92.2624 266.704 91.288 267.354C90.3136 267.997 89.19 268.318 87.9173 268.318C86.9362 268.318 86.1507 268.156 85.5607 267.831C84.9708 267.5 84.5167 267.125 84.1985 266.707C83.8803 266.283 83.6351 265.932 83.4627 265.653H83.2638V273.727H80.9173ZM83.2241 260.364C83.2241 261.517 83.3931 262.535 83.7312 263.416C84.0692 264.291 84.5631 264.977 85.2127 265.474C85.8623 265.965 86.6578 266.21 87.5991 266.21C88.5801 266.21 89.3988 265.952 90.055 265.435C90.7179 264.911 91.2151 264.208 91.5465 263.327C91.8846 262.438 92.0536 261.451 92.0536 260.364C92.0536 259.29 91.8879 258.322 91.5565 257.46C91.2317 256.592 90.7378 255.906 90.0749 255.402C89.4187 254.892 88.5934 254.636 87.5991 254.636C86.6445 254.636 85.8424 254.878 85.1928 255.362C84.5432 255.839 84.0527 256.509 83.7212 257.371C83.3898 258.226 83.2241 259.223 83.2241 260.364ZM106.73 258.176V260.364H97.8207V258.176H106.73ZM120.484 261.756V252.727H122.83V268H120.484V265.415H120.325C119.967 266.19 119.41 266.85 118.654 267.393C117.898 267.93 116.944 268.199 115.79 268.199C114.836 268.199 113.987 267.99 113.245 267.572C112.503 267.148 111.919 266.512 111.495 265.663C111.071 264.808 110.859 263.731 110.859 262.432V252.727H113.205V262.273C113.205 263.386 113.517 264.275 114.14 264.938C114.77 265.6 115.572 265.932 116.546 265.932C117.129 265.932 117.723 265.783 118.326 265.484C118.936 265.186 119.446 264.729 119.857 264.112C120.275 263.496 120.484 262.71 120.484 261.756ZM127.128 273.727V252.727H129.395V255.153H129.674C129.846 254.888 130.085 254.55 130.39 254.139C130.701 253.722 131.145 253.35 131.722 253.026C132.305 252.694 133.094 252.528 134.088 252.528C135.374 252.528 136.508 252.85 137.489 253.493C138.47 254.136 139.236 255.047 139.786 256.227C140.336 257.407 140.611 258.799 140.611 260.403C140.611 262.021 140.336 263.423 139.786 264.609C139.236 265.789 138.473 266.704 137.499 267.354C136.525 267.997 135.401 268.318 134.128 268.318C133.147 268.318 132.362 268.156 131.772 267.831C131.182 267.5 130.728 267.125 130.409 266.707C130.091 266.283 129.846 265.932 129.674 265.653H129.475V273.727H127.128ZM129.435 260.364C129.435 261.517 129.604 262.535 129.942 263.416C130.28 264.291 130.774 264.977 131.424 265.474C132.073 265.965 132.869 266.21 133.81 266.21C134.791 266.21 135.61 265.952 136.266 265.435C136.929 264.911 137.426 264.208 137.757 263.327C138.096 262.438 138.265 261.451 138.265 260.364C138.265 259.29 138.099 258.322 137.767 257.46C137.443 256.592 136.949 255.906 136.286 255.402C135.63 254.892 134.804 254.636 133.81 254.636C132.855 254.636 132.053 254.878 131.404 255.362C130.754 255.839 130.264 256.509 129.932 257.371C129.601 258.226 129.435 259.223 129.435 260.364ZM155.009 256.148L152.901 256.744C152.768 256.393 152.573 256.052 152.314 255.72C152.062 255.382 151.718 255.104 151.28 254.885C150.843 254.666 150.283 254.557 149.6 254.557C148.665 254.557 147.886 254.772 147.263 255.203C146.647 255.627 146.338 256.168 146.338 256.824C146.338 257.407 146.551 257.868 146.975 258.206C147.399 258.544 148.062 258.826 148.963 259.051L151.23 259.608C152.596 259.939 153.614 260.446 154.283 261.129C154.953 261.805 155.287 262.677 155.287 263.744C155.287 264.619 155.035 265.402 154.532 266.091C154.034 266.78 153.338 267.324 152.444 267.722C151.549 268.119 150.508 268.318 149.321 268.318C147.764 268.318 146.474 267.98 145.453 267.304C144.433 266.628 143.786 265.64 143.515 264.341L145.742 263.784C145.954 264.606 146.355 265.223 146.945 265.634C147.542 266.045 148.32 266.25 149.282 266.25C150.375 266.25 151.244 266.018 151.887 265.554C152.536 265.083 152.861 264.52 152.861 263.864C152.861 263.333 152.676 262.889 152.304 262.531C151.933 262.167 151.363 261.895 150.594 261.716L148.049 261.119C146.65 260.788 145.623 260.274 144.966 259.578C144.317 258.875 143.992 257.997 143.992 256.943C143.992 256.081 144.234 255.319 144.718 254.656C145.208 253.993 145.874 253.473 146.716 253.095C147.565 252.717 148.526 252.528 149.6 252.528C151.111 252.528 152.298 252.86 153.159 253.523C154.028 254.186 154.644 255.061 155.009 256.148ZM162.32 265.216L162.161 266.29C162.048 267.045 161.875 267.854 161.643 268.716C161.418 269.578 161.183 270.39 160.938 271.152C160.692 271.914 160.49 272.521 160.331 272.972H158.541C158.627 272.547 158.74 271.987 158.879 271.291C159.018 270.595 159.158 269.816 159.297 268.955C159.443 268.099 159.562 267.224 159.655 266.33L159.774 265.216H162.32ZM179.037 268.358C178.069 268.358 177.19 268.176 176.402 267.811C175.613 267.44 174.986 266.906 174.522 266.21C174.058 265.508 173.826 264.659 173.826 263.665C173.826 262.79 173.999 262.08 174.343 261.537C174.688 260.987 175.149 260.556 175.725 260.244C176.302 259.933 176.939 259.701 177.635 259.548C178.337 259.389 179.043 259.263 179.752 259.17C180.681 259.051 181.433 258.962 182.01 258.902C182.593 258.836 183.017 258.726 183.282 258.574C183.554 258.421 183.69 258.156 183.69 257.778V257.699C183.69 256.718 183.422 255.955 182.885 255.412C182.354 254.868 181.549 254.597 180.468 254.597C179.348 254.597 178.47 254.842 177.833 255.332C177.197 255.823 176.75 256.347 176.491 256.903L174.264 256.108C174.662 255.18 175.192 254.457 175.855 253.94C176.524 253.417 177.253 253.052 178.042 252.847C178.838 252.634 179.62 252.528 180.389 252.528C180.879 252.528 181.443 252.588 182.079 252.707C182.722 252.82 183.342 253.055 183.939 253.413C184.542 253.771 185.042 254.312 185.44 255.034C185.838 255.757 186.037 256.724 186.037 257.938V268H183.69V265.932H183.571C183.412 266.263 183.146 266.618 182.775 266.996C182.404 267.374 181.91 267.695 181.294 267.96C180.677 268.225 179.925 268.358 179.037 268.358ZM179.395 266.25C180.323 266.25 181.105 266.068 181.741 265.703C182.384 265.339 182.868 264.868 183.193 264.291C183.524 263.714 183.69 263.108 183.69 262.472V260.324C183.591 260.443 183.372 260.553 183.034 260.652C182.702 260.745 182.318 260.828 181.88 260.901C181.449 260.967 181.029 261.027 180.618 261.08C180.213 261.126 179.885 261.166 179.633 261.199C179.023 261.278 178.453 261.408 177.923 261.587C177.399 261.759 176.975 262.021 176.65 262.372C176.332 262.717 176.173 263.187 176.173 263.784C176.173 264.599 176.475 265.216 177.078 265.634C177.688 266.045 178.46 266.25 179.395 266.25ZM192.666 258.812V268H190.32V252.727H192.587V255.114H192.786C193.143 254.338 193.687 253.715 194.416 253.244C195.145 252.767 196.087 252.528 197.24 252.528C198.274 252.528 199.179 252.741 199.955 253.165C200.73 253.582 201.333 254.219 201.764 255.074C202.195 255.922 202.411 256.996 202.411 258.295V268H200.064V258.455C200.064 257.255 199.752 256.32 199.129 255.651C198.506 254.974 197.651 254.636 196.564 254.636C195.815 254.636 195.145 254.799 194.555 255.124C193.972 255.448 193.511 255.922 193.173 256.545C192.835 257.169 192.666 257.924 192.666 258.812ZM206.699 268V252.727H209.045V268H206.699ZM207.892 250.182C207.434 250.182 207.04 250.026 206.708 249.714C206.384 249.403 206.221 249.028 206.221 248.591C206.221 248.153 206.384 247.779 206.708 247.467C207.04 247.156 207.434 247 207.892 247C208.349 247 208.74 247.156 209.065 247.467C209.396 247.779 209.562 248.153 209.562 248.591C209.562 249.028 209.396 249.403 209.065 249.714C208.74 250.026 208.349 250.182 207.892 250.182ZM213.343 268V252.727H215.61V255.114H215.809C216.127 254.298 216.641 253.665 217.35 253.214C218.059 252.757 218.911 252.528 219.906 252.528C220.913 252.528 221.752 252.757 222.421 253.214C223.097 253.665 223.624 254.298 224.002 255.114H224.161C224.552 254.325 225.139 253.698 225.921 253.234C226.703 252.764 227.641 252.528 228.735 252.528C230.101 252.528 231.218 252.956 232.086 253.811C232.954 254.66 233.388 255.982 233.388 257.778V268H231.042V257.778C231.042 256.652 230.734 255.846 230.117 255.362C229.501 254.878 228.775 254.636 227.94 254.636C226.866 254.636 226.034 254.961 225.444 255.611C224.854 256.254 224.559 257.069 224.559 258.057V268H222.173V257.54C222.173 256.671 221.891 255.972 221.327 255.442C220.764 254.905 220.038 254.636 219.15 254.636C218.54 254.636 217.97 254.799 217.44 255.124C216.916 255.448 216.492 255.899 216.167 256.476C215.849 257.046 215.69 257.705 215.69 258.455V268H213.343ZM242.173 268.358C241.205 268.358 240.327 268.176 239.538 267.811C238.75 267.44 238.123 266.906 237.659 266.21C237.195 265.508 236.963 264.659 236.963 263.665C236.963 262.79 237.135 262.08 237.48 261.537C237.825 260.987 238.286 260.556 238.862 260.244C239.439 259.933 240.075 259.701 240.771 259.548C241.474 259.389 242.18 259.263 242.889 259.17C243.817 259.051 244.57 258.962 245.146 258.902C245.73 258.836 246.154 258.726 246.419 258.574C246.691 258.421 246.827 258.156 246.827 257.778V257.699C246.827 256.718 246.558 255.955 246.021 255.412C245.491 254.868 244.686 254.597 243.605 254.597C242.485 254.597 241.607 254.842 240.97 255.332C240.334 255.823 239.886 256.347 239.628 256.903L237.401 256.108C237.798 255.18 238.329 254.457 238.991 253.94C239.661 253.417 240.39 253.052 241.179 252.847C241.974 252.634 242.757 252.528 243.526 252.528C244.016 252.528 244.58 252.588 245.216 252.707C245.859 252.82 246.479 253.055 247.075 253.413C247.679 253.771 248.179 254.312 248.577 255.034C248.974 255.757 249.173 256.724 249.173 257.938V268H246.827V265.932H246.707C246.548 266.263 246.283 266.618 245.912 266.996C245.541 267.374 245.047 267.695 244.43 267.96C243.814 268.225 243.062 268.358 242.173 268.358ZM242.531 266.25C243.459 266.25 244.241 266.068 244.878 265.703C245.521 265.339 246.005 264.868 246.33 264.291C246.661 263.714 246.827 263.108 246.827 262.472V260.324C246.727 260.443 246.509 260.553 246.17 260.652C245.839 260.745 245.455 260.828 245.017 260.901C244.586 260.967 244.165 261.027 243.754 261.08C243.35 261.126 243.022 261.166 242.77 261.199C242.16 261.278 241.59 261.408 241.06 261.587C240.536 261.759 240.112 262.021 239.787 262.372C239.469 262.717 239.31 263.187 239.31 263.784C239.31 264.599 239.611 265.216 240.214 265.634C240.824 266.045 241.597 266.25 242.531 266.25ZM260.098 252.727V254.716H252.184V252.727H260.098ZM254.49 249.068H256.837V263.625C256.837 264.288 256.933 264.785 257.125 265.116C257.324 265.441 257.576 265.66 257.881 265.773C258.193 265.879 258.521 265.932 258.865 265.932C259.124 265.932 259.336 265.919 259.502 265.892C259.667 265.859 259.8 265.832 259.9 265.812L260.377 267.92C260.218 267.98 259.996 268.04 259.711 268.099C259.426 268.166 259.064 268.199 258.627 268.199C257.964 268.199 257.314 268.056 256.678 267.771C256.048 267.486 255.525 267.052 255.107 266.469C254.696 265.885 254.49 265.15 254.49 264.261V249.068ZM263.628 268V252.727H265.975V268H263.628ZM264.821 250.182C264.364 250.182 263.97 250.026 263.638 249.714C263.313 249.403 263.151 249.028 263.151 248.591C263.151 248.153 263.313 247.779 263.638 247.467C263.97 247.156 264.364 247 264.821 247C265.279 247 265.67 247.156 265.995 247.467C266.326 247.779 266.492 248.153 266.492 248.591C266.492 249.028 266.326 249.403 265.995 249.714C265.67 250.026 265.279 250.182 264.821 250.182ZM276.477 268.318C275.098 268.318 273.889 267.99 272.848 267.334C271.814 266.678 271.005 265.759 270.422 264.58C269.845 263.4 269.557 262.021 269.557 260.443C269.557 258.852 269.845 257.464 270.422 256.277C271.005 255.09 271.814 254.169 272.848 253.513C273.889 252.857 275.098 252.528 276.477 252.528C277.856 252.528 279.063 252.857 280.097 253.513C281.137 254.169 281.946 255.09 282.523 256.277C283.106 257.464 283.398 258.852 283.398 260.443C283.398 262.021 283.106 263.4 282.523 264.58C281.946 265.759 281.137 266.678 280.097 267.334C279.063 267.99 277.856 268.318 276.477 268.318ZM276.477 266.21C277.525 266.21 278.386 265.942 279.062 265.405C279.739 264.868 280.239 264.162 280.564 263.287C280.889 262.412 281.051 261.464 281.051 260.443C281.051 259.422 280.889 258.471 280.564 257.589C280.239 256.708 279.739 255.995 279.062 255.452C278.386 254.908 277.525 254.636 276.477 254.636C275.43 254.636 274.568 254.908 273.892 255.452C273.216 255.995 272.715 256.708 272.391 257.589C272.066 258.471 271.903 259.422 271.903 260.443C271.903 261.464 272.066 262.412 272.391 263.287C272.715 264.162 273.216 264.868 273.892 265.405C274.568 265.942 275.43 266.21 276.477 266.21ZM289.326 258.812V268H286.98V252.727H289.247V255.114H289.446C289.804 254.338 290.347 253.715 291.076 253.244C291.806 252.767 292.747 252.528 293.9 252.528C294.934 252.528 295.839 252.741 296.615 253.165C297.39 253.582 297.993 254.219 298.424 255.074C298.855 255.922 299.071 256.996 299.071 258.295V268H296.724V258.455C296.724 257.255 296.413 256.32 295.789 255.651C295.166 254.974 294.311 254.636 293.224 254.636C292.475 254.636 291.806 254.799 291.216 255.124C290.632 255.448 290.172 255.922 289.833 256.545C289.495 257.169 289.326 257.924 289.326 258.812Z" fill="#586858"/>
</svg>
