<svg width="1024" height="383" viewBox="0 0 1024 383" fill="none" xmlns="http://www.w3.org/2000/svg">
<rect width="1024" height="383" rx="15" fill="#83DB62"/>
<path d="M98.5682 79H92.9176V61.5455H98.7472C100.457 61.5455 101.926 61.8949 103.153 62.5938C104.381 63.2869 105.321 64.2841 105.974 65.5852C106.634 66.8807 106.963 68.4347 106.963 70.2472C106.963 72.0653 106.631 73.6278 105.966 74.9347C105.307 76.2415 104.352 77.2472 103.102 77.9517C101.852 78.6506 100.341 79 98.5682 79ZM95.5511 76.6989H98.4233C99.7528 76.6989 100.858 76.4489 101.739 75.9489C102.619 75.4432 103.278 74.7131 103.716 73.7585C104.153 72.7983 104.372 71.6278 104.372 70.2472C104.372 68.8778 104.153 67.7159 103.716 66.7614C103.284 65.8068 102.639 65.0824 101.781 64.5881C100.923 64.0937 99.858 63.8466 98.5852 63.8466H95.5511V76.6989ZM115.675 79.2642C114.386 79.2642 113.275 78.9886 112.343 78.4375C111.417 77.8807 110.701 77.0994 110.195 76.0938C109.695 75.0824 109.445 73.8977 109.445 72.5398C109.445 71.1989 109.695 70.017 110.195 68.9943C110.701 67.9716 111.406 67.1733 112.309 66.5994C113.218 66.0256 114.281 65.7386 115.496 65.7386C116.235 65.7386 116.951 65.8608 117.644 66.1051C118.337 66.3494 118.96 66.733 119.511 67.2557C120.062 67.7784 120.496 68.4574 120.815 69.2926C121.133 70.1222 121.292 71.1307 121.292 72.3182V73.2216H110.886V71.3125H118.795C118.795 70.642 118.658 70.0483 118.386 69.5312C118.113 69.0085 117.729 68.5966 117.235 68.2955C116.746 67.9943 116.173 67.8438 115.513 67.8438C114.798 67.8438 114.173 68.0199 113.638 68.3722C113.11 68.7187 112.701 69.1733 112.411 69.7358C112.127 70.2926 111.985 70.8977 111.985 71.5511V73.0426C111.985 73.9176 112.138 74.6619 112.445 75.2756C112.758 75.8892 113.192 76.358 113.749 76.6818C114.306 77 114.957 77.1591 115.701 77.1591C116.184 77.1591 116.624 77.0909 117.022 76.9545C117.42 76.8125 117.763 76.6023 118.053 76.3239C118.343 76.0455 118.565 75.7017 118.718 75.2926L121.13 75.7273C120.937 76.4375 120.59 77.0597 120.09 77.5938C119.596 78.1222 118.974 78.5341 118.224 78.8295C117.479 79.1193 116.63 79.2642 115.675 79.2642ZM133.929 69.1051L131.619 69.5142C131.523 69.2187 131.369 68.9375 131.159 68.6705C130.955 68.4034 130.676 68.1847 130.324 68.0142C129.972 67.8437 129.531 67.7585 129.003 67.7585C128.281 67.7585 127.679 67.9205 127.196 68.2443C126.713 68.5625 126.472 68.9744 126.472 69.4801C126.472 69.9176 126.634 70.2699 126.957 70.5369C127.281 70.804 127.804 71.0227 128.526 71.1932L130.605 71.6705C131.81 71.9489 132.707 72.3778 133.298 72.9574C133.889 73.5369 134.185 74.2898 134.185 75.2159C134.185 76 133.957 76.6989 133.503 77.3125C133.054 77.9205 132.426 78.3977 131.619 78.7443C130.818 79.0909 129.889 79.2642 128.832 79.2642C127.366 79.2642 126.17 78.9517 125.244 78.3267C124.318 77.696 123.75 76.8011 123.54 75.642L126.003 75.267C126.156 75.9091 126.472 76.3949 126.949 76.7244C127.426 77.0483 128.048 77.2102 128.815 77.2102C129.651 77.2102 130.318 77.0369 130.818 76.6903C131.318 76.3381 131.568 75.9091 131.568 75.4034C131.568 74.9943 131.415 74.6506 131.108 74.3722C130.807 74.0937 130.344 73.8835 129.719 73.7415L127.503 73.2557C126.281 72.9773 125.378 72.5341 124.793 71.9261C124.213 71.3182 123.923 70.5483 123.923 69.6165C123.923 68.8437 124.139 68.1676 124.571 67.5881C125.003 67.0085 125.599 66.5568 126.361 66.233C127.122 65.9034 127.994 65.7386 128.977 65.7386C130.392 65.7386 131.506 66.0455 132.318 66.6591C133.131 67.267 133.668 68.0824 133.929 69.1051ZM136.987 79V65.9091H139.535V79H136.987ZM138.273 63.8892C137.83 63.8892 137.45 63.7415 137.131 63.446C136.819 63.1449 136.663 62.7869 136.663 62.3722C136.663 61.9517 136.819 61.5937 137.131 61.2983C137.45 60.9972 137.83 60.8466 138.273 60.8466C138.717 60.8466 139.094 60.9972 139.407 61.2983C139.725 61.5937 139.884 61.9517 139.884 62.3722C139.884 62.7869 139.725 63.1449 139.407 63.446C139.094 63.7415 138.717 63.8892 138.273 63.8892ZM148.452 84.1818C147.412 84.1818 146.517 84.0455 145.767 83.7727C145.023 83.5 144.415 83.1392 143.943 82.6903C143.472 82.2415 143.119 81.75 142.886 81.2159L145.077 80.3125C145.23 80.5625 145.435 80.8267 145.69 81.1051C145.952 81.3892 146.304 81.6307 146.747 81.8295C147.196 82.0284 147.773 82.1278 148.477 82.1278C149.443 82.1278 150.241 81.892 150.872 81.4205C151.503 80.9545 151.818 80.2102 151.818 79.1875V76.6136H151.656C151.503 76.892 151.281 77.2017 150.991 77.5426C150.707 77.8835 150.315 78.179 149.815 78.429C149.315 78.679 148.665 78.804 147.864 78.804C146.83 78.804 145.898 78.5625 145.068 78.0795C144.244 77.5909 143.591 76.8722 143.108 75.9233C142.631 74.9687 142.392 73.7955 142.392 72.4034C142.392 71.0114 142.628 69.8182 143.099 68.8239C143.577 67.8295 144.23 67.0682 145.06 66.5398C145.889 66.0057 146.83 65.7386 147.881 65.7386C148.693 65.7386 149.349 65.875 149.849 66.1477C150.349 66.4148 150.739 66.7273 151.017 67.0852C151.301 67.4432 151.52 67.7585 151.673 68.0312H151.861V65.9091H154.358V79.2898C154.358 80.4148 154.097 81.3381 153.574 82.0597C153.051 82.7813 152.344 83.3153 151.452 83.6619C150.565 84.0085 149.565 84.1818 148.452 84.1818ZM148.426 76.6903C149.159 76.6903 149.778 76.5199 150.284 76.179C150.795 75.8324 151.182 75.3381 151.443 74.696C151.71 74.0483 151.844 73.2727 151.844 72.3693C151.844 71.4886 151.713 70.7131 151.452 70.0426C151.19 69.3722 150.807 68.8494 150.301 68.4744C149.795 68.0937 149.17 67.9034 148.426 67.9034C147.659 67.9034 147.02 68.1023 146.509 68.5C145.997 68.892 145.611 69.4261 145.349 70.1023C145.094 70.7784 144.966 71.5341 144.966 72.3693C144.966 73.2273 145.097 73.9801 145.358 74.6278C145.619 75.2756 146.006 75.7812 146.517 76.1449C147.034 76.5085 147.67 76.6903 148.426 76.6903ZM160.324 71.2273V79H157.776V65.9091H160.222V68.0398H160.384C160.685 67.3466 161.156 66.7898 161.798 66.3693C162.446 65.9489 163.261 65.7386 164.244 65.7386C165.136 65.7386 165.918 65.9261 166.588 66.3011C167.259 66.6705 167.778 67.2216 168.148 67.9545C168.517 68.6875 168.702 69.5937 168.702 70.6733V79H166.153V70.9801C166.153 70.0312 165.906 69.2898 165.412 68.7557C164.918 68.2159 164.239 67.946 163.375 67.946C162.784 67.946 162.259 68.0739 161.798 68.3295C161.344 68.5852 160.983 68.9602 160.716 69.4545C160.455 69.9432 160.324 70.5341 160.324 71.2273ZM178.675 79V61.5455H184.897C186.255 61.5455 187.38 61.7926 188.272 62.2869C189.164 62.7812 189.832 63.4574 190.275 64.3153C190.718 65.1676 190.94 66.1278 190.94 67.196C190.94 68.2699 190.715 69.2358 190.266 70.0938C189.823 70.946 189.153 71.6222 188.255 72.1222C187.363 72.6165 186.241 72.8636 184.888 72.8636H180.61V70.6307H184.65C185.508 70.6307 186.204 70.483 186.738 70.1875C187.272 69.8864 187.664 69.4773 187.914 68.9602C188.164 68.4432 188.289 67.8551 188.289 67.196C188.289 66.5369 188.164 65.9517 187.914 65.4403C187.664 64.929 187.269 64.5284 186.729 64.2386C186.195 63.9489 185.491 63.804 184.616 63.804H181.309V79H178.675ZM193.822 79V65.9091H196.286V67.9886H196.422C196.661 67.2841 197.081 66.7301 197.683 66.3267C198.291 65.9176 198.979 65.7131 199.746 65.7131C199.905 65.7131 200.092 65.7187 200.308 65.7301C200.53 65.7415 200.703 65.7557 200.828 65.7727V68.2102C200.726 68.1818 200.544 68.1506 200.283 68.1165C200.021 68.0767 199.76 68.0568 199.499 68.0568C198.896 68.0568 198.359 68.1847 197.888 68.4403C197.422 68.6903 197.053 69.0398 196.78 69.4886C196.507 69.9318 196.371 70.4375 196.371 71.0057V79H193.822ZM208.079 79.2642C206.852 79.2642 205.781 78.983 204.866 78.4205C203.951 77.858 203.241 77.071 202.735 76.0597C202.229 75.0483 201.977 73.8665 201.977 72.5142C201.977 71.1562 202.229 69.9687 202.735 68.9517C203.241 67.9347 203.951 67.1449 204.866 66.5824C205.781 66.0199 206.852 65.7386 208.079 65.7386C209.306 65.7386 210.377 66.0199 211.292 66.5824C212.207 67.1449 212.917 67.9347 213.423 68.9517C213.928 69.9687 214.181 71.1562 214.181 72.5142C214.181 73.8665 213.928 75.0483 213.423 76.0597C212.917 77.071 212.207 77.858 211.292 78.4205C210.377 78.983 209.306 79.2642 208.079 79.2642ZM208.087 77.125C208.883 77.125 209.542 76.9148 210.065 76.4943C210.587 76.0739 210.974 75.5142 211.224 74.8153C211.479 74.1165 211.607 73.3466 211.607 72.5057C211.607 71.6705 211.479 70.9034 211.224 70.2045C210.974 69.5 210.587 68.9347 210.065 68.5085C209.542 68.0824 208.883 67.8693 208.087 67.8693C207.286 67.8693 206.621 68.0824 206.093 68.5085C205.57 68.9347 205.181 69.5 204.925 70.2045C204.675 70.9034 204.55 71.6705 204.55 72.5057C204.55 73.3466 204.675 74.1165 204.925 74.8153C205.181 75.5142 205.57 76.0739 206.093 76.4943C206.621 76.9148 207.286 77.125 208.087 77.125ZM222.54 79.2642C221.273 79.2642 220.182 78.9773 219.267 78.4034C218.358 77.8239 217.659 77.0256 217.17 76.0085C216.682 74.9915 216.438 73.8267 216.438 72.5142C216.438 71.1847 216.688 70.0114 217.188 68.9943C217.688 67.9716 218.392 67.1733 219.301 66.5994C220.21 66.0256 221.281 65.7386 222.514 65.7386C223.509 65.7386 224.395 65.9233 225.173 66.2926C225.952 66.6562 226.58 67.1676 227.057 67.8267C227.54 68.4858 227.827 69.2557 227.918 70.1364H225.438C225.301 69.5227 224.989 68.9943 224.5 68.5511C224.017 68.108 223.369 67.8864 222.557 67.8864C221.847 67.8864 221.224 68.0739 220.69 68.4489C220.162 68.8182 219.75 69.3466 219.455 70.0341C219.159 70.7159 219.011 71.5227 219.011 72.4545C219.011 73.4091 219.156 74.233 219.446 74.9261C219.736 75.6193 220.145 76.1562 220.673 76.5369C221.207 76.9176 221.835 77.108 222.557 77.108C223.04 77.108 223.477 77.0199 223.869 76.8438C224.267 76.6619 224.599 76.4034 224.866 76.0682C225.139 75.733 225.33 75.3295 225.438 74.858H227.918C227.827 75.7045 227.551 76.4602 227.091 77.125C226.631 77.7898 226.014 78.3125 225.241 78.6932C224.474 79.0739 223.574 79.2642 222.54 79.2642ZM236.285 79.2642C234.995 79.2642 233.884 78.9886 232.952 78.4375C232.026 77.8807 231.31 77.0994 230.805 76.0938C230.305 75.0824 230.055 73.8977 230.055 72.5398C230.055 71.1989 230.305 70.017 230.805 68.9943C231.31 67.9716 232.015 67.1733 232.918 66.5994C233.827 66.0256 234.89 65.7386 236.106 65.7386C236.844 65.7386 237.56 65.8608 238.254 66.1051C238.947 66.3494 239.569 66.733 240.12 67.2557C240.671 67.7784 241.106 68.4574 241.424 69.2926C241.742 70.1222 241.901 71.1307 241.901 72.3182V73.2216H231.495V71.3125H239.404C239.404 70.642 239.268 70.0483 238.995 69.5312C238.722 69.0085 238.339 68.5966 237.844 68.2955C237.356 67.9943 236.782 67.8438 236.123 67.8438C235.407 67.8438 234.782 68.0199 234.248 68.3722C233.719 68.7187 233.31 69.1733 233.021 69.7358C232.737 70.2926 232.594 70.8977 232.594 71.5511V73.0426C232.594 73.9176 232.748 74.6619 233.055 75.2756C233.367 75.8892 233.802 76.358 234.359 76.6818C234.915 77 235.566 77.1591 236.31 77.1591C236.793 77.1591 237.234 77.0909 237.631 76.9545C238.029 76.8125 238.373 76.6023 238.663 76.3239C238.952 76.0455 239.174 75.7017 239.327 75.2926L241.739 75.7273C241.546 76.4375 241.2 77.0597 240.7 77.5938C240.205 78.1222 239.583 78.5341 238.833 78.8295C238.089 79.1193 237.239 79.2642 236.285 79.2642ZM254.538 69.1051L252.229 69.5142C252.132 69.2187 251.979 68.9375 251.768 68.6705C251.564 68.4034 251.286 68.1847 250.933 68.0142C250.581 67.8437 250.141 67.7585 249.612 67.7585C248.891 67.7585 248.288 67.9205 247.805 68.2443C247.322 68.5625 247.081 68.9744 247.081 69.4801C247.081 69.9176 247.243 70.2699 247.567 70.5369C247.891 70.804 248.413 71.0227 249.135 71.1932L251.214 71.6705C252.419 71.9489 253.317 72.3778 253.908 72.9574C254.499 73.5369 254.794 74.2898 254.794 75.2159C254.794 76 254.567 76.6989 254.112 77.3125C253.663 77.9205 253.036 78.3977 252.229 78.7443C251.428 79.0909 250.499 79.2642 249.442 79.2642C247.976 79.2642 246.78 78.9517 245.854 78.3267C244.928 77.696 244.359 76.8011 244.149 75.642L246.612 75.267C246.766 75.9091 247.081 76.3949 247.558 76.7244C248.036 77.0483 248.658 77.2102 249.425 77.2102C250.26 77.2102 250.928 77.0369 251.428 76.6903C251.928 76.3381 252.178 75.9091 252.178 75.4034C252.178 74.9943 252.024 74.6506 251.717 74.3722C251.416 74.0937 250.953 73.8835 250.328 73.7415L248.112 73.2557C246.891 72.9773 245.987 72.5341 245.402 71.9261C244.822 71.3182 244.533 70.5483 244.533 69.6165C244.533 68.8437 244.749 68.1676 245.18 67.5881C245.612 67.0085 246.209 66.5568 246.97 66.233C247.732 65.9034 248.604 65.7386 249.587 65.7386C251.001 65.7386 252.115 66.0455 252.928 66.6591C253.74 67.267 254.277 68.0824 254.538 69.1051ZM267.406 69.1051L265.096 69.5142C264.999 69.2187 264.846 68.9375 264.636 68.6705C264.431 68.4034 264.153 68.1847 263.8 68.0142C263.448 67.8437 263.008 67.7585 262.479 67.7585C261.758 67.7585 261.156 67.9205 260.673 68.2443C260.19 68.5625 259.948 68.9744 259.948 69.4801C259.948 69.9176 260.11 70.2699 260.434 70.5369C260.758 70.804 261.281 71.0227 262.002 71.1932L264.082 71.6705C265.286 71.9489 266.184 72.3778 266.775 72.9574C267.366 73.5369 267.661 74.2898 267.661 75.2159C267.661 76 267.434 76.6989 266.979 77.3125C266.531 77.9205 265.903 78.3977 265.096 78.7443C264.295 79.0909 263.366 79.2642 262.309 79.2642C260.843 79.2642 259.647 78.9517 258.721 78.3267C257.795 77.696 257.227 76.8011 257.016 75.642L259.479 75.267C259.633 75.9091 259.948 76.3949 260.425 76.7244C260.903 77.0483 261.525 77.2102 262.292 77.2102C263.127 77.2102 263.795 77.0369 264.295 76.6903C264.795 76.3381 265.045 75.9091 265.045 75.4034C265.045 74.9943 264.891 74.6506 264.585 74.3722C264.283 74.0937 263.82 73.8835 263.195 73.7415L260.979 73.2557C259.758 72.9773 258.854 72.5341 258.269 71.9261C257.69 71.3182 257.4 70.5483 257.4 69.6165C257.4 68.8437 257.616 68.1676 258.048 67.5881C258.479 67.0085 259.076 66.5568 259.837 66.233C260.599 65.9034 261.471 65.7386 262.454 65.7386C263.869 65.7386 264.982 66.0455 265.795 66.6591C266.607 67.267 267.144 68.0824 267.406 69.1051Z" fill="white"/>
<path d="M93.5824 218V191.818H103.401C105.412 191.818 107.099 192.193 108.463 192.943C109.835 193.693 110.871 194.724 111.57 196.037C112.277 197.341 112.631 198.824 112.631 200.486C112.631 202.165 112.277 203.656 111.57 204.96C110.862 206.264 109.818 207.291 108.438 208.041C107.057 208.783 105.357 209.153 103.337 209.153H96.8295V205.254H102.697C103.874 205.254 104.837 205.05 105.587 204.641C106.337 204.232 106.891 203.669 107.249 202.953C107.615 202.237 107.798 201.415 107.798 200.486C107.798 199.557 107.615 198.739 107.249 198.031C106.891 197.324 106.332 196.774 105.574 196.382C104.824 195.982 103.857 195.781 102.672 195.781H98.3253V218H93.5824ZM116.546 218V198.364H121.033V201.636H121.238C121.596 200.503 122.209 199.629 123.078 199.016C123.956 198.393 124.958 198.082 126.083 198.082C126.338 198.082 126.624 198.095 126.939 198.121C127.263 198.138 127.532 198.168 127.745 198.21V202.467C127.549 202.399 127.238 202.339 126.811 202.288C126.394 202.229 125.989 202.199 125.597 202.199C124.753 202.199 123.995 202.382 123.321 202.749C122.657 203.107 122.132 203.605 121.749 204.244C121.365 204.884 121.174 205.621 121.174 206.456V218H116.546ZM138.576 218.384C136.658 218.384 134.996 217.962 133.59 217.118C132.184 216.274 131.093 215.094 130.317 213.577C129.55 212.06 129.167 210.287 129.167 208.259C129.167 206.23 129.55 204.453 130.317 202.928C131.093 201.402 132.184 200.217 133.59 199.374C134.996 198.53 136.658 198.108 138.576 198.108C140.494 198.108 142.156 198.53 143.562 199.374C144.968 200.217 146.055 201.402 146.822 202.928C147.597 204.453 147.985 206.23 147.985 208.259C147.985 210.287 147.597 212.06 146.822 213.577C146.055 215.094 144.968 216.274 143.562 217.118C142.156 217.962 140.494 218.384 138.576 218.384ZM138.602 214.676C139.641 214.676 140.511 214.391 141.21 213.82C141.908 213.24 142.428 212.464 142.769 211.493C143.119 210.521 143.293 209.439 143.293 208.246C143.293 207.044 143.119 205.957 142.769 204.986C142.428 204.006 141.908 203.226 141.21 202.646C140.511 202.067 139.641 201.777 138.602 201.777C137.536 201.777 136.65 202.067 135.942 202.646C135.244 203.226 134.719 204.006 134.37 204.986C134.029 205.957 133.859 207.044 133.859 208.246C133.859 209.439 134.029 210.521 134.37 211.493C134.719 212.464 135.244 213.24 135.942 213.82C136.65 214.391 137.536 214.676 138.602 214.676ZM152.118 218V191.818H156.745V201.611H156.937C157.176 201.134 157.512 200.626 157.947 200.089C158.382 199.544 158.97 199.08 159.711 198.696C160.453 198.304 161.399 198.108 162.549 198.108C164.066 198.108 165.434 198.496 166.653 199.271C167.88 200.038 168.852 201.176 169.568 202.685C170.292 204.185 170.654 206.026 170.654 208.207C170.654 210.364 170.301 212.196 169.593 213.705C168.886 215.213 167.923 216.364 166.704 217.156C165.485 217.949 164.105 218.345 162.562 218.345C161.437 218.345 160.504 218.158 159.762 217.783C159.021 217.408 158.424 216.956 157.973 216.428C157.529 215.891 157.184 215.384 156.937 214.906H156.669V218H152.118ZM156.656 208.182C156.656 209.452 156.835 210.564 157.193 211.518C157.559 212.473 158.083 213.219 158.765 213.756C159.456 214.284 160.291 214.548 161.271 214.548C162.294 214.548 163.15 214.276 163.841 213.73C164.531 213.176 165.051 212.422 165.4 211.467C165.758 210.504 165.937 209.409 165.937 208.182C165.937 206.963 165.762 205.881 165.413 204.935C165.064 203.989 164.544 203.247 163.853 202.71C163.163 202.173 162.302 201.905 161.271 201.905C160.282 201.905 159.443 202.165 158.752 202.685C158.062 203.205 157.538 203.933 157.18 204.871C156.831 205.808 156.656 206.912 156.656 208.182ZM179.217 191.818V218H174.589V191.818H179.217ZM192.669 218.384C190.7 218.384 189 217.974 187.568 217.156C186.145 216.33 185.049 215.162 184.282 213.653C183.515 212.136 183.132 210.351 183.132 208.297C183.132 206.277 183.515 204.504 184.282 202.979C185.058 201.445 186.14 200.251 187.529 199.399C188.919 198.538 190.551 198.108 192.426 198.108C193.636 198.108 194.778 198.304 195.852 198.696C196.934 199.08 197.889 199.676 198.716 200.486C199.551 201.295 200.207 202.327 200.684 203.58C201.162 204.824 201.4 206.307 201.4 208.028V209.447H185.305V206.328H196.964C196.956 205.442 196.764 204.653 196.389 203.963C196.014 203.264 195.49 202.714 194.816 202.314C194.152 201.913 193.376 201.713 192.49 201.713C191.544 201.713 190.713 201.943 189.997 202.403C189.281 202.855 188.723 203.452 188.322 204.193C187.93 204.926 187.73 205.732 187.721 206.609V209.332C187.721 210.474 187.93 211.455 188.348 212.273C188.765 213.082 189.349 213.705 190.099 214.139C190.849 214.565 191.727 214.778 192.733 214.778C193.406 214.778 194.015 214.685 194.561 214.497C195.106 214.301 195.579 214.016 195.98 213.641C196.38 213.266 196.683 212.801 196.887 212.247L201.208 212.733C200.936 213.875 200.416 214.872 199.649 215.724C198.89 216.568 197.919 217.224 196.734 217.693C195.549 218.153 194.194 218.384 192.669 218.384ZM205.315 218V198.364H209.739V201.7H209.969C210.378 200.575 211.055 199.697 212.001 199.067C212.947 198.428 214.077 198.108 215.389 198.108C216.719 198.108 217.839 198.432 218.751 199.08C219.672 199.719 220.32 200.592 220.695 201.7H220.899C221.334 200.609 222.067 199.74 223.098 199.092C224.138 198.436 225.369 198.108 226.793 198.108C228.599 198.108 230.074 198.679 231.216 199.821C232.358 200.963 232.929 202.629 232.929 204.82V218H228.288V205.536C228.288 204.317 227.964 203.426 227.317 202.864C226.669 202.293 225.876 202.007 224.939 202.007C223.822 202.007 222.949 202.357 222.318 203.055C221.696 203.746 221.385 204.645 221.385 205.753V218H216.847V205.344C216.847 204.33 216.54 203.52 215.926 202.915C215.321 202.31 214.528 202.007 213.548 202.007C212.884 202.007 212.278 202.178 211.733 202.518C211.188 202.851 210.753 203.324 210.429 203.938C210.105 204.543 209.943 205.25 209.943 206.06V218H205.315ZM115.993 244.652H111.212C111.075 243.868 110.824 243.173 110.457 242.568C110.091 241.955 109.635 241.435 109.089 241.009C108.544 240.582 107.922 240.263 107.223 240.05C106.533 239.828 105.787 239.717 104.986 239.717C103.563 239.717 102.301 240.075 101.202 240.791C100.102 241.499 99.2415 242.538 98.6193 243.911C97.9972 245.274 97.6861 246.94 97.6861 248.909C97.6861 250.912 97.9972 252.599 98.6193 253.972C99.25 255.335 100.111 256.366 101.202 257.065C102.301 257.756 103.558 258.101 104.973 258.101C105.757 258.101 106.49 257.999 107.172 257.794C107.862 257.581 108.48 257.27 109.026 256.861C109.58 256.452 110.044 255.949 110.419 255.352C110.803 254.756 111.067 254.074 111.212 253.307L115.993 253.332C115.814 254.577 115.426 255.744 114.83 256.835C114.241 257.926 113.47 258.889 112.516 259.724C111.561 260.551 110.445 261.199 109.166 261.668C107.888 262.128 106.469 262.358 104.909 262.358C102.608 262.358 100.554 261.825 98.7472 260.76C96.9403 259.695 95.517 258.156 94.4773 256.145C93.4375 254.134 92.9176 251.722 92.9176 248.909C92.9176 246.088 93.4418 243.676 94.4901 241.673C95.5384 239.662 96.9659 238.124 98.7727 237.058C100.58 235.993 102.625 235.46 104.909 235.46C106.366 235.46 107.722 235.665 108.974 236.074C110.227 236.483 111.344 237.084 112.324 237.876C113.304 238.661 114.109 239.624 114.74 240.766C115.379 241.899 115.797 243.195 115.993 244.652ZM124.76 250.494V262H120.132V235.818H124.657V245.7H124.887C125.348 244.592 126.059 243.719 127.022 243.08C127.994 242.432 129.23 242.108 130.73 242.108C132.093 242.108 133.282 242.393 134.297 242.964C135.311 243.536 136.095 244.371 136.649 245.47C137.211 246.57 137.493 247.912 137.493 249.497V262H132.865V250.213C132.865 248.892 132.524 247.865 131.842 247.132C131.169 246.391 130.223 246.02 129.004 246.02C128.186 246.02 127.453 246.199 126.805 246.557C126.166 246.906 125.663 247.413 125.297 248.078C124.939 248.743 124.76 249.548 124.76 250.494ZM147.86 262.396C146.616 262.396 145.495 262.175 144.498 261.732C143.51 261.28 142.725 260.615 142.146 259.737C141.575 258.859 141.289 257.777 141.289 256.49C141.289 255.382 141.494 254.466 141.903 253.741C142.312 253.017 142.87 252.438 143.578 252.003C144.285 251.568 145.082 251.24 145.968 251.018C146.863 250.788 147.788 250.622 148.743 250.52C149.893 250.401 150.826 250.294 151.542 250.2C152.258 250.098 152.778 249.945 153.102 249.74C153.434 249.527 153.6 249.199 153.6 248.756V248.679C153.6 247.716 153.315 246.97 152.744 246.442C152.173 245.913 151.35 245.649 150.277 245.649C149.143 245.649 148.244 245.896 147.579 246.391C146.923 246.885 146.48 247.469 146.25 248.142L141.929 247.528C142.27 246.335 142.832 245.338 143.616 244.537C144.4 243.727 145.359 243.122 146.493 242.722C147.626 242.312 148.879 242.108 150.251 242.108C151.197 242.108 152.139 242.219 153.076 242.44C154.014 242.662 154.87 243.028 155.646 243.54C156.422 244.043 157.044 244.729 157.512 245.598C157.99 246.467 158.228 247.554 158.228 248.858V262H153.779V259.303H153.626C153.345 259.848 152.949 260.359 152.437 260.837C151.934 261.305 151.299 261.685 150.532 261.974C149.774 262.256 148.883 262.396 147.86 262.396ZM149.062 258.996C149.991 258.996 150.797 258.812 151.478 258.446C152.16 258.071 152.684 257.577 153.051 256.963C153.426 256.349 153.613 255.68 153.613 254.956V252.642C153.468 252.761 153.221 252.872 152.872 252.974C152.531 253.077 152.147 253.166 151.721 253.243C151.295 253.32 150.873 253.388 150.456 253.447C150.038 253.507 149.676 253.558 149.369 253.601C148.679 253.695 148.061 253.848 147.515 254.061C146.97 254.274 146.539 254.572 146.224 254.956C145.909 255.331 145.751 255.817 145.751 256.413C145.751 257.266 146.062 257.909 146.684 258.344C147.306 258.778 148.099 258.996 149.062 258.996ZM162.882 262V242.364H167.369V245.636H167.574C167.931 244.503 168.545 243.629 169.414 243.016C170.292 242.393 171.294 242.082 172.419 242.082C172.674 242.082 172.96 242.095 173.275 242.121C173.599 242.138 173.868 242.168 174.081 242.21V246.467C173.885 246.399 173.574 246.339 173.147 246.288C172.73 246.229 172.325 246.199 171.933 246.199C171.089 246.199 170.331 246.382 169.657 246.749C168.993 247.107 168.468 247.605 168.085 248.244C167.701 248.884 167.51 249.621 167.51 250.456V262H162.882ZM182.454 262.396C181.21 262.396 180.089 262.175 179.092 261.732C178.103 261.28 177.319 260.615 176.74 259.737C176.169 258.859 175.883 257.777 175.883 256.49C175.883 255.382 176.088 254.466 176.497 253.741C176.906 253.017 177.464 252.438 178.172 252.003C178.879 251.568 179.676 251.24 180.562 251.018C181.457 250.788 182.382 250.622 183.336 250.52C184.487 250.401 185.42 250.294 186.136 250.2C186.852 250.098 187.372 249.945 187.696 249.74C188.028 249.527 188.194 249.199 188.194 248.756V248.679C188.194 247.716 187.909 246.97 187.338 246.442C186.767 245.913 185.944 245.649 184.87 245.649C183.737 245.649 182.838 245.896 182.173 246.391C181.517 246.885 181.074 247.469 180.843 248.142L176.522 247.528C176.863 246.335 177.426 245.338 178.21 244.537C178.994 243.727 179.953 243.122 181.086 242.722C182.22 242.312 183.473 242.108 184.845 242.108C185.791 242.108 186.733 242.219 187.67 242.44C188.608 242.662 189.464 243.028 190.24 243.54C191.015 244.043 191.637 244.729 192.106 245.598C192.583 246.467 192.822 247.554 192.822 248.858V262H188.373V259.303H188.22C187.939 259.848 187.542 260.359 187.031 260.837C186.528 261.305 185.893 261.685 185.126 261.974C184.368 262.256 183.477 262.396 182.454 262.396ZM183.656 258.996C184.585 258.996 185.39 258.812 186.072 258.446C186.754 258.071 187.278 257.577 187.645 256.963C188.02 256.349 188.207 255.68 188.207 254.956V252.642C188.062 252.761 187.815 252.872 187.466 252.974C187.125 253.077 186.741 253.166 186.315 253.243C185.889 253.32 185.467 253.388 185.049 253.447C184.632 253.507 184.27 253.558 183.963 253.601C183.272 253.695 182.654 253.848 182.109 254.061C181.564 254.274 181.133 254.572 180.818 254.956C180.502 255.331 180.345 255.817 180.345 256.413C180.345 257.266 180.656 257.909 181.278 258.344C181.9 258.778 182.693 258.996 183.656 258.996ZM206.041 262.384C204.081 262.384 202.397 261.953 200.991 261.092C199.593 260.232 198.515 259.043 197.757 257.526C197.007 256 196.632 254.244 196.632 252.259C196.632 250.264 197.015 248.504 197.782 246.979C198.549 245.445 199.632 244.251 201.029 243.399C202.436 242.538 204.098 242.108 206.015 242.108C207.609 242.108 209.02 242.402 210.247 242.99C211.483 243.57 212.467 244.392 213.2 245.457C213.933 246.514 214.35 247.75 214.453 249.165H210.029C209.85 248.219 209.424 247.43 208.751 246.8C208.086 246.161 207.196 245.841 206.079 245.841C205.133 245.841 204.302 246.097 203.586 246.608C202.87 247.111 202.312 247.835 201.912 248.781C201.52 249.727 201.324 250.861 201.324 252.182C201.324 253.52 201.52 254.67 201.912 255.634C202.304 256.588 202.853 257.325 203.561 257.845C204.277 258.357 205.116 258.612 206.079 258.612C206.761 258.612 207.37 258.484 207.907 258.229C208.453 257.964 208.909 257.585 209.275 257.091C209.642 256.597 209.893 255.996 210.029 255.288H214.453C214.342 256.678 213.933 257.909 213.225 258.983C212.518 260.048 211.555 260.884 210.336 261.489C209.118 262.085 207.686 262.384 206.041 262.384ZM228.058 242.364V245.943H216.77V242.364H228.058ZM219.557 237.659H224.185V256.094C224.185 256.716 224.278 257.193 224.466 257.526C224.662 257.849 224.918 258.071 225.233 258.19C225.548 258.31 225.898 258.369 226.281 258.369C226.571 258.369 226.835 258.348 227.074 258.305C227.321 258.263 227.509 258.224 227.636 258.19L228.416 261.808C228.169 261.893 227.815 261.987 227.355 262.089C226.903 262.192 226.349 262.251 225.693 262.268C224.534 262.303 223.49 262.128 222.561 261.744C221.632 261.352 220.895 260.747 220.349 259.929C219.813 259.111 219.548 258.088 219.557 256.861V237.659ZM240.411 262.384C238.442 262.384 236.742 261.974 235.31 261.156C233.887 260.33 232.792 259.162 232.025 257.653C231.257 256.136 230.874 254.351 230.874 252.297C230.874 250.277 231.257 248.504 232.025 246.979C232.8 245.445 233.882 244.251 235.272 243.399C236.661 242.538 238.293 242.108 240.168 242.108C241.378 242.108 242.52 242.304 243.594 242.696C244.676 243.08 245.631 243.676 246.458 244.486C247.293 245.295 247.949 246.327 248.426 247.58C248.904 248.824 249.142 250.307 249.142 252.028V253.447H233.047V250.328H244.706C244.698 249.442 244.506 248.653 244.131 247.963C243.756 247.264 243.232 246.714 242.559 246.314C241.894 245.913 241.118 245.713 240.232 245.713C239.286 245.713 238.455 245.943 237.739 246.403C237.023 246.855 236.465 247.452 236.064 248.193C235.672 248.926 235.472 249.732 235.463 250.609V253.332C235.463 254.474 235.672 255.455 236.09 256.273C236.507 257.082 237.091 257.705 237.841 258.139C238.591 258.565 239.469 258.778 240.475 258.778C241.148 258.778 241.757 258.685 242.303 258.497C242.848 258.301 243.321 258.016 243.722 257.641C244.123 257.266 244.425 256.801 244.63 256.247L248.951 256.733C248.678 257.875 248.158 258.872 247.391 259.724C246.632 260.568 245.661 261.224 244.476 261.693C243.292 262.153 241.936 262.384 240.411 262.384ZM253.058 262V242.364H257.545V245.636H257.749C258.107 244.503 258.721 243.629 259.59 243.016C260.468 242.393 261.469 242.082 262.594 242.082C262.85 242.082 263.136 242.095 263.451 242.121C263.775 242.138 264.043 242.168 264.256 242.21V246.467C264.06 246.399 263.749 246.339 263.323 246.288C262.906 246.229 262.501 246.199 262.109 246.199C261.265 246.199 260.506 246.382 259.833 246.749C259.168 247.107 258.644 247.605 258.261 248.244C257.877 248.884 257.685 249.621 257.685 250.456V262H253.058ZM267.331 262V242.364H271.959V262H267.331ZM269.658 239.577C268.925 239.577 268.294 239.334 267.766 238.848C267.237 238.354 266.973 237.761 266.973 237.071C266.973 236.372 267.237 235.78 267.766 235.294C268.294 234.8 268.925 234.553 269.658 234.553C270.399 234.553 271.03 234.8 271.55 235.294C272.078 235.78 272.342 236.372 272.342 237.071C272.342 237.761 272.078 238.354 271.55 238.848C271.03 239.334 270.399 239.577 269.658 239.577ZM276.462 262V259.06L286.587 246.365V246.199H276.794V242.364H292.25V245.521L282.611 257.999V258.165H292.583V262H276.462ZM302.583 262.396C301.339 262.396 300.218 262.175 299.221 261.732C298.232 261.28 297.448 260.615 296.869 259.737C296.298 258.859 296.012 257.777 296.012 256.49C296.012 255.382 296.217 254.466 296.626 253.741C297.035 253.017 297.593 252.438 298.3 252.003C299.008 251.568 299.805 251.24 300.691 251.018C301.586 250.788 302.511 250.622 303.465 250.52C304.616 250.401 305.549 250.294 306.265 250.2C306.981 250.098 307.501 249.945 307.825 249.74C308.157 249.527 308.323 249.199 308.323 248.756V248.679C308.323 247.716 308.038 246.97 307.467 246.442C306.896 245.913 306.073 245.649 304.999 245.649C303.866 245.649 302.967 245.896 302.302 246.391C301.646 246.885 301.202 247.469 300.972 248.142L296.651 247.528C296.992 246.335 297.555 245.338 298.339 244.537C299.123 243.727 300.082 243.122 301.215 242.722C302.349 242.312 303.602 242.108 304.974 242.108C305.92 242.108 306.862 242.219 307.799 242.44C308.737 242.662 309.593 243.028 310.369 243.54C311.144 244.043 311.766 244.729 312.235 245.598C312.712 246.467 312.951 247.554 312.951 248.858V262H308.502V259.303H308.349C308.067 259.848 307.671 260.359 307.16 260.837C306.657 261.305 306.022 261.685 305.255 261.974C304.496 262.256 303.606 262.396 302.583 262.396ZM303.785 258.996C304.714 258.996 305.519 258.812 306.201 258.446C306.883 258.071 307.407 257.577 307.773 256.963C308.148 256.349 308.336 255.68 308.336 254.956V252.642C308.191 252.761 307.944 252.872 307.594 252.974C307.254 253.077 306.87 253.166 306.444 253.243C306.018 253.32 305.596 253.388 305.178 253.447C304.761 253.507 304.398 253.558 304.092 253.601C303.401 253.695 302.783 253.848 302.238 254.061C301.692 254.274 301.262 254.572 300.947 254.956C300.631 255.331 300.474 255.817 300.474 256.413C300.474 257.266 300.785 257.909 301.407 258.344C302.029 258.778 302.822 258.996 303.785 258.996ZM327.41 242.364V245.943H316.121V242.364H327.41ZM318.908 237.659H323.536V256.094C323.536 256.716 323.63 257.193 323.817 257.526C324.013 257.849 324.269 258.071 324.585 258.19C324.9 258.31 325.249 258.369 325.633 258.369C325.923 258.369 326.187 258.348 326.425 258.305C326.673 258.263 326.86 258.224 326.988 258.19L327.768 261.808C327.521 261.893 327.167 261.987 326.707 262.089C326.255 262.192 325.701 262.251 325.045 262.268C323.886 262.303 322.842 262.128 321.913 261.744C320.984 261.352 320.246 260.747 319.701 259.929C319.164 259.111 318.9 258.088 318.908 256.861V237.659ZM331.28 262V242.364H335.908V262H331.28ZM333.607 239.577C332.874 239.577 332.243 239.334 331.715 238.848C331.186 238.354 330.922 237.761 330.922 237.071C330.922 236.372 331.186 235.78 331.715 235.294C332.243 234.8 332.874 234.553 333.607 234.553C334.348 234.553 334.979 234.8 335.499 235.294C336.027 235.78 336.292 236.372 336.292 237.071C336.292 237.761 336.027 238.354 335.499 238.848C334.979 239.334 334.348 239.577 333.607 239.577ZM349.232 262.384C347.315 262.384 345.653 261.962 344.246 261.118C342.84 260.274 341.749 259.094 340.974 257.577C340.207 256.06 339.823 254.287 339.823 252.259C339.823 250.23 340.207 248.453 340.974 246.928C341.749 245.402 342.84 244.217 344.246 243.374C345.653 242.53 347.315 242.108 349.232 242.108C351.15 242.108 352.812 242.53 354.218 243.374C355.624 244.217 356.711 245.402 357.478 246.928C358.254 248.453 358.641 250.23 358.641 252.259C358.641 254.287 358.254 256.06 357.478 257.577C356.711 259.094 355.624 260.274 354.218 261.118C352.812 261.962 351.15 262.384 349.232 262.384ZM349.258 258.676C350.298 258.676 351.167 258.391 351.866 257.82C352.565 257.24 353.085 256.464 353.425 255.493C353.775 254.521 353.95 253.439 353.95 252.246C353.95 251.044 353.775 249.957 353.425 248.986C353.085 248.006 352.565 247.226 351.866 246.646C351.167 246.067 350.298 245.777 349.258 245.777C348.192 245.777 347.306 246.067 346.599 246.646C345.9 247.226 345.376 248.006 345.026 248.986C344.685 249.957 344.515 251.044 344.515 252.246C344.515 253.439 344.685 254.521 345.026 255.493C345.376 256.464 345.9 257.24 346.599 257.82C347.306 258.391 348.192 258.676 349.258 258.676ZM367.197 250.494V262H362.569V242.364H366.993V245.7H367.223C367.674 244.601 368.395 243.727 369.383 243.08C370.38 242.432 371.612 242.108 373.078 242.108C374.433 242.108 375.613 242.398 376.619 242.977C377.633 243.557 378.417 244.396 378.971 245.496C379.534 246.595 379.811 247.929 379.802 249.497V262H375.174V250.213C375.174 248.901 374.833 247.874 374.152 247.132C373.478 246.391 372.545 246.02 371.352 246.02C370.542 246.02 369.822 246.199 369.191 246.557C368.569 246.906 368.079 247.413 367.721 248.078C367.372 248.743 367.197 249.548 367.197 250.494Z" fill="white"/>
<path d="M486.432 195.794V191.818H507.321V195.794H499.229V218H494.524V195.794H486.432ZM514.122 218.396C512.878 218.396 511.757 218.175 510.76 217.732C509.771 217.28 508.987 216.615 508.408 215.737C507.837 214.859 507.551 213.777 507.551 212.49C507.551 211.382 507.756 210.466 508.165 209.741C508.574 209.017 509.132 208.438 509.839 208.003C510.547 207.568 511.344 207.24 512.23 207.018C513.125 206.788 514.05 206.622 515.004 206.52C516.155 206.401 517.088 206.294 517.804 206.2C518.52 206.098 519.04 205.945 519.364 205.74C519.696 205.527 519.862 205.199 519.862 204.756V204.679C519.862 203.716 519.577 202.97 519.006 202.442C518.435 201.913 517.612 201.649 516.538 201.649C515.405 201.649 514.506 201.896 513.841 202.391C513.185 202.885 512.741 203.469 512.511 204.142L508.19 203.528C508.531 202.335 509.094 201.338 509.878 200.537C510.662 199.727 511.621 199.122 512.754 198.722C513.888 198.312 515.141 198.108 516.513 198.108C517.459 198.108 518.401 198.219 519.338 198.44C520.276 198.662 521.132 199.028 521.908 199.54C522.683 200.043 523.305 200.729 523.774 201.598C524.251 202.467 524.49 203.554 524.49 204.858V218H520.041V215.303H519.888C519.607 215.848 519.21 216.359 518.699 216.837C518.196 217.305 517.561 217.685 516.794 217.974C516.036 218.256 515.145 218.396 514.122 218.396ZM515.324 214.996C516.253 214.996 517.058 214.812 517.74 214.446C518.422 214.071 518.946 213.577 519.312 212.963C519.688 212.349 519.875 211.68 519.875 210.956V208.642C519.73 208.761 519.483 208.872 519.134 208.974C518.793 209.077 518.409 209.166 517.983 209.243C517.557 209.32 517.135 209.388 516.717 209.447C516.3 209.507 515.938 209.558 515.631 209.601C514.94 209.695 514.322 209.848 513.777 210.061C513.232 210.274 512.801 210.572 512.486 210.956C512.17 211.331 512.013 211.817 512.013 212.413C512.013 213.266 512.324 213.909 512.946 214.344C513.568 214.778 514.361 214.996 515.324 214.996ZM544.663 203.554L540.445 204.014C540.325 203.588 540.116 203.188 539.818 202.812C539.528 202.438 539.136 202.135 538.642 201.905C538.148 201.675 537.543 201.56 536.827 201.56C535.864 201.56 535.054 201.768 534.398 202.186C533.75 202.604 533.43 203.145 533.439 203.81C533.43 204.381 533.639 204.845 534.065 205.203C534.5 205.561 535.216 205.855 536.213 206.085L539.562 206.801C541.42 207.202 542.801 207.837 543.705 208.706C544.616 209.575 545.077 210.713 545.085 212.119C545.077 213.355 544.714 214.446 543.999 215.392C543.291 216.33 542.307 217.062 541.045 217.591C539.784 218.119 538.335 218.384 536.699 218.384C534.295 218.384 532.361 217.881 530.895 216.875C529.429 215.861 528.555 214.45 528.274 212.643L532.787 212.209C532.991 213.095 533.426 213.764 534.091 214.216C534.756 214.668 535.621 214.893 536.686 214.893C537.786 214.893 538.668 214.668 539.332 214.216C540.006 213.764 540.342 213.206 540.342 212.541C540.342 211.979 540.125 211.514 539.69 211.148C539.264 210.781 538.599 210.5 537.696 210.304L534.347 209.601C532.463 209.209 531.07 208.548 530.166 207.619C529.263 206.682 528.815 205.497 528.824 204.065C528.815 202.855 529.143 201.807 529.808 200.92C530.482 200.026 531.415 199.335 532.608 198.849C533.81 198.355 535.195 198.108 536.763 198.108C539.064 198.108 540.875 198.598 542.196 199.578C543.526 200.558 544.348 201.884 544.663 203.554ZM553.12 211.838L553.107 206.251H553.849L560.906 198.364H566.313L557.633 208.028H556.674L553.12 211.838ZM548.901 218V191.818H553.529V218H548.901ZM561.225 218L554.833 209.064L557.952 205.804L566.761 218H561.225ZM490.945 262H485.882L495.099 235.818H500.955L510.185 262H505.122L498.129 241.188H497.925L490.945 262ZM491.111 251.734H504.918V255.544H491.111V251.734ZM513.633 262V235.818H518.261V245.611H518.453C518.691 245.134 519.028 244.626 519.463 244.089C519.897 243.544 520.485 243.08 521.227 242.696C521.968 242.304 522.914 242.108 524.065 242.108C525.582 242.108 526.95 242.496 528.169 243.271C529.396 244.038 530.368 245.176 531.083 246.685C531.808 248.185 532.17 250.026 532.17 252.207C532.17 254.364 531.816 256.196 531.109 257.705C530.402 259.213 529.439 260.364 528.22 261.156C527.001 261.949 525.62 262.345 524.078 262.345C522.953 262.345 522.02 262.158 521.278 261.783C520.537 261.408 519.94 260.956 519.488 260.428C519.045 259.891 518.7 259.384 518.453 258.906H518.184V262H513.633ZM518.172 252.182C518.172 253.452 518.35 254.564 518.708 255.518C519.075 256.473 519.599 257.219 520.281 257.756C520.971 258.284 521.806 258.548 522.787 258.548C523.809 258.548 524.666 258.276 525.356 257.73C526.047 257.176 526.566 256.422 526.916 255.467C527.274 254.504 527.453 253.409 527.453 252.182C527.453 250.963 527.278 249.881 526.929 248.935C526.579 247.989 526.059 247.247 525.369 246.71C524.679 246.173 523.818 245.905 522.787 245.905C521.798 245.905 520.958 246.165 520.268 246.685C519.578 247.205 519.054 247.933 518.696 248.871C518.346 249.808 518.172 250.912 518.172 252.182ZM551.624 247.554L547.406 248.014C547.286 247.588 547.077 247.188 546.779 246.812C546.489 246.438 546.097 246.135 545.603 245.905C545.109 245.675 544.504 245.56 543.788 245.56C542.825 245.56 542.015 245.768 541.359 246.186C540.711 246.604 540.391 247.145 540.4 247.81C540.391 248.381 540.6 248.845 541.026 249.203C541.461 249.561 542.177 249.855 543.174 250.085L546.523 250.801C548.381 251.202 549.762 251.837 550.665 252.706C551.577 253.575 552.038 254.713 552.046 256.119C552.038 257.355 551.675 258.446 550.96 259.392C550.252 260.33 549.268 261.062 548.006 261.591C546.745 262.119 545.296 262.384 543.66 262.384C541.256 262.384 539.322 261.881 537.856 260.875C536.39 259.861 535.516 258.45 535.235 256.643L539.748 256.209C539.952 257.095 540.387 257.764 541.052 258.216C541.717 258.668 542.582 258.893 543.647 258.893C544.746 258.893 545.629 258.668 546.293 258.216C546.967 257.764 547.303 257.206 547.303 256.541C547.303 255.979 547.086 255.514 546.651 255.148C546.225 254.781 545.56 254.5 544.657 254.304L541.308 253.601C539.424 253.209 538.031 252.548 537.127 251.619C536.224 250.682 535.776 249.497 535.785 248.065C535.776 246.855 536.104 245.807 536.769 244.92C537.442 244.026 538.376 243.335 539.569 242.849C540.771 242.355 542.156 242.108 543.724 242.108C546.025 242.108 547.836 242.598 549.157 243.578C550.487 244.558 551.309 245.884 551.624 247.554ZM565.668 242.364V245.943H554.379V242.364H565.668ZM557.166 237.659H561.794V256.094C561.794 256.716 561.888 257.193 562.075 257.526C562.271 257.849 562.527 258.071 562.842 258.19C563.158 258.31 563.507 258.369 563.891 258.369C564.18 258.369 564.445 258.348 564.683 258.305C564.93 258.263 565.118 258.224 565.246 258.19L566.026 261.808C565.778 261.893 565.425 261.987 564.964 262.089C564.513 262.192 563.959 262.251 563.303 262.268C562.143 262.303 561.099 262.128 560.17 261.744C559.241 261.352 558.504 260.747 557.959 259.929C557.422 259.111 557.158 258.088 557.166 256.861V237.659ZM569.538 262V242.364H574.025V245.636H574.23C574.588 244.503 575.201 243.629 576.071 243.016C576.949 242.393 577.95 242.082 579.075 242.082C579.331 242.082 579.616 242.095 579.931 242.121C580.255 242.138 580.524 242.168 580.737 242.21V246.467C580.541 246.399 580.23 246.339 579.804 246.288C579.386 246.229 578.981 246.199 578.589 246.199C577.745 246.199 576.987 246.382 576.314 246.749C575.649 247.107 575.125 247.605 574.741 248.244C574.358 248.884 574.166 249.621 574.166 250.456V262H569.538ZM589.11 262.396C587.866 262.396 586.745 262.175 585.748 261.732C584.76 261.28 583.975 260.615 583.396 259.737C582.825 258.859 582.539 257.777 582.539 256.49C582.539 255.382 582.744 254.466 583.153 253.741C583.562 253.017 584.12 252.438 584.828 252.003C585.535 251.568 586.332 251.24 587.218 251.018C588.113 250.788 589.038 250.622 589.993 250.52C591.143 250.401 592.076 250.294 592.792 250.2C593.508 250.098 594.028 249.945 594.352 249.74C594.684 249.527 594.85 249.199 594.85 248.756V248.679C594.85 247.716 594.565 246.97 593.994 246.442C593.423 245.913 592.6 245.649 591.527 245.649C590.393 245.649 589.494 245.896 588.829 246.391C588.173 246.885 587.73 247.469 587.5 248.142L583.179 247.528C583.52 246.335 584.082 245.338 584.866 244.537C585.65 243.727 586.609 243.122 587.743 242.722C588.876 242.312 590.129 242.108 591.501 242.108C592.447 242.108 593.389 242.219 594.326 242.44C595.264 242.662 596.12 243.028 596.896 243.54C597.672 244.043 598.294 244.729 598.762 245.598C599.24 246.467 599.478 247.554 599.478 248.858V262H595.029V259.303H594.876C594.595 259.848 594.199 260.359 593.687 260.837C593.184 261.305 592.549 261.685 591.782 261.974C591.024 262.256 590.133 262.396 589.11 262.396ZM590.312 258.996C591.241 258.996 592.047 258.812 592.728 258.446C593.41 258.071 593.934 257.577 594.301 256.963C594.676 256.349 594.863 255.68 594.863 254.956V252.642C594.718 252.761 594.471 252.872 594.122 252.974C593.781 253.077 593.397 253.166 592.971 253.243C592.545 253.32 592.123 253.388 591.706 253.447C591.288 253.507 590.926 253.558 590.619 253.601C589.929 253.695 589.311 253.848 588.765 254.061C588.22 254.274 587.789 254.572 587.474 254.956C587.159 255.331 587.001 255.817 587.001 256.413C587.001 257.266 587.312 257.909 587.934 258.344C588.556 258.778 589.349 258.996 590.312 258.996ZM612.697 262.384C610.737 262.384 609.054 261.953 607.647 261.092C606.25 260.232 605.172 259.043 604.413 257.526C603.663 256 603.288 254.244 603.288 252.259C603.288 250.264 603.672 248.504 604.439 246.979C605.206 245.445 606.288 244.251 607.686 243.399C609.092 242.538 610.754 242.108 612.672 242.108C614.265 242.108 615.676 242.402 616.903 242.99C618.139 243.57 619.123 244.392 619.856 245.457C620.589 246.514 621.007 247.75 621.109 249.165H616.686C616.507 248.219 616.081 247.43 615.407 246.8C614.743 246.161 613.852 245.841 612.735 245.841C611.789 245.841 610.958 246.097 610.243 246.608C609.527 247.111 608.968 247.835 608.568 248.781C608.176 249.727 607.98 250.861 607.98 252.182C607.98 253.52 608.176 254.67 608.568 255.634C608.96 256.588 609.51 257.325 610.217 257.845C610.933 258.357 611.772 258.612 612.735 258.612C613.417 258.612 614.027 258.484 614.564 258.229C615.109 257.964 615.565 257.585 615.931 257.091C616.298 256.597 616.549 255.996 616.686 255.288H621.109C620.998 256.678 620.589 257.909 619.882 258.983C619.174 260.048 618.211 260.884 616.993 261.489C615.774 262.085 614.342 262.384 612.697 262.384ZM634.714 242.364V245.943H623.426V242.364H634.714ZM626.213 237.659H630.841V256.094C630.841 256.716 630.935 257.193 631.122 257.526C631.318 257.849 631.574 258.071 631.889 258.19C632.205 258.31 632.554 258.369 632.938 258.369C633.227 258.369 633.491 258.348 633.73 258.305C633.977 258.263 634.165 258.224 634.293 258.19L635.072 261.808C634.825 261.893 634.472 261.987 634.011 262.089C633.56 262.192 633.006 262.251 632.349 262.268C631.19 262.303 630.146 262.128 629.217 261.744C628.288 261.352 627.551 260.747 627.006 259.929C626.469 259.111 626.205 258.088 626.213 256.861V237.659ZM638.585 262V242.364H643.213V262H638.585ZM640.912 239.577C640.179 239.577 639.548 239.334 639.02 238.848C638.491 238.354 638.227 237.761 638.227 237.071C638.227 236.372 638.491 235.78 639.02 235.294C639.548 234.8 640.179 234.553 640.912 234.553C641.653 234.553 642.284 234.8 642.804 235.294C643.332 235.78 643.596 236.372 643.596 237.071C643.596 237.761 643.332 238.354 642.804 238.848C642.284 239.334 641.653 239.577 640.912 239.577ZM656.537 262.384C654.619 262.384 652.957 261.962 651.551 261.118C650.145 260.274 649.054 259.094 648.278 257.577C647.511 256.06 647.128 254.287 647.128 252.259C647.128 250.23 647.511 248.453 648.278 246.928C649.054 245.402 650.145 244.217 651.551 243.374C652.957 242.53 654.619 242.108 656.537 242.108C658.455 242.108 660.116 242.53 661.523 243.374C662.929 244.217 664.016 245.402 664.783 246.928C665.558 248.453 665.946 250.23 665.946 252.259C665.946 254.287 665.558 256.06 664.783 257.577C664.016 259.094 662.929 260.274 661.523 261.118C660.116 261.962 658.455 262.384 656.537 262.384ZM656.562 258.676C657.602 258.676 658.472 258.391 659.17 257.82C659.869 257.24 660.389 256.464 660.73 255.493C661.08 254.521 661.254 253.439 661.254 252.246C661.254 251.044 661.08 249.957 660.73 248.986C660.389 248.006 659.869 247.226 659.17 246.646C658.472 246.067 657.602 245.777 656.562 245.777C655.497 245.777 654.611 246.067 653.903 246.646C653.205 247.226 652.68 248.006 652.331 248.986C651.99 249.957 651.82 251.044 651.82 252.246C651.82 253.439 651.99 254.521 652.331 255.493C652.68 256.464 653.205 257.24 653.903 257.82C654.611 258.391 655.497 258.676 656.562 258.676ZM674.502 250.494V262H669.874V242.364H674.297V245.7H674.527C674.979 244.601 675.699 243.727 676.688 243.08C677.685 242.432 678.917 242.108 680.382 242.108C681.738 242.108 682.918 242.398 683.924 242.977C684.938 243.557 685.722 244.396 686.276 245.496C686.838 246.595 687.115 247.929 687.107 249.497V262H682.479V250.213C682.479 248.901 682.138 247.874 681.456 247.132C680.783 246.391 679.85 246.02 678.657 246.02C677.847 246.02 677.127 246.199 676.496 246.557C675.874 246.906 675.384 247.413 675.026 248.078C674.676 248.743 674.502 249.548 674.502 250.494Z" fill="#48A625"/>
<path d="M804.811 199.016C804.692 197.899 804.189 197.03 803.303 196.408C802.425 195.786 801.283 195.474 799.876 195.474C798.888 195.474 798.04 195.624 797.332 195.922C796.625 196.22 796.084 196.625 795.709 197.136C795.334 197.648 795.142 198.232 795.134 198.888C795.134 199.433 795.257 199.906 795.504 200.307C795.76 200.707 796.105 201.048 796.54 201.33C796.974 201.602 797.456 201.832 797.984 202.02C798.513 202.207 799.045 202.365 799.582 202.493L802.037 203.107C803.026 203.337 803.976 203.648 804.888 204.04C805.808 204.432 806.631 204.926 807.355 205.523C808.088 206.119 808.668 206.839 809.094 207.683C809.52 208.527 809.733 209.516 809.733 210.649C809.733 212.183 809.341 213.534 808.557 214.702C807.773 215.861 806.639 216.768 805.156 217.425C803.682 218.072 801.896 218.396 799.8 218.396C797.763 218.396 795.994 218.081 794.494 217.45C793.003 216.82 791.835 215.899 790.991 214.689C790.156 213.479 789.705 212.004 789.636 210.266H794.303C794.371 211.178 794.652 211.936 795.146 212.541C795.641 213.146 796.284 213.598 797.077 213.896C797.878 214.195 798.773 214.344 799.761 214.344C800.793 214.344 801.696 214.19 802.472 213.884C803.256 213.568 803.869 213.134 804.312 212.58C804.756 212.017 804.982 211.361 804.99 210.611C804.982 209.929 804.781 209.366 804.389 208.923C803.997 208.472 803.447 208.097 802.74 207.798C802.041 207.491 801.223 207.219 800.286 206.98L797.307 206.213C795.151 205.659 793.446 204.82 792.193 203.695C790.949 202.561 790.327 201.057 790.327 199.182C790.327 197.639 790.744 196.288 791.58 195.129C792.423 193.97 793.57 193.071 795.018 192.432C796.467 191.784 798.108 191.46 799.94 191.46C801.798 191.46 803.426 191.784 804.824 192.432C806.23 193.071 807.334 193.962 808.135 195.104C808.936 196.237 809.349 197.541 809.375 199.016H804.811ZM822.322 218.384C820.404 218.384 818.743 217.962 817.336 217.118C815.93 216.274 814.839 215.094 814.064 213.577C813.297 212.06 812.913 210.287 812.913 208.259C812.913 206.23 813.297 204.453 814.064 202.928C814.839 201.402 815.93 200.217 817.336 199.374C818.743 198.53 820.404 198.108 822.322 198.108C824.24 198.108 825.902 198.53 827.308 199.374C828.714 200.217 829.801 201.402 830.568 202.928C831.343 204.453 831.731 206.23 831.731 208.259C831.731 210.287 831.343 212.06 830.568 213.577C829.801 215.094 828.714 216.274 827.308 217.118C825.902 217.962 824.24 218.384 822.322 218.384ZM822.348 214.676C823.387 214.676 824.257 214.391 824.956 213.82C825.654 213.24 826.174 212.464 826.515 211.493C826.865 210.521 827.039 209.439 827.039 208.246C827.039 207.044 826.865 205.957 826.515 204.986C826.174 204.006 825.654 203.226 824.956 202.646C824.257 202.067 823.387 201.777 822.348 201.777C821.282 201.777 820.396 202.067 819.689 202.646C818.99 203.226 818.466 204.006 818.116 204.986C817.775 205.957 817.605 207.044 817.605 208.246C817.605 209.439 817.775 210.521 818.116 211.493C818.466 212.464 818.99 213.24 819.689 213.82C820.396 214.391 821.282 214.676 822.348 214.676ZM840.287 191.818V218H835.659V191.818H840.287ZM857.561 209.741V198.364H862.189V218H857.702V214.51H857.498C857.054 215.609 856.326 216.509 855.311 217.207C854.306 217.906 853.066 218.256 851.591 218.256C850.304 218.256 849.167 217.97 848.178 217.399C847.198 216.82 846.431 215.98 845.877 214.881C845.323 213.773 845.046 212.435 845.046 210.866V198.364H849.674V210.151C849.674 211.395 850.015 212.384 850.696 213.116C851.378 213.849 852.273 214.216 853.381 214.216C854.063 214.216 854.723 214.05 855.363 213.717C856.002 213.385 856.526 212.891 856.935 212.234C857.353 211.57 857.561 210.739 857.561 209.741ZM876.754 198.364V201.943H865.465V198.364H876.754ZM868.252 193.659H872.88V212.094C872.88 212.716 872.974 213.193 873.161 213.526C873.357 213.849 873.613 214.071 873.928 214.19C874.244 214.31 874.593 214.369 874.977 214.369C875.266 214.369 875.531 214.348 875.769 214.305C876.016 214.263 876.204 214.224 876.332 214.19L877.112 217.808C876.864 217.893 876.511 217.987 876.05 218.089C875.599 218.192 875.045 218.251 874.388 218.268C873.229 218.303 872.185 218.128 871.256 217.744C870.327 217.352 869.59 216.747 869.045 215.929C868.508 215.111 868.244 214.088 868.252 212.861V193.659ZM880.624 218V198.364H885.252V218H880.624ZM882.951 195.577C882.218 195.577 881.587 195.334 881.059 194.848C880.53 194.354 880.266 193.761 880.266 193.071C880.266 192.372 880.53 191.78 881.059 191.294C881.587 190.8 882.218 190.553 882.951 190.553C883.692 190.553 884.323 190.8 884.843 191.294C885.371 191.78 885.635 192.372 885.635 193.071C885.635 193.761 885.371 194.354 884.843 194.848C884.323 195.334 883.692 195.577 882.951 195.577ZM898.576 218.384C896.658 218.384 894.996 217.962 893.59 217.118C892.184 216.274 891.093 215.094 890.317 213.577C889.55 212.06 889.167 210.287 889.167 208.259C889.167 206.23 889.55 204.453 890.317 202.928C891.093 201.402 892.184 200.217 893.59 199.374C894.996 198.53 896.658 198.108 898.576 198.108C900.494 198.108 902.156 198.53 903.562 199.374C904.968 200.217 906.055 201.402 906.822 202.928C907.597 204.453 907.985 206.23 907.985 208.259C907.985 210.287 907.597 212.06 906.822 213.577C906.055 215.094 904.968 216.274 903.562 217.118C902.156 217.962 900.494 218.384 898.576 218.384ZM898.602 214.676C899.641 214.676 900.511 214.391 901.21 213.82C901.908 213.24 902.428 212.464 902.769 211.493C903.119 210.521 903.293 209.439 903.293 208.246C903.293 207.044 903.119 205.957 902.769 204.986C902.428 204.006 901.908 203.226 901.21 202.646C900.511 202.067 899.641 201.777 898.602 201.777C897.536 201.777 896.65 202.067 895.942 202.646C895.244 203.226 894.719 204.006 894.37 204.986C894.029 205.957 893.859 207.044 893.859 208.246C893.859 209.439 894.029 210.521 894.37 211.493C894.719 212.464 895.244 213.24 895.942 213.82C896.65 214.391 897.536 214.676 898.602 214.676ZM916.541 206.494V218H911.913V198.364H916.336V201.7H916.566C917.018 200.601 917.738 199.727 918.727 199.08C919.724 198.432 920.956 198.108 922.422 198.108C923.777 198.108 924.957 198.398 925.963 198.977C926.977 199.557 927.761 200.396 928.315 201.496C928.877 202.595 929.154 203.929 929.146 205.497V218H924.518V206.213C924.518 204.901 924.177 203.874 923.495 203.132C922.822 202.391 921.889 202.02 920.696 202.02C919.886 202.02 919.166 202.199 918.535 202.557C917.913 202.906 917.423 203.413 917.065 204.078C916.716 204.743 916.541 205.548 916.541 206.494ZM799.455 262H790.582V235.818H799.634C802.233 235.818 804.466 236.342 806.332 237.391C808.207 238.43 809.648 239.926 810.653 241.878C811.659 243.83 812.162 246.165 812.162 248.884C812.162 251.611 811.655 253.955 810.641 255.915C809.635 257.875 808.182 259.379 806.281 260.428C804.389 261.476 802.114 262 799.455 262ZM795.325 257.896H799.224C801.048 257.896 802.57 257.564 803.788 256.899C805.007 256.226 805.923 255.224 806.537 253.895C807.151 252.557 807.457 250.886 807.457 248.884C807.457 246.881 807.151 245.219 806.537 243.898C805.923 242.568 805.016 241.575 803.814 240.919C802.621 240.254 801.138 239.922 799.365 239.922H795.325V257.896ZM825.157 262.384C823.188 262.384 821.488 261.974 820.056 261.156C818.633 260.33 817.538 259.162 816.771 257.653C816.004 256.136 815.62 254.351 815.62 252.297C815.62 250.277 816.004 248.504 816.771 246.979C817.546 245.445 818.629 244.251 820.018 243.399C821.407 242.538 823.039 242.108 824.914 242.108C826.124 242.108 827.266 242.304 828.34 242.696C829.423 243.08 830.377 243.676 831.204 244.486C832.039 245.295 832.695 246.327 833.173 247.58C833.65 248.824 833.888 250.307 833.888 252.028V253.447H817.793V250.328H829.452C829.444 249.442 829.252 248.653 828.877 247.963C828.502 247.264 827.978 246.714 827.305 246.314C826.64 245.913 825.864 245.713 824.978 245.713C824.032 245.713 823.201 245.943 822.485 246.403C821.769 246.855 821.211 247.452 820.81 248.193C820.418 248.926 820.218 249.732 820.21 250.609V253.332C820.21 254.474 820.418 255.455 820.836 256.273C821.254 257.082 821.837 257.705 822.587 258.139C823.337 258.565 824.215 258.778 825.221 258.778C825.894 258.778 826.504 258.685 827.049 258.497C827.594 258.301 828.067 258.016 828.468 257.641C828.869 257.266 829.171 256.801 829.376 256.247L833.697 256.733C833.424 257.875 832.904 258.872 832.137 259.724C831.379 260.568 830.407 261.224 829.222 261.693C828.038 262.153 826.683 262.384 825.157 262.384ZM853.324 247.554L849.105 248.014C848.985 247.588 848.777 247.188 848.478 246.812C848.189 246.438 847.797 246.135 847.302 245.905C846.808 245.675 846.203 245.56 845.487 245.56C844.524 245.56 843.714 245.768 843.058 246.186C842.41 246.604 842.091 247.145 842.099 247.81C842.091 248.381 842.299 248.845 842.725 249.203C843.16 249.561 843.876 249.855 844.873 250.085L848.223 250.801C850.081 251.202 851.461 251.837 852.365 252.706C853.277 253.575 853.737 254.713 853.745 256.119C853.737 257.355 853.375 258.446 852.659 259.392C851.951 260.33 850.967 261.062 849.706 261.591C848.444 262.119 846.995 262.384 845.359 262.384C842.956 262.384 841.021 261.881 839.555 260.875C838.089 259.861 837.216 258.45 836.934 256.643L841.447 256.209C841.652 257.095 842.086 257.764 842.751 258.216C843.416 258.668 844.281 258.893 845.346 258.893C846.446 258.893 847.328 258.668 847.993 258.216C848.666 257.764 849.002 257.206 849.002 256.541C849.002 255.979 848.785 255.514 848.35 255.148C847.924 254.781 847.26 254.5 846.356 254.304L843.007 253.601C841.123 253.209 839.73 252.548 838.826 251.619C837.923 250.682 837.475 249.497 837.484 248.065C837.475 246.855 837.804 245.807 838.468 244.92C839.142 244.026 840.075 243.335 841.268 242.849C842.47 242.355 843.855 242.108 845.423 242.108C847.724 242.108 849.535 242.598 850.856 243.578C852.186 244.558 853.008 245.884 853.324 247.554ZM857.561 262V242.364H862.189V262H857.561ZM859.888 239.577C859.155 239.577 858.525 239.334 857.996 238.848C857.468 238.354 857.203 237.761 857.203 237.071C857.203 236.372 857.468 235.78 857.996 235.294C858.525 234.8 859.155 234.553 859.888 234.553C860.63 234.553 861.26 234.8 861.78 235.294C862.309 235.78 862.573 236.372 862.573 237.071C862.573 237.761 862.309 238.354 861.78 238.848C861.26 239.334 860.63 239.577 859.888 239.577ZM875.488 269.773C873.826 269.773 872.398 269.547 871.205 269.095C870.012 268.652 869.053 268.055 868.329 267.305C867.604 266.555 867.102 265.724 866.82 264.812L870.988 263.803C871.175 264.186 871.448 264.565 871.806 264.94C872.164 265.324 872.646 265.639 873.251 265.886C873.864 266.142 874.636 266.27 875.565 266.27C876.877 266.27 877.964 265.95 878.825 265.311C879.685 264.68 880.116 263.641 880.116 262.192V258.472H879.886C879.647 258.949 879.298 259.439 878.837 259.942C878.386 260.445 877.785 260.866 877.035 261.207C876.293 261.548 875.36 261.719 874.235 261.719C872.727 261.719 871.359 261.365 870.131 260.658C868.913 259.942 867.941 258.876 867.217 257.462C866.501 256.038 866.143 254.257 866.143 252.118C866.143 249.962 866.501 248.142 867.217 246.659C867.941 245.168 868.917 244.038 870.144 243.271C871.371 242.496 872.739 242.108 874.248 242.108C875.398 242.108 876.344 242.304 877.086 242.696C877.836 243.08 878.433 243.544 878.876 244.089C879.319 244.626 879.656 245.134 879.886 245.611H880.141V242.364H884.705V262.32C884.705 263.999 884.305 265.388 883.504 266.487C882.702 267.587 881.607 268.409 880.218 268.955C878.829 269.5 877.252 269.773 875.488 269.773ZM875.526 258.088C876.506 258.088 877.342 257.849 878.032 257.372C878.722 256.895 879.246 256.209 879.604 255.314C879.962 254.419 880.141 253.345 880.141 252.092C880.141 250.857 879.962 249.774 879.604 248.845C879.255 247.916 878.735 247.196 878.045 246.685C877.363 246.165 876.523 245.905 875.526 245.905C874.495 245.905 873.634 246.173 872.944 246.71C872.254 247.247 871.734 247.984 871.384 248.922C871.035 249.851 870.86 250.908 870.86 252.092C870.86 253.294 871.035 254.347 871.384 255.25C871.742 256.145 872.266 256.844 872.957 257.347C873.656 257.841 874.512 258.088 875.526 258.088ZM894.076 250.494V262H889.448V242.364H893.871V245.7H894.102C894.553 244.601 895.273 243.727 896.262 243.08C897.259 242.432 898.491 242.108 899.957 242.108C901.312 242.108 902.492 242.398 903.498 242.977C904.512 243.557 905.296 244.396 905.85 245.496C906.413 246.595 906.69 247.929 906.681 249.497V262H902.053V250.213C902.053 248.901 901.712 247.874 901.031 247.132C900.357 246.391 899.424 246.02 898.231 246.02C897.421 246.02 896.701 246.199 896.07 246.557C895.448 246.906 894.958 247.413 894.6 248.078C894.251 248.743 894.076 249.548 894.076 250.494Z" fill="#48A625"/>
</svg>
