<svg xmlns="http://www.w3.org/2000/svg" version="1.1" xmlns:xlink="http://www.w3.org/1999/xlink" xmlns:svgjs="http://svgjs.com/svgjs" width="392" height="412"><svg width="392" height="412" viewBox="0 0 392 412" fill="none" xmlns="http://www.w3.org/2000/svg">
<path d="M25.6733 236.954C25.1509 241.826 26.461 247.754 27.9661 252.385C35.5386 245.817 46.1558 243.053 51.3029 247.646C55.4226 251.322 56.4524 255.909 54.6713 259.189C52.8901 262.47 48.57 263.76 43.5241 263.167C37.3199 262.438 30.4631 260.068 27.9661 252.385C24.7065 255.213 20.995 259.064 18.5249 262.348C22.9541 268.685 30.6084 272.961 39.7002 274.498C53.0108 276.749 66.2753 274.498 69.8408 263.693C73.819 251.637 68.1747 240.173 54.6713 234.745C44.735 230.75 33.8935 232.773 25.6733 236.954Z" fill="black"></path>
<path d="M30.3939 216.178C35.2457 205.249 49.1885 194.33 57.5908 188.475C61.3603 185.849 62.9897 180.965 61.28 176.7V176.7C58.977 170.956 51.8824 169.054 47.2398 173.146C36.5315 182.584 19.9008 198.971 14.7373 213.691C10.4395 225.944 10.727 240.835 11.7812 246.796C15.7095 242.816 20.911 239.377 25.6733 236.954C25.8202 235.584 26.98 223.868 30.3939 216.178Z" fill="black"></path>
<path d="M27.9661 252.385C26.461 247.754 25.1509 241.826 25.6733 236.954C20.911 239.377 15.7095 242.816 11.7812 246.796C12.7077 252.035 15.5694 258.12 18.5249 262.348C20.995 259.064 24.7065 255.213 27.9661 252.385Z" fill="black"></path>
<path d="M20.5587 302.054C12.8407 288.967 8.83071 277.222 17.1876 264.441C17.8774 263.386 17.7056 263.437 18.5249 262.348C15.5694 258.12 12.7077 252.035 11.7812 246.796C7.92609 250.702 5.29794 254.325 3.14918 259.189C-2.79323 272.641 0.04375 293.183 8.55765 308.086C10.3393 311.205 12.2841 314.372 14.3832 317.481C16.6231 312.945 19.3284 308.775 22.4645 305.188C21.8031 304.134 21.1674 303.086 20.5587 302.054Z" fill="black"></path>
<path d="M69.8408 317.481C70.5585 322.939 68.3109 326.606 62.9985 328.958C54.7702 332.602 42.2882 327.633 34.0355 318.846C31.4094 322.795 27.9846 327.445 26.2984 332.224C37.4672 343.446 47.2085 348.959 64.5775 346.854C78.9838 345.107 89.9927 333.63 88.255 317.481C86.5173 301.333 70.8421 292.547 56.6825 291.062C42.4976 289.575 30.9498 295.483 22.4645 305.188C25.4374 309.927 30.1317 314.69 34.0355 318.846C41.5329 307.573 51.6131 305.724 59.8405 308.086C64.9522 309.554 69.3013 313.379 69.8408 317.481Z" fill="black"></path>
<path d="M22.4645 305.188C19.3284 308.775 16.6231 312.945 14.3832 317.481C17.9294 322.734 21.9156 327.821 26.2984 332.224C27.9846 327.445 31.4094 322.795 34.0355 318.846C30.1317 314.69 25.4374 309.927 22.4645 305.188Z" fill="black"></path>
<path d="M56.6966 388.96C39.8144 392.034 30.7312 379.363 25.0085 365.096C21.3389 355.948 22.342 343.439 26.2984 332.224C21.9156 327.821 17.9294 322.734 14.3832 317.481C7.05212 332.327 4.70617 354.418 8.55765 369.486C14.6234 393.217 35.6291 414.751 59.8405 411.593C75.2354 409.585 88.255 399.597 88.255 385.802C88.255 383.171 86.4891 376.917 80.3675 374.749C70.5165 371.261 67.0981 387.066 56.6966 388.96Z" fill="black"></path>
<path fill-rule="evenodd" clip-rule="evenodd" d="M196.526 90.0431C287.439 90.0431 388.241 117.23 388.241 185.796C388.241 249.875 281.362 263.187 196.398 263.187C121.552 256.871 40.9891 244.382 40.9891 189.5C40.9891 129.44 116.892 90.0431 196.526 90.0431Z" fill="black"></path>
<path d="M288.964 254.179C290.757 242.976 301.769 236.616 313.115 236.616H354.094C354.094 236.616 366.755 262.637 354.094 275.132C341.433 287.628 308.474 286.026 294.607 275.132C288.333 270.203 287.736 261.85 288.964 254.179Z" fill="black"></path>
<path d="M338.644 256.224C338.4 252.975 337.729 250.149 337.635 248.901C337.541 247.654 337.145 244.765 340.646 243.895C344.148 243.025 347.268 250.585 347.255 256.045C347.245 260.71 347.345 266.451 342.373 266.845C340.443 266.998 339.178 266.406 338.845 264.991C338.371 262.978 338.889 259.473 338.644 256.224Z" fill="#FFB8D0"></path>
<path d="M321.271 259.521C321.271 256.216 320.705 252.987 320.411 251.805C320.117 250.624 319.75 246.876 323.571 246.171C327.392 245.466 329.591 254.002 329.206 259.521C328.876 264.237 328.912 270.05 324.356 270.05C322.589 270.05 321.477 268.154 321.271 266.697C320.977 264.623 321.271 262.826 321.271 259.521Z" fill="#FFB8D0"></path>
<path d="M304.9 259.371C304.9 256.235 303.977 252.772 303.713 251.651C303.449 250.529 303.058 246.836 306.488 246.167C309.917 245.498 312.607 254.133 312.261 259.371C311.966 263.848 312.046 269.235 307.957 269.235C306.37 269.235 305.086 268.142 304.9 266.759C304.636 264.79 304.9 262.508 304.9 259.371Z" fill="#FFB8D0"></path>
<path d="M221.117 260.123C222.387 248.792 233.632 242.359 245.033 242.359H279.695C279.695 242.359 291.034 265.968 279.695 277.305C268.356 288.643 238.837 287.189 226.418 277.305C221.288 273.222 220.396 266.549 221.117 260.123Z" fill="black"></path>
<path d="M251.073 260.754C251.073 257.519 250.146 253.948 249.881 252.791C249.616 251.635 248.822 248.944 252.265 248.254C255.708 247.564 258.571 255.351 258.224 260.754C257.927 265.37 257.959 271.061 253.854 271.061C252.261 271.061 250.862 270.338 250.675 268.912C250.411 266.882 251.073 263.989 251.073 260.754Z" fill="#FFB8D0"></path>
<path d="M236.625 260.448C236.625 257.292 235.668 253.808 235.394 252.68C235.121 251.551 234.301 248.926 237.855 248.253C241.409 247.58 244.365 255.177 244.006 260.448C243.7 264.952 243.733 270.504 239.495 270.504C237.851 270.504 236.407 269.799 236.214 268.407C235.941 266.426 236.625 263.604 236.625 260.448Z" fill="#FFB8D0"></path>
<path d="M264.175 260.213C264.175 257.333 263.248 254.154 262.983 253.125C262.718 252.095 261.923 249.699 265.366 249.085C268.809 248.471 271.673 255.404 271.325 260.213C271.029 264.323 271.061 269.389 266.955 269.389C265.362 269.389 263.963 268.746 263.777 267.476C263.512 265.668 264.175 263.094 264.175 260.213Z" fill="#FFB8D0"></path>
<path d="M385.914 101.108C385.914 134.593 349.088 151.661 305.55 151.661C262.013 151.661 224.212 134.593 224.212 101.108C224.212 67.6229 262.013 37.8864 305.55 37.8864C349.088 37.8864 385.914 67.6229 385.914 101.108Z" fill="black"></path>
<path d="M268.917 9.18925C269.731 6.73418 273.056 6.38006 274.356 8.61014L297.387 48.1345C298.483 50.0146 297.271 52.4045 295.105 52.6351L257.656 56.6228C255.49 56.8535 253.814 54.7711 254.5 52.7013L268.917 9.18925Z" fill="black"></path>
<path d="M336.224 8.60736C337.536 6.37868 340.861 6.73289 341.662 9.18664L355.853 52.6752C356.528 54.7438 354.84 56.8249 352.674 56.5942L315.225 52.6053C313.059 52.3746 311.859 49.9859 312.966 48.1071L336.224 8.60736Z" fill="black"></path>
<path d="M295.733 124.437C299.56 119.96 310.565 119.96 314.393 124.437C316.756 127.2 316.756 129.989 314.393 132.753C310.565 137.23 299.56 137.23 295.733 132.753C293.37 129.989 293.37 127.2 295.733 124.437Z" fill="#13DCE7"></path>
<path d="M272.831 118.436C269.448 117.019 266.506 112.299 265.054 112.677C263.602 113.055 262.787 113.476 262.285 114.855C261.084 118.154 267.095 121.78 271.187 123.357C273.755 124.348 278.048 123.897 280.672 124.735C282.961 125.465 285.798 127.106 288.146 126.614C290.033 126.219 290.831 125.446 290.531 123.586C290.088 120.843 284.97 120.705 282.716 119.871C280.462 119.037 275.949 119.742 272.831 118.436Z" fill="#E4628E"></path>
<path d="M336.296 137.091C339.399 138.073 342.414 142.169 343.656 141.673C344.898 141.178 345.576 140.706 345.891 139.374C346.646 136.188 341.033 133.413 337.293 132.352C334.945 131.686 331.213 132.53 328.83 132.011C326.752 131.559 324.109 130.315 322.09 131.005C320.468 131.559 319.837 132.357 320.27 134.057C320.909 136.564 325.42 136.184 327.477 136.736C329.534 137.288 333.436 136.185 336.296 137.091Z" fill="#E4628E"></path>
<path d="M282.496 137.555C285.701 136.899 287.495 136.27 288.648 135.262C289.654 134.382 290.203 131.139 288.579 130.41C286.278 129.377 284.847 131.629 281.064 132.547C278.689 133.123 275.955 133.512 273.678 135.048C271.938 136.222 266.587 140.819 266.608 142.315C266.629 143.811 267.427 145.602 269.13 145.717C270.834 145.833 271.792 142.625 273.775 141.794C275.757 140.962 279.542 138.159 282.496 137.555Z" fill="#E4628E"></path>
<path d="M327.704 117.252C324.491 118.639 320.59 120.427 320.051 121.775L320.048 121.782C319.511 123.126 319.208 123.883 320.45 125.001C323.156 127.439 326.9 124.208 330.669 122.427C333.036 121.309 336.702 118.725 338.972 117.45C340.951 116.338 343.891 115.584 344.865 113.495C345.647 111.817 345.602 110.581 343.839 109.38C341.24 107.607 338.088 111.237 336.041 112.245C333.994 113.253 330.665 115.975 327.704 117.252Z" fill="#E4628E"></path>
<path d="M262.362 77.8974C255.249 77.9196 247.074 81.1299 245.457 85.73C243.84 90.3301 248.284 89.5379 250.342 88.1703C252.4 86.8027 256.341 83.8406 261.32 83.8582C266.245 83.8755 271.916 88.8382 273.827 89.5841C275.738 90.33 279.56 89.3665 278.678 85.73C277.796 82.0935 269.525 77.8751 262.362 77.8974Z" fill="#FFB8D0"></path>
<ellipse cx="257.518" cy="95.6503" rx="7.18383" ry="7.1271" fill="#E9F64A"></ellipse>
<path d="M352.487 77.8974C345.375 77.9196 337.2 81.1299 335.583 85.73C333.966 90.3301 338.376 90.2058 340.434 88.8382C342.492 87.4706 347.509 84.5935 352.487 84.6111C357.412 84.6284 362.041 88.8382 363.952 89.5841C365.863 90.33 369.685 89.3665 368.803 85.73C367.921 82.0935 359.65 77.8751 352.487 77.8974Z" fill="#FFB8D0"></path>
<ellipse cx="348.426" cy="95.6503" rx="7.18383" ry="7.1271" fill="#E9F64A"></ellipse>
<path d="M212.003 108.148C209.121 93.161 220.534 91.582 223.583 101.832C226.632 112.082 229.413 117.096 232.53 121.833C237.798 129.836 247.794 143.939 257.268 148.676C268.008 154.046 272.905 156.237 283.585 157.623C302.724 160.108 314.609 157.828 332.931 152.833C342.671 150.178 352.508 144.29 357.751 140.865C362.994 137.44 365.241 148.368 362.245 151.304C359.249 154.24 355.658 157.732 341.273 163.136C304.112 177.098 278.217 170.296 272.532 169.203C258.847 166.571 238.906 155.552 228.846 141.833C223.056 133.938 214.886 123.135 212.003 108.148Z" fill="#2387E0"></path>
</svg><style>@media (prefers-color-scheme: light) { :root { filter: none; } }
</style></svg>