<svg xmlns="http://www.w3.org/2000/svg" version="1.1" xmlns:xlink="http://www.w3.org/1999/xlink" xmlns:svgjs="http://svgjs.com/svgjs" width="162" height="174"><svg width="162" height="174" viewBox="0 0 162 174" fill="none" xmlns="http://www.w3.org/2000/svg">
<path d="M162 103.57C162 138.298 125.106 156 81.4884 156C37.8707 156 0 138.298 0 103.57C0 68.841 37.8707 38 81.4884 38C125.106 38 162 68.841 162 103.57Z" fill="black"></path>
<path d="M44.9173 9.18925C45.7307 6.73418 49.0563 6.38006 50.3558 8.61014L73.3874 48.1345C74.4829 50.0146 73.2709 52.4045 71.105 52.6351L33.6562 56.6228C31.4903 56.8535 29.8144 54.7711 30.5001 52.7013L44.9173 9.18925Z" fill="black"></path>
<path d="M112.224 8.60736C113.536 6.37868 116.861 6.73289 117.662 9.18664L131.853 52.6752C132.528 54.7438 130.84 56.8249 128.674 56.5942L91.2251 52.6053C89.0592 52.3746 87.8594 49.9859 88.9657 48.1071L112.224 8.60736Z" fill="black"></path>
<path d="M71.7327 124.437C75.5605 119.96 86.5652 119.96 90.393 124.437C92.7559 127.2 92.7559 129.989 90.393 132.753C86.5652 137.23 75.5605 137.23 71.7327 132.753C69.3699 129.989 69.3699 127.2 71.7327 124.437Z" fill="#13DCE7"></path>
<path d="M48.8308 118.436C45.4479 117.019 42.5062 112.299 41.054 112.677C39.6019 113.055 38.7869 113.476 38.2849 114.855C37.0843 118.154 43.0949 121.78 47.1867 123.357C49.7555 124.348 54.0478 123.897 56.6724 124.735C58.9607 125.465 61.7984 127.106 64.1462 126.614C66.0328 126.219 66.8307 125.446 66.5308 123.586C66.0883 120.843 60.9699 120.705 58.7159 119.871C56.4618 119.037 51.9492 119.742 48.8308 118.436Z" fill="#E4628E"></path>
<path d="M112.296 137.091C115.398 138.073 118.414 142.169 119.656 141.673C120.898 141.178 121.576 140.706 121.891 139.374C122.646 136.188 117.033 133.413 113.293 132.352C110.945 131.686 107.213 132.53 104.83 132.011C102.752 131.559 100.109 130.315 98.0897 131.005C96.4674 131.559 95.8365 132.357 96.2696 134.057C96.9085 136.564 101.42 136.184 103.477 136.736C105.534 137.288 109.436 136.185 112.296 137.091Z" fill="#E4628E"></path>
<path d="M58.4961 137.555C61.7012 136.899 63.495 136.27 64.648 135.262C65.6544 134.382 66.203 131.139 64.5787 130.41C62.2777 129.377 60.8471 131.629 57.0641 132.547C54.6892 133.123 51.9548 133.512 49.6783 135.048C47.9381 136.222 42.5866 140.819 42.6079 142.315C42.6293 143.811 43.4268 145.602 45.1303 145.717C46.8338 145.833 47.7923 142.625 49.7745 141.794C51.7568 140.962 55.5417 138.159 58.4961 137.555Z" fill="#E4628E"></path>
<path d="M103.704 117.252C100.491 118.639 96.59 120.427 96.0509 121.775L96.0481 121.782C95.5107 123.126 95.208 123.883 96.4497 125.001C99.156 127.439 102.9 124.208 106.669 122.427C109.036 121.309 112.702 118.725 114.972 117.45C116.951 116.338 119.891 115.584 120.865 113.495C121.647 111.817 121.602 110.581 119.839 109.38C117.24 107.607 114.088 111.237 112.041 112.245C109.994 113.253 106.665 115.975 103.704 117.252Z" fill="#E4628E"></path>
<path d="M38.3616 77.8974C31.2495 77.9196 23.0738 81.1299 21.4568 85.73C19.8398 90.3301 24.2836 89.5379 26.3415 88.1703C28.3995 86.8027 32.341 83.8406 37.3198 83.8582C42.245 83.8755 47.9164 88.8382 49.8274 89.5841C51.7384 90.33 55.5603 89.3665 54.6783 85.73C53.7964 82.0935 45.5247 77.8751 38.3616 77.8974Z" fill="#FFB8D0"></path>
<ellipse cx="33.5182" cy="95.6503" rx="7.18383" ry="7.1271" fill="#E9F64A"></ellipse>
<path d="M128.487 77.8974C121.375 77.9196 113.2 81.1299 111.583 85.73C109.966 90.3301 114.376 90.2058 116.434 88.8382C118.492 87.4706 123.509 84.5935 128.487 84.6111C133.412 84.6284 138.041 88.8382 139.952 89.5841C141.863 90.33 145.685 89.3665 144.803 85.73C143.921 82.0935 135.65 77.8751 128.487 77.8974Z" fill="#FFB8D0"></path>
<ellipse cx="124.426" cy="95.6503" rx="7.18383" ry="7.1271" fill="#E9F64A"></ellipse>
<path d="M9.19901 137.002C6.66428 131.876 12.6063 126.553 16.2646 129.842C19.9229 133.131 28.3077 141.26 40.0458 147.29C47.3036 151.018 51.6665 152.295 60.2731 153.977C69.0842 155.7 73.6337 156.296 87.5683 154.961C104.195 153.369 109.795 151.657 124.453 146.391C132.245 143.591 138.517 138.729 143.859 136.177C149.201 133.624 152.75 141.311 149.217 144.891C145.684 148.47 136.711 153.128 129.521 155.616C111.839 161.736 102.937 164.776 82.0243 165.789C66.5574 166.538 49.1033 163.698 35.0064 157.525C26.7948 153.929 11.7337 142.127 9.19901 137.002Z" fill="#2387E0"></path>
</svg><style>@media (prefers-color-scheme: light) { :root { filter: none; } }
</style></svg>