<svg width="252" height="203" viewBox="0 0 252 203" fill="none" xmlns="http://www.w3.org/2000/svg">
<rect width="252" height="203" rx="15" fill="#83DB62"/>
<rect x="21" y="61" width="210" height="30" rx="15" fill="white"/>
<path d="M149.151 81.9318V79.0256L156.438 67.5455H158.943V71.5682H157.46L152.866 78.8381V78.9744H163.222V81.9318H149.151ZM157.528 85V81.0455L157.597 79.7585V67.5455H161.057V85H157.528ZM173.317 66.7273L167.692 87.625H164.564L170.189 66.7273H173.317ZM175.722 85L182.958 70.6818V70.5625H174.529V67.5455H186.776V70.6051L179.532 85H175.722Z" fill="#118E11"/>
<rect x="21" y="61" width="120" height="30" rx="15" fill="#118E11"/>
<path d="M22.517 48V30.5455H29.4034C30.7273 30.5455 31.8551 30.7983 32.7869 31.304C33.7188 31.804 34.429 32.5 34.9176 33.392C35.4119 34.2784 35.6591 35.3011 35.6591 36.4602C35.6591 37.6193 35.4091 38.642 34.9091 39.5284C34.4091 40.4148 33.6847 41.1051 32.7358 41.5994C31.7926 42.0937 30.6506 42.3409 29.3097 42.3409H24.9205V39.3835H28.7131C29.4233 39.3835 30.0085 39.2614 30.4688 39.017C30.9347 38.767 31.2813 38.4233 31.5085 37.9858C31.7415 37.5426 31.858 37.0341 31.858 36.4602C31.858 35.8807 31.7415 35.375 31.5085 34.9432C31.2813 34.5057 30.9347 34.1676 30.4688 33.929C30.0028 33.6847 29.4119 33.5625 28.696 33.5625H26.2074V48H22.517ZM37.9879 48V34.9091H41.5078V37.1932H41.6442C41.8828 36.3807 42.2834 35.767 42.8459 35.3523C43.4084 34.9318 44.0561 34.7216 44.7891 34.7216C44.9709 34.7216 45.1669 34.733 45.3771 34.7557C45.5874 34.7784 45.772 34.8097 45.9311 34.8494V38.071C45.7607 38.0199 45.5249 37.9744 45.2237 37.9347C44.9226 37.8949 44.647 37.875 44.397 37.875C43.8629 37.875 43.3857 37.9915 42.9652 38.2244C42.5504 38.4517 42.2209 38.7699 41.9766 39.179C41.7379 39.5881 41.6186 40.0597 41.6186 40.5938V48H37.9879ZM53.1136 48.2557C51.7898 48.2557 50.6449 47.9744 49.679 47.4119C48.7188 46.8437 47.9773 46.054 47.4545 45.0426C46.9318 44.0256 46.6705 42.8466 46.6705 41.5057C46.6705 40.1534 46.9318 38.9716 47.4545 37.9602C47.9773 36.9432 48.7188 36.1534 49.679 35.5909C50.6449 35.0227 51.7898 34.7386 53.1136 34.7386C54.4375 34.7386 55.5795 35.0227 56.5398 35.5909C57.5057 36.1534 58.25 36.9432 58.7727 37.9602C59.2955 38.9716 59.5568 40.1534 59.5568 41.5057C59.5568 42.8466 59.2955 44.0256 58.7727 45.0426C58.25 46.054 57.5057 46.8437 56.5398 47.4119C55.5795 47.9744 54.4375 48.2557 53.1136 48.2557ZM53.1307 45.4432C53.733 45.4432 54.2358 45.2727 54.6392 44.9318C55.0426 44.5852 55.3466 44.1136 55.5511 43.517C55.7614 42.9205 55.8665 42.2415 55.8665 41.4801C55.8665 40.7188 55.7614 40.0398 55.5511 39.4432C55.3466 38.8466 55.0426 38.375 54.6392 38.0284C54.2358 37.6818 53.733 37.5085 53.1307 37.5085C52.5227 37.5085 52.0114 37.6818 51.5966 38.0284C51.1875 38.375 50.8778 38.8466 50.6676 39.4432C50.4631 40.0398 50.3608 40.7188 50.3608 41.4801C50.3608 42.2415 50.4631 42.9205 50.6676 43.517C50.8778 44.1136 51.1875 44.5852 51.5966 44.9318C52.0114 45.2727 52.5227 45.4432 53.1307 45.4432ZM67.8153 53.1818C66.6392 53.1818 65.6307 53.0199 64.7898 52.696C63.9545 52.3778 63.2898 51.9432 62.7955 51.392C62.3011 50.8409 61.9801 50.2216 61.8324 49.5341L65.1903 49.0824C65.2926 49.3438 65.4545 49.5881 65.6761 49.8153C65.8977 50.0426 66.1903 50.2244 66.554 50.3608C66.9233 50.5028 67.3722 50.5739 67.9006 50.5739C68.6903 50.5739 69.3409 50.3807 69.8523 49.9943C70.3693 49.6136 70.6278 48.9744 70.6278 48.0767V45.6818H70.4744C70.3153 46.0455 70.0767 46.3892 69.7585 46.7131C69.4403 47.0369 69.0312 47.3011 68.5312 47.5057C68.0312 47.7102 67.4347 47.8125 66.7415 47.8125C65.7585 47.8125 64.8636 47.5852 64.0568 47.1307C63.2557 46.6705 62.6165 45.9687 62.1392 45.0256C61.6676 44.0767 61.4318 42.8778 61.4318 41.429C61.4318 39.946 61.6733 38.7074 62.1562 37.7131C62.6392 36.7187 63.2813 35.9744 64.0824 35.4801C64.8892 34.9858 65.7727 34.7386 66.733 34.7386C67.4659 34.7386 68.0795 34.8636 68.5739 35.1136C69.0682 35.358 69.4659 35.6648 69.767 36.0341C70.0739 36.3977 70.3097 36.7557 70.4744 37.108H70.6108V34.9091H74.2159V48.1278C74.2159 49.2415 73.9432 50.1733 73.3977 50.9233C72.8523 51.6733 72.0966 52.2358 71.1307 52.6108C70.1705 52.9915 69.0653 53.1818 67.8153 53.1818ZM67.892 45.0852C68.4773 45.0852 68.9716 44.9403 69.375 44.6506C69.7841 44.3551 70.0966 43.9347 70.3125 43.3892C70.5341 42.8381 70.6449 42.179 70.6449 41.4119C70.6449 40.6449 70.5369 39.9801 70.321 39.4176C70.1051 38.8494 69.7926 38.4091 69.3835 38.0966C68.9744 37.7841 68.4773 37.6278 67.892 37.6278C67.2955 37.6278 66.7926 37.7898 66.3835 38.1136C65.9744 38.4318 65.6648 38.875 65.4545 39.4432C65.2443 40.0114 65.1392 40.6676 65.1392 41.4119C65.1392 42.1676 65.2443 42.821 65.4545 43.3722C65.6705 43.9176 65.9801 44.3409 66.3835 44.642C66.7926 44.9375 67.2955 45.0852 67.892 45.0852ZM77.1051 48V34.9091H80.625V37.1932H80.7614C81 36.3807 81.4006 35.767 81.9631 35.3523C82.5256 34.9318 83.1733 34.7216 83.9062 34.7216C84.0881 34.7216 84.2841 34.733 84.4943 34.7557C84.7045 34.7784 84.8892 34.8097 85.0483 34.8494V38.071C84.8778 38.0199 84.642 37.9744 84.3409 37.9347C84.0398 37.8949 83.7642 37.875 83.5142 37.875C82.9801 37.875 82.5028 37.9915 82.0824 38.2244C81.6676 38.4517 81.3381 38.7699 81.0938 39.179C80.8551 39.5881 80.7358 40.0597 80.7358 40.5938V48H77.1051ZM92.282 48.2557C90.9354 48.2557 89.7763 47.983 88.8047 47.4375C87.8388 46.8864 87.0945 46.108 86.5717 45.1023C86.049 44.0909 85.7876 42.8949 85.7876 41.5142C85.7876 40.1676 86.049 38.9858 86.5717 37.9688C87.0945 36.9517 87.8303 36.1591 88.7791 35.5909C89.7337 35.0227 90.853 34.7386 92.1371 34.7386C93.0007 34.7386 93.8047 34.8778 94.549 35.1562C95.299 35.429 95.9524 35.8409 96.5092 36.392C97.0717 36.9432 97.5092 37.6364 97.8217 38.4716C98.1342 39.3011 98.2905 40.2727 98.2905 41.3864V42.3835H87.2365V40.1335H94.8729C94.8729 39.6108 94.7592 39.1477 94.532 38.7443C94.3047 38.3409 93.9893 38.0256 93.5859 37.7983C93.1882 37.5653 92.7251 37.4489 92.1967 37.4489C91.6456 37.4489 91.157 37.5767 90.7308 37.8324C90.3104 38.0824 89.9808 38.4205 89.7422 38.8466C89.5036 39.267 89.3814 39.7358 89.3757 40.2528V42.392C89.3757 43.0398 89.495 43.5994 89.7337 44.071C89.978 44.5426 90.3217 44.9062 90.7649 45.1619C91.2081 45.4176 91.7337 45.5455 92.3416 45.5455C92.745 45.5455 93.1143 45.4886 93.4496 45.375C93.7848 45.2614 94.0717 45.0909 94.3104 44.8636C94.549 44.6364 94.7308 44.358 94.8558 44.0284L98.2138 44.25C98.0433 45.0568 97.6939 45.7614 97.1655 46.3636C96.6428 46.9602 95.9666 47.4261 95.1371 47.7614C94.3132 48.0909 93.3615 48.2557 92.282 48.2557ZM111.552 38.642L108.228 38.8466C108.171 38.5625 108.049 38.3068 107.862 38.0795C107.674 37.8466 107.427 37.6619 107.12 37.5256C106.819 37.3835 106.458 37.3125 106.038 37.3125C105.475 37.3125 105.001 37.4318 104.614 37.6705C104.228 37.9034 104.035 38.2159 104.035 38.608C104.035 38.9205 104.16 39.1847 104.41 39.4006C104.66 39.6165 105.089 39.7898 105.697 39.9205L108.066 40.3977C109.339 40.6591 110.288 41.0795 110.913 41.6591C111.538 42.2386 111.85 43 111.85 43.9432C111.85 44.8011 111.597 45.554 111.092 46.2017C110.592 46.8494 109.904 47.3551 109.029 47.7188C108.16 48.0767 107.157 48.2557 106.021 48.2557C104.288 48.2557 102.907 47.8949 101.879 47.1733C100.856 46.446 100.256 45.4574 100.08 44.2074L103.651 44.0199C103.759 44.5483 104.021 44.9517 104.435 45.2301C104.85 45.5028 105.381 45.6392 106.029 45.6392C106.665 45.6392 107.177 45.517 107.563 45.2727C107.955 45.0227 108.154 44.7017 108.16 44.3097C108.154 43.9801 108.015 43.7102 107.742 43.5C107.469 43.2841 107.049 43.1193 106.481 43.0057L104.214 42.554C102.935 42.2983 101.984 41.8551 101.359 41.2244C100.739 40.5937 100.43 39.7898 100.43 38.8125C100.43 37.9716 100.657 37.2472 101.112 36.6392C101.572 36.0312 102.217 35.5625 103.046 35.233C103.881 34.9034 104.859 34.7386 105.978 34.7386C107.631 34.7386 108.933 35.0881 109.881 35.7869C110.836 36.4858 111.393 37.4375 111.552 38.642ZM125.028 38.642L121.705 38.8466C121.648 38.5625 121.526 38.3068 121.338 38.0795C121.151 37.8466 120.903 37.6619 120.597 37.5256C120.295 37.3835 119.935 37.3125 119.514 37.3125C118.952 37.3125 118.477 37.4318 118.091 37.6705C117.705 37.9034 117.511 38.2159 117.511 38.608C117.511 38.9205 117.636 39.1847 117.886 39.4006C118.136 39.6165 118.565 39.7898 119.173 39.9205L121.543 40.3977C122.815 40.6591 123.764 41.0795 124.389 41.6591C125.014 42.2386 125.327 43 125.327 43.9432C125.327 44.8011 125.074 45.554 124.568 46.2017C124.068 46.8494 123.381 47.3551 122.506 47.7188C121.636 48.0767 120.634 48.2557 119.497 48.2557C117.764 48.2557 116.384 47.8949 115.355 47.1733C114.332 46.446 113.733 45.4574 113.557 44.2074L117.128 44.0199C117.236 44.5483 117.497 44.9517 117.912 45.2301C118.327 45.5028 118.858 45.6392 119.506 45.6392C120.142 45.6392 120.653 45.517 121.04 45.2727C121.432 45.0227 121.631 44.7017 121.636 44.3097C121.631 43.9801 121.491 43.7102 121.219 43.5C120.946 43.2841 120.526 43.1193 119.957 43.0057L117.69 42.554C116.412 42.2983 115.46 41.8551 114.835 41.2244C114.216 40.5937 113.906 39.7898 113.906 38.8125C113.906 37.9716 114.134 37.2472 114.588 36.6392C115.048 36.0312 115.693 35.5625 116.523 35.233C117.358 34.9034 118.335 34.7386 119.455 34.7386C121.108 34.7386 122.409 35.0881 123.358 35.7869C124.313 36.4858 124.869 37.4375 125.028 38.642Z" fill="white"/>
<path d="M69.3239 165.71C69.2784 165.252 69.0833 164.896 68.7386 164.642C68.3939 164.388 67.9261 164.261 67.3352 164.261C66.9337 164.261 66.5947 164.318 66.3182 164.432C66.0417 164.542 65.8295 164.695 65.6818 164.892C65.5379 165.089 65.4659 165.312 65.4659 165.562C65.4583 165.771 65.5019 165.953 65.5966 166.108C65.6951 166.263 65.8295 166.398 66 166.511C66.1705 166.621 66.3674 166.718 66.5909 166.801C66.8144 166.881 67.053 166.949 67.3068 167.006L68.3523 167.256C68.8598 167.369 69.3258 167.521 69.75 167.71C70.1742 167.9 70.5417 168.133 70.8523 168.409C71.1629 168.686 71.4034 169.011 71.5739 169.386C71.7481 169.761 71.8371 170.191 71.8409 170.676C71.8371 171.388 71.6553 172.006 71.2955 172.528C70.9394 173.047 70.4242 173.451 69.75 173.739C69.0795 174.023 68.2708 174.165 67.3239 174.165C66.3845 174.165 65.5663 174.021 64.8693 173.733C64.1761 173.445 63.6345 173.019 63.2443 172.455C62.858 171.886 62.6553 171.184 62.6364 170.347H65.017C65.0436 170.737 65.1553 171.062 65.3523 171.324C65.553 171.581 65.8201 171.777 66.1534 171.909C66.4905 172.038 66.8712 172.102 67.2955 172.102C67.7121 172.102 68.0739 172.042 68.3807 171.92C68.6913 171.799 68.9318 171.631 69.1023 171.415C69.2727 171.199 69.358 170.951 69.358 170.67C69.358 170.409 69.2803 170.189 69.125 170.011C68.9735 169.833 68.75 169.682 68.4545 169.557C68.1629 169.432 67.8049 169.318 67.3807 169.216L66.1136 168.898C65.1326 168.659 64.358 168.286 63.7898 167.778C63.2216 167.271 62.9394 166.587 62.9432 165.727C62.9394 165.023 63.1269 164.407 63.5057 163.881C63.8883 163.354 64.4129 162.943 65.0795 162.648C65.7462 162.352 66.5038 162.205 67.3523 162.205C68.2159 162.205 68.9697 162.352 69.6136 162.648C70.2614 162.943 70.7652 163.354 71.125 163.881C71.4848 164.407 71.6705 165.017 71.6818 165.71H69.3239ZM75.9389 174.165C75.3821 174.165 74.8859 174.068 74.4503 173.875C74.0147 173.678 73.67 173.388 73.4162 173.006C73.1662 172.619 73.0412 172.138 73.0412 171.562C73.0412 171.078 73.1302 170.67 73.3082 170.341C73.4863 170.011 73.7287 169.746 74.0355 169.545C74.3423 169.345 74.6908 169.193 75.081 169.091C75.4749 168.989 75.8878 168.917 76.3196 168.875C76.8272 168.822 77.2363 168.773 77.5469 168.727C77.8575 168.678 78.0829 168.606 78.223 168.511C78.3632 168.417 78.4332 168.277 78.4332 168.091V168.057C78.4332 167.697 78.3196 167.419 78.0923 167.222C77.8688 167.025 77.5507 166.926 77.1378 166.926C76.7022 166.926 76.3556 167.023 76.098 167.216C75.8404 167.405 75.67 167.644 75.5866 167.932L73.348 167.75C73.4616 167.22 73.6851 166.761 74.0185 166.375C74.3518 165.985 74.7817 165.686 75.3082 165.477C75.8385 165.265 76.4522 165.159 77.1491 165.159C77.634 165.159 78.098 165.216 78.5412 165.33C78.9882 165.443 79.384 165.619 79.7287 165.858C80.0772 166.097 80.3518 166.403 80.5526 166.778C80.7533 167.15 80.8537 167.595 80.8537 168.114V174H78.5582V172.79H78.4901C78.3499 173.062 78.1624 173.303 77.9276 173.511C77.6927 173.716 77.4105 173.877 77.081 173.994C76.7514 174.108 76.3707 174.165 75.9389 174.165ZM76.6321 172.494C76.9882 172.494 77.3026 172.424 77.5753 172.284C77.848 172.14 78.062 171.947 78.2173 171.705C78.3726 171.462 78.4503 171.187 78.4503 170.881V169.955C78.3745 170.004 78.2704 170.049 78.1378 170.091C78.009 170.129 77.8632 170.165 77.7003 170.199C77.5374 170.229 77.3745 170.258 77.2116 170.284C77.0488 170.307 76.901 170.328 76.7685 170.347C76.4844 170.388 76.2363 170.455 76.0241 170.545C75.812 170.636 75.6473 170.759 75.5298 170.915C75.4124 171.066 75.3537 171.256 75.3537 171.483C75.3537 171.812 75.473 172.064 75.7116 172.239C75.9541 172.409 76.2609 172.494 76.6321 172.494ZM83.9134 177.273C83.6065 177.273 83.3187 177.248 83.0497 177.199C82.7846 177.153 82.5649 177.095 82.3906 177.023L82.9361 175.216C83.2202 175.303 83.4759 175.35 83.7031 175.358C83.9342 175.366 84.133 175.313 84.2997 175.199C84.4702 175.085 84.6084 174.892 84.7145 174.619L84.8565 174.25L81.7259 165.273H84.2713L86.0781 171.682H86.169L87.9929 165.273H90.5554L87.1634 174.943C87.0005 175.413 86.7789 175.822 86.4986 176.17C86.2221 176.523 85.8717 176.794 85.4474 176.983C85.0232 177.176 84.5118 177.273 83.9134 177.273ZM95.4119 166V164.773C95.4119 164.424 95.4801 164.068 95.6165 163.705C95.7528 163.341 95.9328 162.998 96.1562 162.676C96.3797 162.354 96.6222 162.085 96.8835 161.869L97.9517 162.5C97.7396 162.833 97.5653 163.182 97.429 163.545C97.2964 163.909 97.2301 164.314 97.2301 164.761V166H95.4119ZM98.2812 166V164.773C98.2812 164.424 98.3494 164.068 98.4858 163.705C98.6222 163.341 98.8021 162.998 99.0256 162.676C99.2491 162.354 99.4915 162.085 99.7528 161.869L100.821 162.5C100.609 162.833 100.435 163.182 100.298 163.545C100.166 163.909 100.099 164.314 100.099 164.761V166H98.2812ZM102.293 174V162.364H104.753V167.165H109.747V162.364H112.202V174H109.747V169.193H104.753V174H102.293ZM118.162 174.17C117.264 174.17 116.491 173.989 115.844 173.625C115.2 173.258 114.704 172.739 114.355 172.068C114.007 171.394 113.832 170.597 113.832 169.676C113.832 168.778 114.007 167.991 114.355 167.312C114.704 166.634 115.194 166.106 115.827 165.727C116.463 165.348 117.209 165.159 118.065 165.159C118.641 165.159 119.177 165.252 119.673 165.438C120.173 165.619 120.609 165.894 120.98 166.261C121.355 166.629 121.647 167.091 121.855 167.648C122.063 168.201 122.168 168.848 122.168 169.591V170.256H114.798V168.756H119.889C119.889 168.407 119.813 168.098 119.662 167.83C119.51 167.561 119.3 167.35 119.031 167.199C118.766 167.044 118.457 166.966 118.105 166.966C117.738 166.966 117.412 167.051 117.128 167.222C116.848 167.388 116.628 167.614 116.469 167.898C116.31 168.178 116.228 168.491 116.224 168.835V170.261C116.224 170.693 116.304 171.066 116.463 171.381C116.626 171.695 116.855 171.938 117.151 172.108C117.446 172.278 117.796 172.364 118.202 172.364C118.471 172.364 118.717 172.326 118.94 172.25C119.164 172.174 119.355 172.061 119.514 171.909C119.673 171.758 119.795 171.572 119.878 171.352L122.116 171.5C122.003 172.038 121.77 172.508 121.418 172.909C121.069 173.307 120.618 173.617 120.065 173.841C119.516 174.061 118.882 174.17 118.162 174.17ZM125.007 177.273C124.7 177.273 124.412 177.248 124.143 177.199C123.878 177.153 123.659 177.095 123.484 177.023L124.03 175.216C124.314 175.303 124.57 175.35 124.797 175.358C125.028 175.366 125.227 175.313 125.393 175.199C125.564 175.085 125.702 174.892 125.808 174.619L125.95 174.25L122.82 165.273H125.365L127.172 171.682H127.263L129.087 165.273H131.649L128.257 174.943C128.094 175.413 127.873 175.822 127.592 176.17C127.316 176.523 126.965 176.794 126.541 176.983C126.117 177.176 125.606 177.273 125.007 177.273ZM134.972 172.409L134.909 173.034C134.86 173.534 134.765 174.032 134.625 174.528C134.489 175.028 134.345 175.481 134.193 175.886C134.045 176.292 133.926 176.61 133.835 176.841H132.267C132.324 176.617 132.402 176.305 132.5 175.903C132.598 175.506 132.691 175.059 132.778 174.562C132.866 174.066 132.92 173.561 132.943 173.045L132.972 172.409H134.972ZM140.386 174V162.364H145.045C145.902 162.364 146.616 162.491 147.188 162.744C147.759 162.998 148.189 163.35 148.477 163.801C148.765 164.248 148.909 164.763 148.909 165.347C148.909 165.801 148.818 166.201 148.636 166.545C148.455 166.886 148.205 167.167 147.886 167.386C147.572 167.602 147.212 167.756 146.807 167.847V167.96C147.25 167.979 147.665 168.104 148.051 168.335C148.441 168.566 148.758 168.89 149 169.307C149.242 169.72 149.364 170.212 149.364 170.784C149.364 171.402 149.21 171.953 148.903 172.438C148.6 172.919 148.152 173.299 147.557 173.58C146.962 173.86 146.229 174 145.358 174H140.386ZM142.847 171.989H144.852C145.538 171.989 146.038 171.858 146.352 171.597C146.667 171.331 146.824 170.979 146.824 170.54C146.824 170.218 146.746 169.934 146.591 169.688C146.436 169.441 146.214 169.248 145.926 169.108C145.642 168.968 145.303 168.898 144.909 168.898H142.847V171.989ZM142.847 167.233H144.67C145.008 167.233 145.307 167.174 145.568 167.057C145.833 166.936 146.042 166.765 146.193 166.545C146.348 166.326 146.426 166.062 146.426 165.756C146.426 165.335 146.277 164.996 145.977 164.739C145.682 164.481 145.261 164.352 144.716 164.352H142.847V167.233ZM152.413 177.273C152.107 177.273 151.819 177.248 151.55 177.199C151.285 177.153 151.065 177.095 150.891 177.023L151.436 175.216C151.72 175.303 151.976 175.35 152.203 175.358C152.434 175.366 152.633 175.313 152.8 175.199C152.97 175.085 153.108 174.892 153.214 174.619L153.357 174.25L150.226 165.273H152.771L154.578 171.682H154.669L156.493 165.273H159.055L155.663 174.943C155.5 175.413 155.279 175.822 154.999 176.17C154.722 176.523 154.372 176.794 153.947 176.983C153.523 177.176 153.012 177.273 152.413 177.273ZM160.339 162.364H163.374L166.578 170.182H166.714L169.919 162.364H172.953V174H170.567V166.426H170.47L167.459 173.943H165.834L162.822 166.398H162.726V174H160.339V162.364ZM176.429 177.273C176.122 177.273 175.834 177.248 175.565 177.199C175.3 177.153 175.08 177.095 174.906 177.023L175.452 175.216C175.736 175.303 175.991 175.35 176.219 175.358C176.45 175.366 176.649 175.313 176.815 175.199C176.986 175.085 177.124 174.892 177.23 174.619L177.372 174.25L174.241 165.273H176.787L178.594 171.682H178.685L180.509 165.273H183.071L179.679 174.943C179.516 175.413 179.295 175.822 179.014 176.17C178.738 176.523 178.387 176.794 177.963 176.983C177.539 177.176 177.027 177.273 176.429 177.273ZM190.668 165.71C190.622 165.252 190.427 164.896 190.082 164.642C189.738 164.388 189.27 164.261 188.679 164.261C188.277 164.261 187.938 164.318 187.662 164.432C187.385 164.542 187.173 164.695 187.026 164.892C186.882 165.089 186.81 165.312 186.81 165.562C186.802 165.771 186.846 165.953 186.94 166.108C187.039 166.263 187.173 166.398 187.344 166.511C187.514 166.621 187.711 166.718 187.935 166.801C188.158 166.881 188.397 166.949 188.651 167.006L189.696 167.256C190.204 167.369 190.67 167.521 191.094 167.71C191.518 167.9 191.885 168.133 192.196 168.409C192.507 168.686 192.747 169.011 192.918 169.386C193.092 169.761 193.181 170.191 193.185 170.676C193.181 171.388 192.999 172.006 192.639 172.528C192.283 173.047 191.768 173.451 191.094 173.739C190.423 174.023 189.615 174.165 188.668 174.165C187.728 174.165 186.91 174.021 186.213 173.733C185.52 173.445 184.978 173.019 184.588 172.455C184.202 171.886 183.999 171.184 183.98 170.347H186.361C186.387 170.737 186.499 171.062 186.696 171.324C186.897 171.581 187.164 171.777 187.497 171.909C187.834 172.038 188.215 172.102 188.639 172.102C189.056 172.102 189.418 172.042 189.724 171.92C190.035 171.799 190.276 171.631 190.446 171.415C190.616 171.199 190.702 170.951 190.702 170.67C190.702 170.409 190.624 170.189 190.469 170.011C190.317 169.833 190.094 169.682 189.798 169.557C189.507 169.432 189.149 169.318 188.724 169.216L187.457 168.898C186.476 168.659 185.702 168.286 185.134 167.778C184.565 167.271 184.283 166.587 184.287 165.727C184.283 165.023 184.471 164.407 184.849 163.881C185.232 163.354 185.757 162.943 186.423 162.648C187.09 162.352 187.848 162.205 188.696 162.205C189.56 162.205 190.313 162.352 190.957 162.648C191.605 162.943 192.109 163.354 192.469 163.881C192.829 164.407 193.014 165.017 193.026 165.71H190.668ZM194.794 174V165.273H197.214V174H194.794ZM196.01 164.148C195.65 164.148 195.341 164.028 195.084 163.79C194.83 163.547 194.703 163.258 194.703 162.92C194.703 162.587 194.83 162.301 195.084 162.062C195.341 161.82 195.65 161.699 196.01 161.699C196.37 161.699 196.677 161.82 196.93 162.062C197.188 162.301 197.317 162.587 197.317 162.92C197.317 163.258 197.188 163.547 196.93 163.79C196.677 164.028 196.37 164.148 196.01 164.148ZM202.369 174.142C201.706 174.142 201.106 173.972 200.568 173.631C200.034 173.286 199.61 172.78 199.295 172.114C198.985 171.443 198.83 170.621 198.83 169.648C198.83 168.648 198.991 167.816 199.312 167.153C199.634 166.487 200.063 165.989 200.597 165.659C201.134 165.326 201.723 165.159 202.364 165.159C202.852 165.159 203.259 165.242 203.585 165.409C203.915 165.572 204.18 165.777 204.381 166.023C204.585 166.265 204.741 166.504 204.847 166.739H204.92V162.364H207.335V174H204.949V172.602H204.847C204.733 172.845 204.572 173.085 204.364 173.324C204.159 173.559 203.892 173.754 203.562 173.909C203.237 174.064 202.839 174.142 202.369 174.142ZM203.136 172.216C203.527 172.216 203.856 172.11 204.125 171.898C204.398 171.682 204.606 171.381 204.75 170.994C204.898 170.608 204.972 170.155 204.972 169.636C204.972 169.117 204.9 168.667 204.756 168.284C204.612 167.902 204.403 167.606 204.131 167.398C203.858 167.189 203.527 167.085 203.136 167.085C202.739 167.085 202.403 167.193 202.131 167.409C201.858 167.625 201.652 167.924 201.511 168.307C201.371 168.689 201.301 169.133 201.301 169.636C201.301 170.144 201.371 170.593 201.511 170.983C201.655 171.369 201.862 171.672 202.131 171.892C202.403 172.108 202.739 172.216 203.136 172.216ZM213.303 174.17C212.405 174.17 211.632 173.989 210.984 173.625C210.34 173.258 209.844 172.739 209.496 172.068C209.147 171.394 208.973 170.597 208.973 169.676C208.973 168.778 209.147 167.991 209.496 167.312C209.844 166.634 210.335 166.106 210.967 165.727C211.604 165.348 212.35 165.159 213.206 165.159C213.782 165.159 214.318 165.252 214.814 165.438C215.314 165.619 215.75 165.894 216.121 166.261C216.496 166.629 216.787 167.091 216.996 167.648C217.204 168.201 217.308 168.848 217.308 169.591V170.256H209.939V168.756H215.03C215.03 168.407 214.954 168.098 214.803 167.83C214.651 167.561 214.441 167.35 214.172 167.199C213.907 167.044 213.598 166.966 213.246 166.966C212.878 166.966 212.553 167.051 212.268 167.222C211.988 167.388 211.768 167.614 211.609 167.898C211.45 168.178 211.369 168.491 211.365 168.835V170.261C211.365 170.693 211.445 171.066 211.604 171.381C211.767 171.695 211.996 171.938 212.291 172.108C212.587 172.278 212.937 172.364 213.342 172.364C213.611 172.364 213.857 172.326 214.081 172.25C214.304 172.174 214.496 172.061 214.655 171.909C214.814 171.758 214.935 171.572 215.018 171.352L217.257 171.5C217.143 172.038 216.911 172.508 216.558 172.909C216.21 173.307 215.759 173.617 215.206 173.841C214.657 174.061 214.022 174.17 213.303 174.17ZM220.916 162.364V163.591C220.916 163.939 220.848 164.295 220.712 164.659C220.579 165.019 220.401 165.36 220.178 165.682C219.954 166 219.71 166.271 219.445 166.494L218.376 165.864C218.566 165.564 218.732 165.233 218.876 164.869C219.024 164.506 219.098 164.083 219.098 163.602V162.364H220.916ZM223.774 162.364V163.591C223.774 163.939 223.706 164.295 223.57 164.659C223.437 165.019 223.259 165.36 223.036 165.682C222.812 166 222.566 166.271 222.297 166.494L221.229 165.864C221.422 165.564 221.59 165.233 221.734 164.869C221.882 164.506 221.956 164.083 221.956 163.602V162.364H223.774Z" fill="white"/>
<path d="M63.0114 148V136.364H65.4716V141.165H70.4659V136.364H72.9205V148H70.4659V143.193H65.4716V148H63.0114ZM77.392 148.165C76.8352 148.165 76.339 148.068 75.9034 147.875C75.4678 147.678 75.1231 147.388 74.8693 147.006C74.6193 146.619 74.4943 146.138 74.4943 145.562C74.4943 145.078 74.5833 144.67 74.7614 144.341C74.9394 144.011 75.1818 143.746 75.4886 143.545C75.7955 143.345 76.1439 143.193 76.5341 143.091C76.928 142.989 77.3409 142.917 77.7727 142.875C78.2803 142.822 78.6894 142.773 79 142.727C79.3106 142.678 79.536 142.606 79.6761 142.511C79.8163 142.417 79.8864 142.277 79.8864 142.091V142.057C79.8864 141.697 79.7727 141.419 79.5455 141.222C79.322 141.025 79.0038 140.926 78.5909 140.926C78.1553 140.926 77.8087 141.023 77.5511 141.216C77.2936 141.405 77.1231 141.644 77.0398 141.932L74.8011 141.75C74.9148 141.22 75.1383 140.761 75.4716 140.375C75.8049 139.985 76.2348 139.686 76.7614 139.477C77.2917 139.265 77.9053 139.159 78.6023 139.159C79.0871 139.159 79.5511 139.216 79.9943 139.33C80.4413 139.443 80.8371 139.619 81.1818 139.858C81.5303 140.097 81.8049 140.403 82.0057 140.778C82.2064 141.15 82.3068 141.595 82.3068 142.114V148H80.0114V146.79H79.9432C79.803 147.062 79.6155 147.303 79.3807 147.511C79.1458 147.716 78.8636 147.877 78.5341 147.994C78.2045 148.108 77.8239 148.165 77.392 148.165ZM78.0852 146.494C78.4413 146.494 78.7557 146.424 79.0284 146.284C79.3011 146.14 79.5152 145.947 79.6705 145.705C79.8258 145.462 79.9034 145.187 79.9034 144.881V143.955C79.8277 144.004 79.7235 144.049 79.5909 144.091C79.4621 144.129 79.3163 144.165 79.1534 144.199C78.9905 144.229 78.8277 144.258 78.6648 144.284C78.5019 144.307 78.3542 144.328 78.2216 144.347C77.9375 144.388 77.6894 144.455 77.4773 144.545C77.2652 144.636 77.1004 144.759 76.983 144.915C76.8655 145.066 76.8068 145.256 76.8068 145.483C76.8068 145.812 76.9261 146.064 77.1648 146.239C77.4072 146.409 77.714 146.494 78.0852 146.494ZM92.0085 139.273L88.9574 148H86.2301L83.179 139.273H85.7358L87.5483 145.517H87.6392L89.446 139.273H92.0085ZM96.9432 148.17C96.0455 148.17 95.2727 147.989 94.625 147.625C93.9811 147.258 93.4848 146.739 93.1364 146.068C92.7879 145.394 92.6136 144.597 92.6136 143.676C92.6136 142.778 92.7879 141.991 93.1364 141.312C93.4848 140.634 93.9754 140.106 94.608 139.727C95.2443 139.348 95.9905 139.159 96.8466 139.159C97.4223 139.159 97.9583 139.252 98.4545 139.438C98.9545 139.619 99.3902 139.894 99.7614 140.261C100.136 140.629 100.428 141.091 100.636 141.648C100.845 142.201 100.949 142.848 100.949 143.591V144.256H93.5795V142.756H98.6705C98.6705 142.407 98.5947 142.098 98.4432 141.83C98.2917 141.561 98.0814 141.35 97.8125 141.199C97.5473 141.044 97.2386 140.966 96.8864 140.966C96.5189 140.966 96.1932 141.051 95.9091 141.222C95.6288 141.388 95.4091 141.614 95.25 141.898C95.0909 142.178 95.0095 142.491 95.0057 142.835V144.261C95.0057 144.693 95.0852 145.066 95.2443 145.381C95.4072 145.695 95.6364 145.938 95.9318 146.108C96.2273 146.278 96.5777 146.364 96.983 146.364C97.2519 146.364 97.4981 146.326 97.7216 146.25C97.9451 146.174 98.1364 146.061 98.2955 145.909C98.4545 145.758 98.5758 145.572 98.6591 145.352L100.898 145.5C100.784 146.038 100.551 146.508 100.199 146.909C99.8504 147.307 99.3996 147.617 98.8466 147.841C98.2973 148.061 97.6629 148.17 96.9432 148.17ZM108.72 148.165C108.163 148.165 107.667 148.068 107.232 147.875C106.796 147.678 106.451 147.388 106.197 147.006C105.947 146.619 105.822 146.138 105.822 145.562C105.822 145.078 105.911 144.67 106.089 144.341C106.268 144.011 106.51 143.746 106.817 143.545C107.124 143.345 107.472 143.193 107.862 143.091C108.256 142.989 108.669 142.917 109.101 142.875C109.608 142.822 110.018 142.773 110.328 142.727C110.639 142.678 110.864 142.606 111.004 142.511C111.144 142.417 111.214 142.277 111.214 142.091V142.057C111.214 141.697 111.101 141.419 110.874 141.222C110.65 141.025 110.332 140.926 109.919 140.926C109.483 140.926 109.137 141.023 108.879 141.216C108.622 141.405 108.451 141.644 108.368 141.932L106.129 141.75C106.243 141.22 106.466 140.761 106.8 140.375C107.133 139.985 107.563 139.686 108.089 139.477C108.62 139.265 109.233 139.159 109.93 139.159C110.415 139.159 110.879 139.216 111.322 139.33C111.769 139.443 112.165 139.619 112.51 139.858C112.858 140.097 113.133 140.403 113.334 140.778C113.535 141.15 113.635 141.595 113.635 142.114V148H111.339V146.79H111.271C111.131 147.062 110.944 147.303 110.709 147.511C110.474 147.716 110.192 147.877 109.862 147.994C109.533 148.108 109.152 148.165 108.72 148.165ZM109.413 146.494C109.769 146.494 110.084 146.424 110.357 146.284C110.629 146.14 110.843 145.947 110.999 145.705C111.154 145.462 111.232 145.187 111.232 144.881V143.955C111.156 144.004 111.052 144.049 110.919 144.091C110.79 144.129 110.644 144.165 110.482 144.199C110.319 144.229 110.156 144.258 109.993 144.284C109.83 144.307 109.682 144.328 109.55 144.347C109.266 144.388 109.018 144.455 108.805 144.545C108.593 144.636 108.429 144.759 108.311 144.915C108.194 145.066 108.135 145.256 108.135 145.483C108.135 145.812 108.254 146.064 108.493 146.239C108.735 146.409 109.042 146.494 109.413 146.494ZM117.933 142.955V148H115.513V139.273H117.82V140.812H117.922C118.115 140.305 118.439 139.903 118.893 139.608C119.348 139.309 119.899 139.159 120.547 139.159C121.153 139.159 121.681 139.292 122.132 139.557C122.583 139.822 122.933 140.201 123.183 140.693C123.433 141.182 123.558 141.765 123.558 142.443V148H121.138V142.875C121.142 142.341 121.005 141.924 120.729 141.625C120.452 141.322 120.071 141.17 119.587 141.17C119.261 141.17 118.973 141.241 118.723 141.381C118.477 141.521 118.284 141.725 118.143 141.994C118.007 142.259 117.937 142.58 117.933 142.955ZM126.648 151.273C126.341 151.273 126.053 151.248 125.784 151.199C125.519 151.153 125.299 151.095 125.125 151.023L125.67 149.216C125.955 149.303 126.21 149.35 126.438 149.358C126.669 149.366 126.867 149.313 127.034 149.199C127.205 149.085 127.343 148.892 127.449 148.619L127.591 148.25L124.46 139.273H127.006L128.812 145.682H128.903L130.727 139.273H133.29L129.898 148.943C129.735 149.413 129.513 149.822 129.233 150.17C128.956 150.523 128.606 150.794 128.182 150.983C127.758 151.176 127.246 151.273 126.648 151.273ZM143.999 151.273V146.602H143.925C143.811 146.845 143.65 147.085 143.442 147.324C143.237 147.559 142.97 147.754 142.641 147.909C142.315 148.064 141.917 148.142 141.447 148.142C140.785 148.142 140.184 147.972 139.646 147.631C139.112 147.286 138.688 146.78 138.374 146.114C138.063 145.443 137.908 144.621 137.908 143.648C137.908 142.648 138.069 141.816 138.391 141.153C138.713 140.487 139.141 139.989 139.675 139.659C140.213 139.326 140.802 139.159 141.442 139.159C141.93 139.159 142.338 139.242 142.663 139.409C142.993 139.572 143.258 139.777 143.459 140.023C143.663 140.265 143.819 140.504 143.925 140.739H144.027V139.273H146.413V151.273H143.999ZM142.214 146.216C142.605 146.216 142.934 146.11 143.203 145.898C143.476 145.682 143.684 145.381 143.828 144.994C143.976 144.608 144.05 144.155 144.05 143.636C144.05 143.117 143.978 142.667 143.834 142.284C143.69 141.902 143.482 141.606 143.209 141.398C142.936 141.189 142.605 141.085 142.214 141.085C141.817 141.085 141.482 141.193 141.209 141.409C140.936 141.625 140.73 141.924 140.589 142.307C140.449 142.689 140.379 143.133 140.379 143.636C140.379 144.144 140.449 144.593 140.589 144.983C140.733 145.369 140.94 145.672 141.209 145.892C141.482 146.108 141.817 146.216 142.214 146.216ZM153.953 144.284V139.273H156.374V148H154.05V146.415H153.959C153.762 146.926 153.434 147.337 152.976 147.648C152.521 147.958 151.966 148.114 151.311 148.114C150.728 148.114 150.214 147.981 149.771 147.716C149.328 147.451 148.982 147.074 148.732 146.585C148.485 146.097 148.36 145.511 148.357 144.83V139.273H150.777V144.398C150.781 144.913 150.919 145.32 151.192 145.619C151.464 145.919 151.83 146.068 152.288 146.068C152.58 146.068 152.853 146.002 153.107 145.869C153.36 145.733 153.565 145.532 153.72 145.267C153.879 145.002 153.957 144.674 153.953 144.284ZM162.287 148.17C161.389 148.17 160.616 147.989 159.969 147.625C159.325 147.258 158.829 146.739 158.48 146.068C158.132 145.394 157.957 144.597 157.957 143.676C157.957 142.778 158.132 141.991 158.48 141.312C158.829 140.634 159.319 140.106 159.952 139.727C160.588 139.348 161.334 139.159 162.19 139.159C162.766 139.159 163.302 139.252 163.798 139.438C164.298 139.619 164.734 139.894 165.105 140.261C165.48 140.629 165.772 141.091 165.98 141.648C166.188 142.201 166.293 142.848 166.293 143.591V144.256H158.923V142.756H164.014C164.014 142.407 163.938 142.098 163.787 141.83C163.635 141.561 163.425 141.35 163.156 141.199C162.891 141.044 162.582 140.966 162.23 140.966C161.863 140.966 161.537 141.051 161.253 141.222C160.973 141.388 160.753 141.614 160.594 141.898C160.435 142.178 160.353 142.491 160.349 142.835V144.261C160.349 144.693 160.429 145.066 160.588 145.381C160.751 145.695 160.98 145.938 161.276 146.108C161.571 146.278 161.921 146.364 162.327 146.364C162.596 146.364 162.842 146.326 163.065 146.25C163.289 146.174 163.48 146.061 163.639 145.909C163.798 145.758 163.92 145.572 164.003 145.352L166.241 145.5C166.128 146.038 165.895 146.508 165.543 146.909C165.194 147.307 164.743 147.617 164.19 147.841C163.641 148.061 163.007 148.17 162.287 148.17ZM175.134 141.761L172.918 141.898C172.88 141.708 172.798 141.538 172.673 141.386C172.548 141.231 172.384 141.108 172.179 141.017C171.978 140.922 171.738 140.875 171.457 140.875C171.082 140.875 170.766 140.955 170.509 141.114C170.251 141.269 170.122 141.477 170.122 141.739C170.122 141.947 170.205 142.123 170.372 142.267C170.539 142.411 170.825 142.527 171.23 142.614L172.81 142.932C173.658 143.106 174.291 143.386 174.707 143.773C175.124 144.159 175.332 144.667 175.332 145.295C175.332 145.867 175.164 146.369 174.827 146.801C174.493 147.233 174.035 147.57 173.452 147.812C172.872 148.051 172.204 148.17 171.446 148.17C170.291 148.17 169.37 147.93 168.685 147.449C168.003 146.964 167.603 146.305 167.486 145.472L169.866 145.347C169.938 145.699 170.113 145.968 170.389 146.153C170.666 146.335 171.02 146.426 171.452 146.426C171.876 146.426 172.217 146.345 172.474 146.182C172.736 146.015 172.868 145.801 172.872 145.54C172.868 145.32 172.776 145.14 172.594 145C172.412 144.856 172.132 144.746 171.753 144.67L170.241 144.369C169.389 144.199 168.755 143.903 168.338 143.483C167.925 143.062 167.719 142.527 167.719 141.875C167.719 141.314 167.87 140.831 168.173 140.426C168.48 140.021 168.91 139.708 169.463 139.489C170.02 139.269 170.671 139.159 171.418 139.159C172.52 139.159 173.387 139.392 174.02 139.858C174.656 140.324 175.027 140.958 175.134 141.761ZM181.499 139.273V141.091H176.243V139.273H181.499ZM177.436 137.182H179.857V145.318C179.857 145.542 179.891 145.716 179.959 145.841C180.027 145.962 180.122 146.047 180.243 146.097C180.368 146.146 180.512 146.17 180.675 146.17C180.788 146.17 180.902 146.161 181.016 146.142C181.129 146.119 181.216 146.102 181.277 146.091L181.658 147.892C181.536 147.93 181.366 147.973 181.146 148.023C180.927 148.076 180.66 148.108 180.345 148.119C179.762 148.142 179.25 148.064 178.811 147.886C178.375 147.708 178.036 147.432 177.794 147.057C177.552 146.682 177.432 146.208 177.436 145.636V137.182ZM183.075 148V139.273H185.496V148H183.075ZM184.291 138.148C183.931 138.148 183.623 138.028 183.365 137.79C183.111 137.547 182.984 137.258 182.984 136.92C182.984 136.587 183.111 136.301 183.365 136.062C183.623 135.82 183.931 135.699 184.291 135.699C184.651 135.699 184.958 135.82 185.212 136.062C185.469 136.301 185.598 136.587 185.598 136.92C185.598 137.258 185.469 137.547 185.212 137.79C184.958 138.028 184.651 138.148 184.291 138.148ZM191.378 148.17C190.495 148.17 189.732 147.983 189.088 147.608C188.448 147.229 187.954 146.703 187.605 146.028C187.257 145.35 187.082 144.564 187.082 143.67C187.082 142.769 187.257 141.981 187.605 141.307C187.954 140.629 188.448 140.102 189.088 139.727C189.732 139.348 190.495 139.159 191.378 139.159C192.26 139.159 193.022 139.348 193.662 139.727C194.306 140.102 194.802 140.629 195.151 141.307C195.499 141.981 195.673 142.769 195.673 143.67C195.673 144.564 195.499 145.35 195.151 146.028C194.802 146.703 194.306 147.229 193.662 147.608C193.022 147.983 192.26 148.17 191.378 148.17ZM191.389 146.295C191.791 146.295 192.126 146.182 192.395 145.955C192.664 145.723 192.866 145.409 193.003 145.011C193.143 144.614 193.213 144.161 193.213 143.653C193.213 143.146 193.143 142.693 193.003 142.295C192.866 141.898 192.664 141.583 192.395 141.352C192.126 141.121 191.791 141.006 191.389 141.006C190.984 141.006 190.643 141.121 190.366 141.352C190.094 141.583 189.887 141.898 189.747 142.295C189.611 142.693 189.543 143.146 189.543 143.653C189.543 144.161 189.611 144.614 189.747 145.011C189.887 145.409 190.094 145.723 190.366 145.955C190.643 146.182 190.984 146.295 191.389 146.295ZM199.668 142.955V148H197.247V139.273H199.554V140.812H199.656C199.849 140.305 200.173 139.903 200.628 139.608C201.082 139.309 201.634 139.159 202.281 139.159C202.887 139.159 203.416 139.292 203.866 139.557C204.317 139.822 204.668 140.201 204.918 140.693C205.168 141.182 205.293 141.765 205.293 142.443V148H202.872V142.875C202.876 142.341 202.74 141.924 202.463 141.625C202.187 141.322 201.806 141.17 201.321 141.17C200.995 141.17 200.707 141.241 200.457 141.381C200.211 141.521 200.018 141.725 199.878 141.994C199.741 142.259 199.671 142.58 199.668 142.955ZM209.28 144.511V144.318C209.284 143.655 209.342 143.127 209.456 142.733C209.573 142.339 209.744 142.021 209.967 141.778C210.191 141.536 210.46 141.316 210.774 141.119C211.009 140.968 211.219 140.811 211.405 140.648C211.59 140.485 211.738 140.305 211.848 140.108C211.958 139.907 212.013 139.684 212.013 139.438C212.013 139.176 211.95 138.947 211.825 138.75C211.7 138.553 211.532 138.402 211.32 138.295C211.111 138.189 210.88 138.136 210.626 138.136C210.38 138.136 210.147 138.191 209.928 138.301C209.708 138.407 209.528 138.566 209.388 138.778C209.248 138.987 209.172 139.246 209.161 139.557H206.842C206.861 138.799 207.043 138.174 207.388 137.682C207.732 137.186 208.189 136.816 208.757 136.574C209.325 136.328 209.952 136.205 210.638 136.205C211.392 136.205 212.058 136.33 212.638 136.58C213.217 136.826 213.672 137.184 214.001 137.653C214.331 138.123 214.496 138.689 214.496 139.352C214.496 139.795 214.422 140.189 214.274 140.534C214.13 140.875 213.928 141.178 213.666 141.443C213.405 141.705 213.096 141.941 212.74 142.153C212.441 142.331 212.195 142.517 212.001 142.71C211.812 142.903 211.67 143.127 211.575 143.381C211.484 143.634 211.437 143.947 211.433 144.318V144.511H209.28ZM210.405 148.148C210.026 148.148 209.702 148.015 209.433 147.75C209.168 147.481 209.037 147.159 209.041 146.784C209.037 146.413 209.168 146.095 209.433 145.83C209.702 145.564 210.026 145.432 210.405 145.432C210.765 145.432 211.081 145.564 211.354 145.83C211.626 146.095 211.765 146.413 211.768 146.784C211.765 147.034 211.698 147.263 211.57 147.472C211.445 147.676 211.28 147.841 211.075 147.966C210.871 148.087 210.647 148.148 210.405 148.148Z" fill="#118E11"/>
<path d="M21.0011 144.381C20.9942 144.542 21.0204 144.702 21.0779 144.853C21.1354 145.003 21.223 145.14 21.3354 145.255C21.4478 145.37 21.5825 145.461 21.7314 145.522C21.8802 145.584 22.04 145.614 22.2009 145.611H26.3082C26.9953 145.611 27.5429 145.048 27.6326 144.366C28.0806 141.1 30.321 138.72 34.3138 138.72C37.7291 138.72 40.8557 140.428 40.8557 144.535C40.8557 147.697 38.9937 149.151 36.0514 151.361C32.7008 153.796 30.0472 156.638 30.2364 161.254L30.2513 162.334C30.2565 162.661 30.39 162.972 30.6228 163.201C30.8557 163.43 31.1693 163.559 31.4959 163.559H35.5336C35.8637 163.559 36.1803 163.428 36.4137 163.194C36.6471 162.961 36.7782 162.644 36.7782 162.314V161.791C36.7782 158.217 38.1374 157.176 41.8066 154.393C44.8386 152.088 48 149.529 48 144.157C48 136.634 41.6473 133 34.6922 133C28.3843 133 21.474 135.937 21.0011 144.381ZM28.7527 173.073C28.7527 175.726 30.8686 177.688 33.7811 177.688C36.8131 177.688 38.8991 175.726 38.8991 173.073C38.8991 170.325 36.8081 168.393 33.7761 168.393C30.8686 168.393 28.7527 170.325 28.7527 173.073Z" fill="#118E11"/>
</svg>
