<svg width="420" height="380" viewBox="0 0 420 380" fill="none" xmlns="http://www.w3.org/2000/svg">
<rect width="420" height="380" rx="15" fill="#F1F3F1"/>
<path d="M47.2756 116V89.8182H57.6051C59.5824 89.8182 61.2699 90.1719 62.6676 90.8793C64.0739 91.5781 65.1435 92.571 65.8764 93.858C66.6179 95.1364 66.9886 96.6406 66.9886 98.3707C66.9886 100.109 66.6136 101.605 65.8636 102.858C65.1136 104.102 64.027 105.057 62.6037 105.722C61.1889 106.386 59.4759 106.719 57.4645 106.719H50.5483V102.27H56.5696C57.6264 102.27 58.5043 102.125 59.2031 101.835C59.902 101.545 60.4219 101.111 60.7628 100.531C61.1122 99.9517 61.2869 99.2315 61.2869 98.3707C61.2869 97.5014 61.1122 96.7685 60.7628 96.1719C60.4219 95.5753 59.8977 95.1236 59.1903 94.8168C58.4915 94.5014 57.6094 94.3438 56.544 94.3438H52.8111V116H47.2756ZM61.4148 104.085L67.9219 116H61.8111L55.4446 104.085H61.4148ZM79.4308 116.384C77.4109 116.384 75.6722 115.974 74.2148 115.156C72.766 114.33 71.6495 113.162 70.8654 111.653C70.0813 110.136 69.6893 108.342 69.6893 106.271C69.6893 104.251 70.0813 102.479 70.8654 100.953C71.6495 99.4276 72.7532 98.2386 74.1765 97.3864C75.6083 96.5341 77.2873 96.108 79.2134 96.108C80.5089 96.108 81.7148 96.3168 82.8313 96.7344C83.9563 97.1435 84.9364 97.7614 85.7717 98.5881C86.6154 99.4148 87.2717 100.455 87.7404 101.707C88.2092 102.952 88.4435 104.409 88.4435 106.08V107.575H71.8626V104.2H83.3171C83.3171 103.416 83.1467 102.722 82.8058 102.116C82.4648 101.511 81.9918 101.038 81.3867 100.697C80.7901 100.348 80.0955 100.173 79.3029 100.173C78.4762 100.173 77.7433 100.365 77.104 100.749C76.4734 101.124 75.979 101.631 75.6211 102.27C75.2631 102.901 75.0799 103.604 75.0714 104.379V107.588C75.0714 108.56 75.2504 109.399 75.6083 110.107C75.9748 110.814 76.4904 111.359 77.1552 111.743C77.82 112.126 78.6083 112.318 79.5202 112.318C80.1254 112.318 80.6793 112.233 81.1822 112.062C81.685 111.892 82.1154 111.636 82.4734 111.295C82.8313 110.955 83.104 110.537 83.2915 110.043L88.3285 110.375C88.0728 111.585 87.5487 112.642 86.756 113.545C85.9719 114.44 84.9577 115.139 83.7134 115.642C82.4776 116.136 81.0501 116.384 79.4308 116.384ZM97.5969 116.371C96.3441 116.371 95.2276 116.153 94.2475 115.719C93.2674 115.276 92.4918 114.624 91.9208 113.763C91.3583 112.893 91.0771 111.811 91.0771 110.516C91.0771 109.425 91.2773 108.509 91.6779 107.767C92.0785 107.026 92.6239 106.429 93.3143 105.977C94.0046 105.526 94.7887 105.185 95.6665 104.955C96.5529 104.724 97.4819 104.562 98.4535 104.469C99.5955 104.349 100.516 104.239 101.215 104.136C101.914 104.026 102.421 103.864 102.736 103.651C103.051 103.437 103.209 103.122 103.209 102.705V102.628C103.209 101.818 102.953 101.192 102.442 100.749C101.939 100.305 101.223 100.084 100.294 100.084C99.3143 100.084 98.5344 100.301 97.9549 100.736C97.3754 101.162 96.9918 101.699 96.8043 102.347L91.7674 101.938C92.0231 100.744 92.5259 99.7131 93.2759 98.8438C94.0259 97.9659 94.9933 97.2926 96.1779 96.8239C97.3711 96.3466 98.7518 96.108 100.32 96.108C101.411 96.108 102.455 96.2358 103.452 96.4915C104.458 96.7472 105.348 97.1435 106.124 97.6804C106.908 98.2173 107.526 98.9077 107.978 99.7514C108.429 100.587 108.655 101.588 108.655 102.756V116H103.49V113.277H103.337C103.022 113.891 102.6 114.432 102.071 114.901C101.543 115.361 100.908 115.723 100.167 115.987C99.4251 116.243 98.5685 116.371 97.5969 116.371ZM99.1566 112.612C99.9577 112.612 100.665 112.455 101.279 112.139C101.892 111.815 102.374 111.381 102.723 110.835C103.073 110.29 103.248 109.672 103.248 108.982V106.898C103.077 107.009 102.843 107.111 102.544 107.205C102.255 107.29 101.926 107.371 101.56 107.447C101.194 107.516 100.827 107.58 100.461 107.639C100.094 107.69 99.7617 107.737 99.4634 107.78C98.8242 107.874 98.266 108.023 97.7887 108.227C97.3114 108.432 96.9407 108.709 96.6765 109.058C96.4123 109.399 96.2802 109.825 96.2802 110.337C96.2802 111.078 96.5487 111.645 97.0856 112.037C97.631 112.42 98.3214 112.612 99.1566 112.612ZM121.752 116.384C119.741 116.384 118.011 115.957 116.562 115.105C115.122 114.244 114.014 113.051 113.238 111.526C112.471 110 112.088 108.244 112.088 106.259C112.088 104.247 112.475 102.483 113.251 100.966C114.035 99.4403 115.147 98.2514 116.588 97.3991C118.028 96.5384 119.741 96.108 121.727 96.108C123.44 96.108 124.94 96.419 126.227 97.0412C127.514 97.6634 128.532 98.5369 129.282 99.6619C130.032 100.787 130.446 102.108 130.522 103.625H125.383C125.238 102.645 124.855 101.857 124.233 101.26C123.619 100.655 122.814 100.352 121.816 100.352C120.973 100.352 120.235 100.582 119.605 101.043C118.983 101.494 118.497 102.155 118.147 103.024C117.798 103.893 117.623 104.946 117.623 106.182C117.623 107.435 117.794 108.5 118.135 109.378C118.484 110.256 118.974 110.925 119.605 111.385C120.235 111.845 120.973 112.075 121.816 112.075C122.439 112.075 122.997 111.947 123.491 111.692C123.994 111.436 124.407 111.065 124.731 110.58C125.064 110.085 125.281 109.493 125.383 108.803H130.522C130.437 110.303 130.028 111.624 129.295 112.766C128.571 113.899 127.569 114.786 126.291 115.425C125.012 116.064 123.5 116.384 121.752 116.384ZM144.454 96.3636V100.455H132.629V96.3636H144.454ZM135.313 91.6591H140.759V109.966C140.759 110.469 140.836 110.861 140.989 111.142C141.143 111.415 141.356 111.607 141.629 111.717C141.91 111.828 142.234 111.884 142.6 111.884C142.856 111.884 143.112 111.862 143.367 111.82C143.623 111.768 143.819 111.73 143.955 111.705L144.812 115.757C144.539 115.842 144.156 115.94 143.661 116.051C143.167 116.17 142.566 116.243 141.859 116.268C140.546 116.32 139.396 116.145 138.407 115.744C137.427 115.344 136.664 114.722 136.119 113.878C135.573 113.034 135.305 111.969 135.313 110.682V91.6591ZM148.001 116V96.3636H153.447V116H148.001ZM150.737 93.8324C149.928 93.8324 149.233 93.5639 148.653 93.027C148.082 92.4815 147.797 91.8295 147.797 91.071C147.797 90.321 148.082 89.6776 148.653 89.1406C149.233 88.5952 149.928 88.3224 150.737 88.3224C151.547 88.3224 152.237 88.5952 152.808 89.1406C153.388 89.6776 153.678 90.321 153.678 91.071C153.678 91.8295 153.388 92.4815 152.808 93.027C152.237 93.5639 151.547 93.8324 150.737 93.8324ZM166.682 116.384C164.696 116.384 162.979 115.962 161.53 115.118C160.09 114.266 158.978 113.081 158.194 111.564C157.409 110.038 157.017 108.27 157.017 106.259C157.017 104.23 157.409 102.457 158.194 100.94C158.978 99.4148 160.09 98.2301 161.53 97.3864C162.979 96.5341 164.696 96.108 166.682 96.108C168.668 96.108 170.381 96.5341 171.821 97.3864C173.27 98.2301 174.387 99.4148 175.171 100.94C175.955 102.457 176.347 104.23 176.347 106.259C176.347 108.27 175.955 110.038 175.171 111.564C174.387 113.081 173.27 114.266 171.821 115.118C170.381 115.962 168.668 116.384 166.682 116.384ZM166.708 112.165C167.611 112.165 168.365 111.909 168.971 111.398C169.576 110.878 170.032 110.17 170.338 109.276C170.654 108.381 170.811 107.362 170.811 106.22C170.811 105.078 170.654 104.06 170.338 103.165C170.032 102.27 169.576 101.562 168.971 101.043C168.365 100.523 167.611 100.263 166.708 100.263C165.796 100.263 165.029 100.523 164.407 101.043C163.793 101.562 163.328 102.27 163.013 103.165C162.706 104.06 162.553 105.078 162.553 106.22C162.553 107.362 162.706 108.381 163.013 109.276C163.328 110.17 163.793 110.878 164.407 111.398C165.029 111.909 165.796 112.165 166.708 112.165ZM185.334 104.648V116H179.888V96.3636H185.078V99.8281H185.309C185.743 98.6861 186.472 97.7827 187.495 97.1179C188.517 96.4446 189.757 96.108 191.215 96.108C192.578 96.108 193.767 96.4062 194.782 97.0028C195.796 97.5994 196.584 98.4517 197.147 99.5597C197.709 100.659 197.99 101.972 197.99 103.497V116H192.544V104.469C192.553 103.267 192.246 102.33 191.624 101.656C191.002 100.974 190.145 100.634 189.054 100.634C188.321 100.634 187.674 100.791 187.111 101.107C186.557 101.422 186.123 101.882 185.807 102.487C185.5 103.084 185.343 103.804 185.334 104.648ZM209.72 94.3821V89.8182H231.223V94.3821H223.207V116H217.735V94.3821H209.72ZM234.662 116V96.3636H240.108V116H234.662ZM237.397 93.8324C236.588 93.8324 235.893 93.5639 235.314 93.027C234.743 92.4815 234.457 91.8295 234.457 91.071C234.457 90.321 234.743 89.6776 235.314 89.1406C235.893 88.5952 236.588 88.3224 237.397 88.3224C238.207 88.3224 238.897 88.5952 239.468 89.1406C240.048 89.6776 240.338 90.321 240.338 91.071C240.338 91.8295 240.048 92.4815 239.468 93.027C238.897 93.5639 238.207 93.8324 237.397 93.8324ZM244.47 116V96.3636H249.661V99.8281H249.891C250.3 98.6776 250.982 97.7699 251.936 97.1051C252.891 96.4403 254.033 96.108 255.362 96.108C256.709 96.108 257.855 96.4446 258.801 97.1179C259.747 97.7827 260.378 98.6861 260.693 99.8281H260.898C261.298 98.7031 262.023 97.804 263.071 97.1307C264.128 96.4489 265.376 96.108 266.817 96.108C268.649 96.108 270.136 96.6918 271.278 97.8594C272.429 99.0185 273.004 100.663 273.004 102.794V116H267.571V103.868C267.571 102.777 267.281 101.959 266.702 101.413C266.122 100.868 265.398 100.595 264.528 100.595C263.54 100.595 262.768 100.911 262.214 101.541C261.661 102.163 261.384 102.986 261.384 104.009V116H256.104V103.753C256.104 102.79 255.827 102.023 255.273 101.452C254.727 100.881 254.007 100.595 253.112 100.595C252.507 100.595 251.962 100.749 251.476 101.055C250.999 101.354 250.619 101.776 250.338 102.321C250.057 102.858 249.916 103.489 249.916 104.213V116H244.47ZM286.255 116.384C284.235 116.384 282.496 115.974 281.039 115.156C279.59 114.33 278.474 113.162 277.69 111.653C276.906 110.136 276.513 108.342 276.513 106.271C276.513 104.251 276.906 102.479 277.69 100.953C278.474 99.4276 279.577 98.2386 281.001 97.3864C282.433 96.5341 284.112 96.108 286.038 96.108C287.333 96.108 288.539 96.3168 289.656 96.7344C290.781 97.1435 291.761 97.7614 292.596 98.5881C293.44 99.4148 294.096 100.455 294.565 101.707C295.033 102.952 295.268 104.409 295.268 106.08V107.575H278.687V104.2H290.141C290.141 103.416 289.971 102.722 289.63 102.116C289.289 101.511 288.816 101.038 288.211 100.697C287.614 100.348 286.92 100.173 286.127 100.173C285.3 100.173 284.567 100.365 283.928 100.749C283.298 101.124 282.803 101.631 282.445 102.27C282.087 102.901 281.904 103.604 281.896 104.379V107.588C281.896 108.56 282.075 109.399 282.433 110.107C282.799 110.814 283.315 111.359 283.979 111.743C284.644 112.126 285.433 112.318 286.344 112.318C286.95 112.318 287.504 112.233 288.006 112.062C288.509 111.892 288.94 111.636 289.298 111.295C289.656 110.955 289.928 110.537 290.116 110.043L295.153 110.375C294.897 111.585 294.373 112.642 293.58 113.545C292.796 114.44 291.782 115.139 290.538 115.642C289.302 116.136 287.874 116.384 286.255 116.384Z" fill="#118E11"/>
<path d="M63.6136 179.636V200H61.2273L50.1307 184.011H49.9318V200H47.4659V179.636H49.8523L60.9886 195.665H61.1875V179.636H63.6136ZM74.6332 200.318C73.1616 200.318 71.8922 199.993 70.8249 199.344C69.7643 198.688 68.9457 197.773 68.369 196.599C67.7989 195.42 67.5138 194.047 67.5138 192.483C67.5138 190.919 67.7989 189.54 68.369 188.347C68.9457 187.147 69.7478 186.212 70.7752 185.543C71.8093 184.866 73.0157 184.528 74.3945 184.528C75.19 184.528 75.9755 184.661 76.7511 184.926C77.5266 185.191 78.2326 185.622 78.869 186.219C79.5053 186.809 80.0124 187.591 80.3903 188.565C80.7681 189.54 80.957 190.74 80.957 192.165V193.159H69.1843V191.131H78.5707C78.5707 190.269 78.3983 189.5 78.0536 188.824C77.7156 188.148 77.2317 187.614 76.6019 187.223C75.9788 186.832 75.243 186.636 74.3945 186.636C73.4599 186.636 72.6512 186.868 71.9684 187.332C71.2923 187.79 70.7719 188.386 70.4073 189.122C70.0427 189.858 69.8604 190.647 69.8604 191.489V192.841C69.8604 193.994 70.0593 194.972 70.457 195.774C70.8614 196.57 71.4215 197.176 72.1374 197.594C72.8533 198.005 73.6853 198.21 74.6332 198.21C75.2496 198.21 75.8065 198.124 76.3036 197.952C76.8074 197.773 77.2416 197.508 77.6062 197.156C77.9708 196.798 78.2525 196.354 78.4513 195.824L80.7184 196.46C80.4798 197.229 80.0787 197.905 79.5153 198.489C78.9518 199.065 78.2558 199.516 77.4272 199.841C76.5986 200.159 75.6673 200.318 74.6332 200.318ZM90.93 200.318C89.4585 200.318 88.189 199.993 87.1218 199.344C86.0612 198.688 85.2425 197.773 84.6658 196.599C84.0958 195.42 83.8107 194.047 83.8107 192.483C83.8107 190.919 84.0958 189.54 84.6658 188.347C85.2425 187.147 86.0446 186.212 87.0721 185.543C88.1062 184.866 89.3126 184.528 90.6914 184.528C91.4869 184.528 92.2724 184.661 93.0479 184.926C93.8235 185.191 94.5295 185.622 95.1658 186.219C95.8022 186.809 96.3093 187.591 96.6871 188.565C97.065 189.54 97.2539 190.74 97.2539 192.165V193.159H85.4812V191.131H94.8675C94.8675 190.269 94.6952 189.5 94.3505 188.824C94.0124 188.148 93.5285 187.614 92.8988 187.223C92.2757 186.832 91.5399 186.636 90.6914 186.636C89.7567 186.636 88.948 186.868 88.2653 187.332C87.5891 187.79 87.0688 188.386 86.7042 189.122C86.3396 189.858 86.1573 190.647 86.1573 191.489V192.841C86.1573 193.994 86.3562 194.972 86.7539 195.774C87.1583 196.57 87.7184 197.176 88.4343 197.594C89.1502 198.005 89.9821 198.21 90.93 198.21C91.5465 198.21 92.1033 198.124 92.6005 197.952C93.1043 197.773 93.5385 197.508 93.9031 197.156C94.2676 196.798 94.5494 196.354 94.7482 195.824L97.0153 196.46C96.7766 197.229 96.3756 197.905 95.8121 198.489C95.2487 199.065 94.5527 199.516 93.7241 199.841C92.8955 200.159 91.9641 200.318 90.93 200.318ZM106.591 200.318C105.318 200.318 104.194 199.997 103.22 199.354C102.245 198.704 101.483 197.789 100.933 196.609C100.383 195.423 100.108 194.021 100.108 192.403C100.108 190.799 100.383 189.407 100.933 188.227C101.483 187.047 102.249 186.136 103.23 185.493C104.211 184.85 105.344 184.528 106.63 184.528C107.625 184.528 108.41 184.694 108.987 185.026C109.57 185.35 110.014 185.722 110.319 186.139C110.631 186.55 110.873 186.888 111.045 187.153H111.244V179.636H113.591V200H111.324V197.653H111.045C110.873 197.932 110.627 198.283 110.309 198.707C109.991 199.125 109.537 199.5 108.947 199.831C108.357 200.156 107.572 200.318 106.591 200.318ZM106.909 198.21C107.85 198.21 108.645 197.965 109.295 197.474C109.945 196.977 110.439 196.291 110.777 195.416C111.115 194.535 111.284 193.517 111.284 192.364C111.284 191.223 111.118 190.226 110.787 189.371C110.455 188.509 109.965 187.839 109.315 187.362C108.665 186.878 107.863 186.636 106.909 186.636C105.914 186.636 105.086 186.892 104.423 187.402C103.767 187.906 103.273 188.592 102.941 189.46C102.617 190.322 102.454 191.29 102.454 192.364C102.454 193.451 102.62 194.438 102.951 195.327C103.289 196.208 103.787 196.911 104.443 197.435C105.106 197.952 105.928 198.21 106.909 198.21ZM126.089 200V184.727H128.356V187.114H128.555C128.873 186.298 129.387 185.665 130.096 185.214C130.806 184.757 131.657 184.528 132.652 184.528C133.659 184.528 134.498 184.757 135.167 185.214C135.843 185.665 136.37 186.298 136.748 187.114H136.907C137.298 186.325 137.885 185.698 138.667 185.234C139.449 184.764 140.387 184.528 141.481 184.528C142.847 184.528 143.964 184.956 144.832 185.811C145.7 186.66 146.135 187.982 146.135 189.778V200H143.788V189.778C143.788 188.652 143.48 187.846 142.863 187.362C142.247 186.878 141.521 186.636 140.686 186.636C139.612 186.636 138.78 186.961 138.19 187.611C137.6 188.254 137.305 189.069 137.305 190.057V200H134.919V189.54C134.919 188.671 134.637 187.972 134.074 187.442C133.51 186.905 132.784 186.636 131.896 186.636C131.286 186.636 130.716 186.799 130.186 187.124C129.662 187.448 129.238 187.899 128.913 188.476C128.595 189.046 128.436 189.705 128.436 190.455V200H126.089ZM156.63 200.318C155.251 200.318 154.041 199.99 153 199.334C151.966 198.678 151.158 197.759 150.574 196.58C149.998 195.4 149.709 194.021 149.709 192.443C149.709 190.852 149.998 189.464 150.574 188.277C151.158 187.09 151.966 186.169 153 185.513C154.041 184.857 155.251 184.528 156.63 184.528C158.008 184.528 159.215 184.857 160.249 185.513C161.29 186.169 162.098 187.09 162.675 188.277C163.258 189.464 163.55 190.852 163.55 192.443C163.55 194.021 163.258 195.4 162.675 196.58C162.098 197.759 161.29 198.678 160.249 199.334C159.215 199.99 158.008 200.318 156.63 200.318ZM156.63 198.21C157.677 198.21 158.539 197.942 159.215 197.405C159.891 196.868 160.391 196.162 160.716 195.287C161.041 194.412 161.203 193.464 161.203 192.443C161.203 191.422 161.041 190.471 160.716 189.589C160.391 188.708 159.891 187.995 159.215 187.452C158.539 186.908 157.677 186.636 156.63 186.636C155.582 186.636 154.721 186.908 154.044 187.452C153.368 187.995 152.868 188.708 152.543 189.589C152.218 190.471 152.056 191.422 152.056 192.443C152.056 193.464 152.218 194.412 152.543 195.287C152.868 196.162 153.368 196.868 154.044 197.405C154.721 197.942 155.582 198.21 156.63 198.21ZM167.132 200V184.727H169.399V187.034H169.558C169.837 186.278 170.34 185.665 171.07 185.195C171.799 184.724 172.621 184.489 173.536 184.489C173.708 184.489 173.923 184.492 174.182 184.499C174.44 184.505 174.636 184.515 174.768 184.528V186.915C174.689 186.895 174.507 186.865 174.222 186.825C173.943 186.779 173.648 186.756 173.337 186.756C172.594 186.756 171.931 186.911 171.348 187.223C170.771 187.528 170.314 187.952 169.976 188.496C169.644 189.033 169.479 189.646 169.479 190.335V200H167.132ZM183.489 200.318C182.017 200.318 180.748 199.993 179.68 199.344C178.62 198.688 177.801 197.773 177.224 196.599C176.654 195.42 176.369 194.047 176.369 192.483C176.369 190.919 176.654 189.54 177.224 188.347C177.801 187.147 178.603 186.212 179.631 185.543C180.665 184.866 181.871 184.528 183.25 184.528C184.045 184.528 184.831 184.661 185.607 184.926C186.382 185.191 187.088 185.622 187.724 186.219C188.361 186.809 188.868 187.591 189.246 188.565C189.624 189.54 189.812 190.74 189.812 192.165V193.159H178.04V191.131H187.426C187.426 190.269 187.254 189.5 186.909 188.824C186.571 188.148 186.087 187.614 185.457 187.223C184.834 186.832 184.098 186.636 183.25 186.636C182.315 186.636 181.507 186.868 180.824 187.332C180.148 187.79 179.627 188.386 179.263 189.122C178.898 189.858 178.716 190.647 178.716 191.489V192.841C178.716 193.994 178.915 194.972 179.312 195.774C179.717 196.57 180.277 197.176 180.993 197.594C181.709 198.005 182.541 198.21 183.489 198.21C184.105 198.21 184.662 198.124 185.159 197.952C185.663 197.773 186.097 197.508 186.462 197.156C186.826 196.798 187.108 196.354 187.307 195.824L189.574 196.46C189.335 197.229 188.934 197.905 188.371 198.489C187.807 199.065 187.111 199.516 186.283 199.841C185.454 200.159 184.523 200.318 183.489 200.318ZM207.899 184.727V186.716H199.984V184.727H207.899ZM202.291 181.068H204.638V195.625C204.638 196.288 204.734 196.785 204.926 197.116C205.125 197.441 205.377 197.66 205.682 197.773C205.993 197.879 206.321 197.932 206.666 197.932C206.925 197.932 207.137 197.919 207.303 197.892C207.468 197.859 207.601 197.832 207.7 197.812L208.178 199.92C208.018 199.98 207.796 200.04 207.511 200.099C207.226 200.166 206.865 200.199 206.428 200.199C205.765 200.199 205.115 200.056 204.479 199.771C203.849 199.486 203.325 199.052 202.908 198.469C202.497 197.885 202.291 197.15 202.291 196.261V181.068ZM211.429 200V184.727H213.776V200H211.429ZM212.622 182.182C212.165 182.182 211.77 182.026 211.439 181.714C211.114 181.403 210.952 181.028 210.952 180.591C210.952 180.153 211.114 179.779 211.439 179.467C211.77 179.156 212.165 179 212.622 179C213.08 179 213.471 179.156 213.795 179.467C214.127 179.779 214.293 180.153 214.293 180.591C214.293 181.028 214.127 181.403 213.795 181.714C213.471 182.026 213.08 182.182 212.622 182.182ZM218.074 200V184.727H220.341V187.114H220.539C220.858 186.298 221.371 185.665 222.081 185.214C222.79 184.757 223.642 184.528 224.636 184.528C225.644 184.528 226.482 184.757 227.152 185.214C227.828 185.665 228.355 186.298 228.733 187.114H228.892C229.283 186.325 229.869 185.698 230.652 185.234C231.434 184.764 232.372 184.528 233.466 184.528C234.831 184.528 235.948 184.956 236.816 185.811C237.685 186.66 238.119 187.982 238.119 189.778V200H235.772V189.778C235.772 188.652 235.464 187.846 234.848 187.362C234.231 186.878 233.505 186.636 232.67 186.636C231.596 186.636 230.764 186.961 230.174 187.611C229.584 188.254 229.289 189.069 229.289 190.057V200H226.903V189.54C226.903 188.671 226.621 187.972 226.058 187.442C225.494 186.905 224.769 186.636 223.88 186.636C223.27 186.636 222.7 186.799 222.17 187.124C221.646 187.448 221.222 187.899 220.897 188.476C220.579 189.046 220.42 189.705 220.42 190.455V200H218.074ZM248.813 200.318C247.341 200.318 246.072 199.993 245.005 199.344C243.944 198.688 243.125 197.773 242.549 196.599C241.979 195.42 241.694 194.047 241.694 192.483C241.694 190.919 241.979 189.54 242.549 188.347C243.125 187.147 243.927 186.212 244.955 185.543C245.989 184.866 247.195 184.528 248.574 184.528C249.37 184.528 250.155 184.661 250.931 184.926C251.706 185.191 252.412 185.622 253.049 186.219C253.685 186.809 254.192 187.591 254.57 188.565C254.948 189.54 255.137 190.74 255.137 192.165V193.159H243.364V191.131H252.75C252.75 190.269 252.578 189.5 252.233 188.824C251.895 188.148 251.411 187.614 250.782 187.223C250.158 186.832 249.423 186.636 248.574 186.636C247.64 186.636 246.831 186.868 246.148 187.332C245.472 187.79 244.952 188.386 244.587 189.122C244.222 189.858 244.04 190.647 244.04 191.489V192.841C244.04 193.994 244.239 194.972 244.637 195.774C245.041 196.57 245.601 197.176 246.317 197.594C247.033 198.005 247.865 198.21 248.813 198.21C249.429 198.21 249.986 198.124 250.483 197.952C250.987 197.773 251.421 197.508 251.786 197.156C252.15 196.798 252.432 196.354 252.631 195.824L254.898 196.46C254.659 197.229 254.258 197.905 253.695 198.489C253.132 199.065 252.435 199.516 251.607 199.841C250.778 200.159 249.847 200.318 248.813 200.318ZM273.223 184.727V186.716H265.309V184.727H273.223ZM267.615 181.068H269.962V195.625C269.962 196.288 270.058 196.785 270.25 197.116C270.449 197.441 270.701 197.66 271.006 197.773C271.318 197.879 271.646 197.932 271.99 197.932C272.249 197.932 272.461 197.919 272.627 197.892C272.792 197.859 272.925 197.832 273.025 197.812L273.502 199.92C273.343 199.98 273.121 200.04 272.836 200.099C272.551 200.166 272.189 200.199 271.752 200.199C271.089 200.199 270.439 200.056 269.803 199.771C269.173 199.486 268.65 199.052 268.232 198.469C267.821 197.885 267.615 197.15 267.615 196.261V181.068ZM282.794 200.318C281.415 200.318 280.205 199.99 279.164 199.334C278.13 198.678 277.322 197.759 276.738 196.58C276.162 195.4 275.873 194.021 275.873 192.443C275.873 190.852 276.162 189.464 276.738 188.277C277.322 187.09 278.13 186.169 279.164 185.513C280.205 184.857 281.415 184.528 282.794 184.528C284.172 184.528 285.379 184.857 286.413 185.513C287.454 186.169 288.262 187.09 288.839 188.277C289.422 189.464 289.714 190.852 289.714 192.443C289.714 194.021 289.422 195.4 288.839 196.58C288.262 197.759 287.454 198.678 286.413 199.334C285.379 199.99 284.172 200.318 282.794 200.318ZM282.794 198.21C283.841 198.21 284.703 197.942 285.379 197.405C286.055 196.868 286.556 196.162 286.88 195.287C287.205 194.412 287.368 193.464 287.368 192.443C287.368 191.422 287.205 190.471 286.88 189.589C286.556 188.708 286.055 187.995 285.379 187.452C284.703 186.908 283.841 186.636 282.794 186.636C281.746 186.636 280.885 186.908 280.208 187.452C279.532 187.995 279.032 188.708 278.707 189.589C278.382 190.471 278.22 191.422 278.22 192.443C278.22 193.464 278.382 194.412 278.707 195.287C279.032 196.162 279.532 196.868 280.208 197.405C280.885 197.942 281.746 198.21 282.794 198.21ZM307.813 184.727V186.716H299.898V184.727H307.813ZM302.205 181.068H304.552V195.625C304.552 196.288 304.648 196.785 304.84 197.116C305.039 197.441 305.291 197.66 305.596 197.773C305.907 197.879 306.236 197.932 306.58 197.932C306.839 197.932 307.051 197.919 307.217 197.892C307.382 197.859 307.515 197.832 307.614 197.812L308.092 199.92C307.933 199.98 307.71 200.04 307.425 200.099C307.14 200.166 306.779 200.199 306.342 200.199C305.679 200.199 305.029 200.056 304.393 199.771C303.763 199.486 303.239 199.052 302.822 198.469C302.411 197.885 302.205 197.15 302.205 196.261V181.068ZM315.837 200.358C314.87 200.358 313.991 200.176 313.202 199.811C312.414 199.44 311.787 198.906 311.323 198.21C310.859 197.508 310.627 196.659 310.627 195.665C310.627 194.79 310.799 194.08 311.144 193.537C311.489 192.987 311.95 192.556 312.526 192.244C313.103 191.933 313.739 191.701 314.435 191.548C315.138 191.389 315.844 191.263 316.553 191.17C317.481 191.051 318.234 190.962 318.81 190.902C319.394 190.836 319.818 190.726 320.083 190.574C320.355 190.421 320.491 190.156 320.491 189.778V189.699C320.491 188.718 320.222 187.955 319.685 187.412C319.155 186.868 318.35 186.597 317.269 186.597C316.149 186.597 315.271 186.842 314.634 187.332C313.998 187.823 313.55 188.347 313.292 188.903L311.065 188.108C311.462 187.18 311.993 186.457 312.656 185.94C313.325 185.417 314.054 185.052 314.843 184.847C315.638 184.634 316.421 184.528 317.19 184.528C317.68 184.528 318.244 184.588 318.88 184.707C319.523 184.82 320.143 185.055 320.739 185.413C321.343 185.771 321.843 186.312 322.241 187.034C322.638 187.757 322.837 188.724 322.837 189.938V200H320.491V197.932H320.371C320.212 198.263 319.947 198.618 319.576 198.996C319.205 199.374 318.711 199.695 318.094 199.96C317.478 200.225 316.726 200.358 315.837 200.358ZM316.195 198.25C317.123 198.25 317.906 198.068 318.542 197.703C319.185 197.339 319.669 196.868 319.994 196.291C320.325 195.714 320.491 195.108 320.491 194.472V192.324C320.391 192.443 320.173 192.553 319.835 192.652C319.503 192.745 319.119 192.828 318.681 192.901C318.25 192.967 317.829 193.027 317.418 193.08C317.014 193.126 316.686 193.166 316.434 193.199C315.824 193.278 315.254 193.408 314.724 193.587C314.2 193.759 313.776 194.021 313.451 194.372C313.133 194.717 312.974 195.187 312.974 195.784C312.974 196.599 313.275 197.216 313.879 197.634C314.488 198.045 315.261 198.25 316.195 198.25ZM329.308 194.432L329.268 191.528H329.745L336.427 184.727H339.331L332.211 191.926H332.012L329.308 194.432ZM327.12 200V179.636H329.467V200H327.12ZM336.825 200L330.859 192.443L332.529 190.812L339.808 200H336.825ZM348.125 200.318C346.654 200.318 345.384 199.993 344.317 199.344C343.257 198.688 342.438 197.773 341.861 196.599C341.291 195.42 341.006 194.047 341.006 192.483C341.006 190.919 341.291 189.54 341.861 188.347C342.438 187.147 343.24 186.212 344.267 185.543C345.301 184.866 346.508 184.528 347.887 184.528C348.682 184.528 349.468 184.661 350.243 184.926C351.019 185.191 351.725 185.622 352.361 186.219C352.998 186.809 353.505 187.591 353.882 188.565C354.26 189.54 354.449 190.74 354.449 192.165V193.159H342.676V191.131H352.063C352.063 190.269 351.891 189.5 351.546 188.824C351.208 188.148 350.724 187.614 350.094 187.223C349.471 186.832 348.735 186.636 347.887 186.636C346.952 186.636 346.143 186.868 345.461 187.332C344.784 187.79 344.264 188.386 343.9 189.122C343.535 189.858 343.353 190.647 343.353 191.489V192.841C343.353 193.994 343.551 194.972 343.949 195.774C344.354 196.57 344.914 197.176 345.63 197.594C346.346 198.005 347.177 198.21 348.125 198.21C348.742 198.21 349.299 198.124 349.796 197.952C350.3 197.773 350.734 197.508 351.098 197.156C351.463 196.798 351.745 196.354 351.944 195.824L354.211 196.46C353.972 197.229 353.571 197.905 353.007 198.489C352.444 199.065 351.748 199.516 350.919 199.841C350.091 200.159 349.159 200.318 348.125 200.318ZM47.1477 234V218.727H49.4943V234H47.1477ZM48.3409 216.182C47.8835 216.182 47.4891 216.026 47.1577 215.714C46.8329 215.403 46.6705 215.028 46.6705 214.591C46.6705 214.153 46.8329 213.779 47.1577 213.467C47.4891 213.156 47.8835 213 48.3409 213C48.7983 213 49.1894 213.156 49.5142 213.467C49.8456 213.779 50.0114 214.153 50.0114 214.591C50.0114 215.028 49.8456 215.403 49.5142 215.714C49.1894 216.026 48.7983 216.182 48.3409 216.182ZM56.1388 224.812V234H53.7923V218.727H56.0593V221.114H56.2582C56.6161 220.338 57.1597 219.715 57.8888 219.244C58.618 218.767 59.5593 218.528 60.7127 218.528C61.7468 218.528 62.6516 218.741 63.4272 219.165C64.2028 219.582 64.806 220.219 65.2369 221.074C65.6677 221.922 65.8832 222.996 65.8832 224.295V234H63.5366V224.455C63.5366 223.255 63.225 222.32 62.6019 221.651C61.9788 220.974 61.1237 220.636 60.0366 220.636C59.2875 220.636 58.618 220.799 58.0281 221.124C57.4447 221.448 56.984 221.922 56.646 222.545C56.3079 223.169 56.1388 223.924 56.1388 224.812ZM78.0462 234V218.727H80.3928V234H78.0462ZM79.2393 216.182C78.782 216.182 78.3875 216.026 78.0561 215.714C77.7313 215.403 77.5689 215.028 77.5689 214.591C77.5689 214.153 77.7313 213.779 78.0561 213.467C78.3875 213.156 78.782 213 79.2393 213C79.6967 213 80.0878 213.156 80.4126 213.467C80.7441 213.779 80.9098 214.153 80.9098 214.591C80.9098 215.028 80.7441 215.403 80.4126 215.714C80.0878 216.026 79.6967 216.182 79.2393 216.182ZM87.0373 224.812V234H84.6907V218.727H86.9577V221.114H87.1566C87.5146 220.338 88.0581 219.715 88.7873 219.244C89.5165 218.767 90.4577 218.528 91.6112 218.528C92.6452 218.528 93.5501 218.741 94.3256 219.165C95.1012 219.582 95.7044 220.219 96.1353 221.074C96.5662 221.922 96.7816 222.996 96.7816 224.295V234H94.435V224.455C94.435 223.255 94.1235 222.32 93.5004 221.651C92.8772 220.974 92.0221 220.636 90.935 220.636C90.186 220.636 89.5165 220.799 88.9265 221.124C88.3432 221.448 87.8825 221.922 87.5444 222.545C87.2063 223.169 87.0373 223.924 87.0373 224.812ZM107.871 218.727V220.716H99.6378V218.727H107.871ZM102.104 234V216.619C102.104 215.744 102.309 215.015 102.72 214.432C103.131 213.848 103.665 213.411 104.321 213.119C104.977 212.828 105.67 212.682 106.399 212.682C106.976 212.682 107.446 212.728 107.811 212.821C108.176 212.914 108.447 213 108.626 213.08L107.95 215.108C107.831 215.068 107.665 215.018 107.453 214.959C107.248 214.899 106.976 214.869 106.638 214.869C105.862 214.869 105.302 215.065 104.957 215.456C104.619 215.847 104.45 216.42 104.45 217.176V234H102.104ZM116.735 234.318C115.356 234.318 114.147 233.99 113.106 233.334C112.072 232.678 111.263 231.759 110.68 230.58C110.103 229.4 109.815 228.021 109.815 226.443C109.815 224.852 110.103 223.464 110.68 222.277C111.263 221.09 112.072 220.169 113.106 219.513C114.147 218.857 115.356 218.528 116.735 218.528C118.114 218.528 119.32 218.857 120.354 219.513C121.395 220.169 122.204 221.09 122.781 222.277C123.364 223.464 123.656 224.852 123.656 226.443C123.656 228.021 123.364 229.4 122.781 230.58C122.204 231.759 121.395 232.678 120.354 233.334C119.32 233.99 118.114 234.318 116.735 234.318ZM116.735 232.21C117.782 232.21 118.644 231.942 119.32 231.405C119.996 230.868 120.497 230.162 120.822 229.287C121.147 228.412 121.309 227.464 121.309 226.443C121.309 225.422 121.147 224.471 120.822 223.589C120.497 222.708 119.996 221.995 119.32 221.452C118.644 220.908 117.782 220.636 116.735 220.636C115.688 220.636 114.826 220.908 114.15 221.452C113.474 221.995 112.973 222.708 112.648 223.589C112.324 224.471 112.161 225.422 112.161 226.443C112.161 227.464 112.324 228.412 112.648 229.287C112.973 230.162 113.474 230.868 114.15 231.405C114.826 231.942 115.688 232.21 116.735 232.21ZM127.238 234V218.727H129.505V221.034H129.664C129.942 220.278 130.446 219.665 131.175 219.195C131.904 218.724 132.726 218.489 133.641 218.489C133.813 218.489 134.029 218.492 134.287 218.499C134.546 218.505 134.741 218.515 134.874 218.528V220.915C134.794 220.895 134.612 220.865 134.327 220.825C134.049 220.779 133.754 220.756 133.442 220.756C132.7 220.756 132.037 220.911 131.453 221.223C130.877 221.528 130.419 221.952 130.081 222.496C129.75 223.033 129.584 223.646 129.584 224.335V234H127.238ZM137.656 234V218.727H139.923V221.114H140.121C140.44 220.298 140.953 219.665 141.663 219.214C142.372 218.757 143.224 218.528 144.218 218.528C145.226 218.528 146.064 218.757 146.734 219.214C147.41 219.665 147.937 220.298 148.315 221.114H148.474C148.865 220.325 149.451 219.698 150.234 219.234C151.016 218.764 151.954 218.528 153.048 218.528C154.413 218.528 155.53 218.956 156.398 219.811C157.267 220.66 157.701 221.982 157.701 223.778V234H155.354V223.778C155.354 222.652 155.046 221.846 154.43 221.362C153.813 220.878 153.087 220.636 152.252 220.636C151.178 220.636 150.346 220.961 149.756 221.611C149.166 222.254 148.871 223.069 148.871 224.057V234H146.485V223.54C146.485 222.671 146.203 221.972 145.64 221.442C145.076 220.905 144.351 220.636 143.462 220.636C142.853 220.636 142.282 220.799 141.752 221.124C141.228 221.448 140.804 221.899 140.479 222.476C140.161 223.046 140.002 223.705 140.002 224.455V234H137.656ZM166.486 234.358C165.518 234.358 164.64 234.176 163.851 233.811C163.062 233.44 162.436 232.906 161.972 232.21C161.508 231.508 161.276 230.659 161.276 229.665C161.276 228.79 161.448 228.08 161.793 227.537C162.137 226.987 162.598 226.556 163.175 226.244C163.751 225.933 164.388 225.701 165.084 225.548C165.786 225.389 166.492 225.263 167.202 225.17C168.13 225.051 168.882 224.962 169.459 224.902C170.042 224.836 170.466 224.726 170.732 224.574C171.003 224.421 171.139 224.156 171.139 223.778V223.699C171.139 222.718 170.871 221.955 170.334 221.412C169.804 220.868 168.998 220.597 167.918 220.597C166.797 220.597 165.919 220.842 165.283 221.332C164.646 221.823 164.199 222.347 163.94 222.903L161.713 222.108C162.111 221.18 162.641 220.457 163.304 219.94C163.973 219.417 164.703 219.052 165.491 218.847C166.287 218.634 167.069 218.528 167.838 218.528C168.329 218.528 168.892 218.588 169.528 218.707C170.171 218.82 170.791 219.055 171.388 219.413C171.991 219.771 172.491 220.312 172.889 221.034C173.287 221.757 173.486 222.724 173.486 223.938V234H171.139V231.932H171.02C170.861 232.263 170.596 232.618 170.224 232.996C169.853 233.374 169.359 233.695 168.743 233.96C168.126 234.225 167.374 234.358 166.486 234.358ZM166.844 232.25C167.772 232.25 168.554 232.068 169.19 231.703C169.833 231.339 170.317 230.868 170.642 230.291C170.973 229.714 171.139 229.108 171.139 228.472V226.324C171.04 226.443 170.821 226.553 170.483 226.652C170.152 226.745 169.767 226.828 169.33 226.901C168.899 226.967 168.478 227.027 168.067 227.08C167.662 227.126 167.334 227.166 167.082 227.199C166.473 227.278 165.902 227.408 165.372 227.587C164.848 227.759 164.424 228.021 164.099 228.372C163.781 228.717 163.622 229.187 163.622 229.784C163.622 230.599 163.924 231.216 164.527 231.634C165.137 232.045 165.909 232.25 166.844 232.25ZM184.411 218.727V220.716H176.496V218.727H184.411ZM178.803 215.068H181.15V229.625C181.15 230.288 181.246 230.785 181.438 231.116C181.637 231.441 181.889 231.66 182.194 231.773C182.505 231.879 182.833 231.932 183.178 231.932C183.436 231.932 183.649 231.919 183.814 231.892C183.98 231.859 184.113 231.832 184.212 231.812L184.689 233.92C184.53 233.98 184.308 234.04 184.023 234.099C183.738 234.166 183.377 234.199 182.939 234.199C182.276 234.199 181.627 234.056 180.99 233.771C180.361 233.486 179.837 233.052 179.419 232.469C179.008 231.885 178.803 231.15 178.803 230.261V215.068ZM187.941 234V218.727H190.287V234H187.941ZM189.134 216.182C188.676 216.182 188.282 216.026 187.951 215.714C187.626 215.403 187.463 215.028 187.463 214.591C187.463 214.153 187.626 213.779 187.951 213.467C188.282 213.156 188.676 213 189.134 213C189.591 213 189.982 213.156 190.307 213.467C190.639 213.779 190.804 214.153 190.804 214.591C190.804 215.028 190.639 215.403 190.307 215.714C189.982 216.026 189.591 216.182 189.134 216.182ZM200.79 234.318C199.411 234.318 198.201 233.99 197.161 233.334C196.126 232.678 195.318 231.759 194.734 230.58C194.158 229.4 193.869 228.021 193.869 226.443C193.869 224.852 194.158 223.464 194.734 222.277C195.318 221.09 196.126 220.169 197.161 219.513C198.201 218.857 199.411 218.528 200.79 218.528C202.169 218.528 203.375 218.857 204.409 219.513C205.45 220.169 206.259 221.09 206.835 222.277C207.419 223.464 207.71 224.852 207.71 226.443C207.71 228.021 207.419 229.4 206.835 230.58C206.259 231.759 205.45 232.678 204.409 233.334C203.375 233.99 202.169 234.318 200.79 234.318ZM200.79 232.21C201.837 232.21 202.699 231.942 203.375 231.405C204.051 230.868 204.552 230.162 204.876 229.287C205.201 228.412 205.364 227.464 205.364 226.443C205.364 225.422 205.201 224.471 204.876 223.589C204.552 222.708 204.051 221.995 203.375 221.452C202.699 220.908 201.837 220.636 200.79 220.636C199.742 220.636 198.881 220.908 198.205 221.452C197.528 221.995 197.028 222.708 196.703 223.589C196.378 224.471 196.216 225.422 196.216 226.443C196.216 227.464 196.378 228.412 196.703 229.287C197.028 230.162 197.528 230.868 198.205 231.405C198.881 231.942 199.742 232.21 200.79 232.21ZM213.639 224.812V234H211.292V218.727H213.559V221.114H213.758C214.116 220.338 214.66 219.715 215.389 219.244C216.118 218.767 217.059 218.528 218.213 218.528C219.247 218.528 220.152 218.741 220.927 219.165C221.703 219.582 222.306 220.219 222.737 221.074C223.168 221.922 223.383 222.996 223.383 224.295V234H221.037V224.455C221.037 223.255 220.725 222.32 220.102 221.651C219.479 220.974 218.624 220.636 217.537 220.636C216.788 220.636 216.118 220.799 215.528 221.124C214.945 221.448 214.484 221.922 214.146 222.545C213.808 223.169 213.639 223.924 213.639 224.812Z" fill="#586858"/>
<path d="M53.75 292H47.4659V271.636H54.0284C56.0038 271.636 57.6941 272.044 59.0994 272.859C60.5047 273.668 61.5819 274.831 62.331 276.349C63.08 277.861 63.4545 279.67 63.4545 281.778C63.4545 283.9 63.0767 285.726 62.321 287.257C61.5653 288.782 60.465 289.955 59.0199 290.777C57.5748 291.592 55.8182 292 53.75 292ZM49.9318 289.812H53.5909C55.2746 289.812 56.67 289.488 57.777 288.838C58.884 288.188 59.7093 287.264 60.2528 286.064C60.7964 284.864 61.0682 283.436 61.0682 281.778C61.0682 280.134 60.7997 278.719 60.2628 277.533C59.7259 276.339 58.9238 275.425 57.8565 274.788C56.7893 274.145 55.4602 273.824 53.8693 273.824H49.9318V289.812ZM67.2727 292V276.727H69.6193V292H67.2727ZM68.4659 274.182C68.0085 274.182 67.6141 274.026 67.2827 273.714C66.9579 273.403 66.7955 273.028 66.7955 272.591C66.7955 272.153 66.9579 271.779 67.2827 271.467C67.6141 271.156 68.0085 271 68.4659 271C68.9233 271 69.3144 271.156 69.6392 271.467C69.9706 271.779 70.1364 272.153 70.1364 272.591C70.1364 273.028 69.9706 273.403 69.6392 273.714C69.3144 274.026 68.9233 274.182 68.4659 274.182ZM80.7184 276.727V278.716H72.4854V276.727H80.7184ZM74.9513 292V274.619C74.9513 273.744 75.1568 273.015 75.5678 272.432C75.9788 271.848 76.5124 271.411 77.1687 271.119C77.8249 270.828 78.5176 270.682 79.2468 270.682C79.8235 270.682 80.2942 270.728 80.6587 270.821C81.0233 270.914 81.2951 271 81.4741 271.08L80.7979 273.108C80.6786 273.068 80.5129 273.018 80.3008 272.959C80.0953 272.899 79.8235 272.869 79.4854 272.869C78.7099 272.869 78.1497 273.065 77.805 273.456C77.467 273.847 77.2979 274.42 77.2979 275.176V292H74.9513ZM90.8082 276.727V278.716H82.5753V276.727H90.8082ZM85.0412 292V274.619C85.0412 273.744 85.2467 273.015 85.6577 272.432C86.0687 271.848 86.6023 271.411 87.2585 271.119C87.9148 270.828 88.6075 270.682 89.3366 270.682C89.9134 270.682 90.384 270.728 90.7486 270.821C91.1132 270.914 91.3849 271 91.5639 271.08L90.8878 273.108C90.7685 273.068 90.6027 273.018 90.3906 272.959C90.1851 272.899 89.9134 272.869 89.5753 272.869C88.7997 272.869 88.2396 273.065 87.8949 273.456C87.5568 273.847 87.3878 274.42 87.3878 275.176V292H85.0412ZM94.0969 292V276.727H96.4435V292H94.0969ZM95.2901 274.182C94.8327 274.182 94.4383 274.026 94.1069 273.714C93.7821 273.403 93.6197 273.028 93.6197 272.591C93.6197 272.153 93.7821 271.779 94.1069 271.467C94.4383 271.156 94.8327 271 95.2901 271C95.7475 271 96.1386 271.156 96.4634 271.467C96.7949 271.779 96.9606 272.153 96.9606 272.591C96.9606 273.028 96.7949 273.403 96.4634 273.714C96.1386 274.026 95.7475 274.182 95.2901 274.182ZM106.946 292.318C105.514 292.318 104.281 291.98 103.247 291.304C102.213 290.628 101.418 289.696 100.861 288.51C100.304 287.323 100.026 285.968 100.026 284.443C100.026 282.892 100.311 281.523 100.881 280.337C101.457 279.143 102.259 278.212 103.287 277.543C104.321 276.866 105.527 276.528 106.906 276.528C107.98 276.528 108.948 276.727 109.81 277.125C110.671 277.523 111.377 278.08 111.928 278.795C112.478 279.511 112.819 280.347 112.952 281.301H110.605C110.426 280.605 110.028 279.989 109.412 279.452C108.802 278.908 107.98 278.636 106.946 278.636C106.031 278.636 105.229 278.875 104.54 279.352C103.857 279.823 103.323 280.489 102.939 281.351C102.561 282.206 102.372 283.21 102.372 284.364C102.372 285.544 102.558 286.571 102.929 287.446C103.307 288.321 103.837 289 104.52 289.484C105.209 289.968 106.018 290.21 106.946 290.21C107.556 290.21 108.109 290.104 108.607 289.892C109.104 289.68 109.525 289.375 109.869 288.977C110.214 288.58 110.459 288.102 110.605 287.545H112.952C112.819 288.447 112.491 289.259 111.967 289.982C111.45 290.697 110.764 291.268 109.909 291.692C109.061 292.109 108.073 292.318 106.946 292.318ZM126.007 285.756V276.727H128.354V292H126.007V289.415H125.848C125.49 290.19 124.933 290.85 124.178 291.393C123.422 291.93 122.467 292.199 121.314 292.199C120.359 292.199 119.511 291.99 118.768 291.572C118.026 291.148 117.443 290.512 117.018 289.663C116.594 288.808 116.382 287.731 116.382 286.432V276.727H118.729V286.273C118.729 287.386 119.04 288.275 119.663 288.938C120.293 289.6 121.095 289.932 122.07 289.932C122.653 289.932 123.246 289.783 123.849 289.484C124.459 289.186 124.97 288.729 125.381 288.112C125.798 287.496 126.007 286.71 126.007 285.756ZM134.998 271.636V292H132.652V271.636H134.998ZM145.938 276.727V278.716H138.023V276.727H145.938ZM140.33 273.068H142.677V287.625C142.677 288.288 142.773 288.785 142.965 289.116C143.164 289.441 143.416 289.66 143.721 289.773C144.032 289.879 144.361 289.932 144.705 289.932C144.964 289.932 145.176 289.919 145.342 289.892C145.507 289.859 145.64 289.832 145.739 289.812L146.217 291.92C146.058 291.98 145.835 292.04 145.55 292.099C145.265 292.166 144.904 292.199 144.467 292.199C143.804 292.199 143.154 292.056 142.518 291.771C141.888 291.486 141.364 291.052 140.947 290.469C140.536 289.885 140.33 289.15 140.33 288.261V273.068ZM150.979 297.727C150.582 297.727 150.227 297.694 149.915 297.628C149.604 297.568 149.388 297.509 149.269 297.449L149.866 295.381C150.436 295.527 150.94 295.58 151.377 295.54C151.815 295.5 152.202 295.304 152.54 294.953C152.885 294.608 153.2 294.048 153.485 293.273L153.923 292.08L148.275 276.727H150.82L155.036 288.898H155.195L159.411 276.727H161.957L155.474 294.227C155.182 295.016 154.821 295.669 154.39 296.186C153.959 296.71 153.459 297.098 152.888 297.349C152.325 297.601 151.689 297.727 150.979 297.727ZM172.929 292V276.727H175.196V279.114H175.395C175.713 278.298 176.227 277.665 176.936 277.214C177.645 276.757 178.497 276.528 179.491 276.528C180.499 276.528 181.338 276.757 182.007 277.214C182.683 277.665 183.21 278.298 183.588 279.114H183.747C184.138 278.325 184.725 277.698 185.507 277.234C186.289 276.764 187.227 276.528 188.321 276.528C189.687 276.528 190.804 276.956 191.672 277.811C192.54 278.66 192.974 279.982 192.974 281.778V292H190.628V281.778C190.628 280.652 190.32 279.846 189.703 279.362C189.087 278.878 188.361 278.636 187.526 278.636C186.452 278.636 185.62 278.961 185.03 279.611C184.44 280.254 184.145 281.069 184.145 282.057V292H181.759V281.54C181.759 280.671 181.477 279.972 180.913 279.442C180.35 278.905 179.624 278.636 178.736 278.636C178.126 278.636 177.556 278.799 177.026 279.124C176.502 279.448 176.078 279.899 175.753 280.476C175.435 281.046 175.276 281.705 175.276 282.455V292H172.929ZM206.89 285.756V276.727H209.237V292H206.89V289.415H206.731C206.373 290.19 205.816 290.85 205.06 291.393C204.305 291.93 203.35 292.199 202.197 292.199C201.242 292.199 200.394 291.99 199.651 291.572C198.909 291.148 198.326 290.512 197.901 289.663C197.477 288.808 197.265 287.731 197.265 286.432V276.727H199.612V286.273C199.612 287.386 199.923 288.275 200.546 288.938C201.176 289.6 201.978 289.932 202.952 289.932C203.536 289.932 204.129 289.783 204.732 289.484C205.342 289.186 205.853 288.729 206.263 288.112C206.681 287.496 206.89 286.71 206.89 285.756ZM215.881 271.636V292H213.534V271.636H215.881ZM226.821 276.727V278.716H218.906V276.727H226.821ZM221.213 273.068H223.56V287.625C223.56 288.288 223.656 288.785 223.848 289.116C224.047 289.441 224.299 289.66 224.604 289.773C224.915 289.879 225.243 289.932 225.588 289.932C225.847 289.932 226.059 289.919 226.224 289.892C226.39 289.859 226.523 289.832 226.622 289.812L227.099 291.92C226.94 291.98 226.718 292.04 226.433 292.099C226.148 292.166 225.787 292.199 225.349 292.199C224.687 292.199 224.037 292.056 223.401 291.771C222.771 291.486 222.247 291.052 221.83 290.469C221.419 289.885 221.213 289.15 221.213 288.261V273.068ZM230.351 292V276.727H232.697V292H230.351ZM231.544 274.182C231.087 274.182 230.692 274.026 230.361 273.714C230.036 273.403 229.874 273.028 229.874 272.591C229.874 272.153 230.036 271.779 230.361 271.467C230.692 271.156 231.087 271 231.544 271C232.001 271 232.393 271.156 232.717 271.467C233.049 271.779 233.214 272.153 233.214 272.591C233.214 273.028 233.049 273.403 232.717 273.714C232.393 274.026 232.001 274.182 231.544 274.182ZM245.745 282.176V284.364H236.836V282.176H245.745ZM256.516 276.727V278.716H248.602V276.727H256.516ZM250.908 273.068H253.255V287.625C253.255 288.288 253.351 288.785 253.543 289.116C253.742 289.441 253.994 289.66 254.299 289.773C254.611 289.879 254.939 289.932 255.283 289.932C255.542 289.932 255.754 289.919 255.92 289.892C256.085 289.859 256.218 289.832 256.317 289.812L256.795 291.92C256.636 291.98 256.414 292.04 256.129 292.099C255.844 292.166 255.482 292.199 255.045 292.199C254.382 292.199 253.732 292.056 253.096 291.771C252.466 291.486 251.942 291.052 251.525 290.469C251.114 289.885 250.908 289.15 250.908 288.261V273.068ZM264.54 292.358C263.573 292.358 262.694 292.176 261.906 291.811C261.117 291.44 260.49 290.906 260.026 290.21C259.562 289.508 259.33 288.659 259.33 287.665C259.33 286.79 259.503 286.08 259.847 285.537C260.192 284.987 260.653 284.556 261.229 284.244C261.806 283.933 262.442 283.701 263.138 283.548C263.841 283.389 264.547 283.263 265.256 283.17C266.184 283.051 266.937 282.962 267.513 282.902C268.097 282.836 268.521 282.726 268.786 282.574C269.058 282.421 269.194 282.156 269.194 281.778V281.699C269.194 280.718 268.925 279.955 268.388 279.412C267.858 278.868 267.053 278.597 265.972 278.597C264.852 278.597 263.974 278.842 263.337 279.332C262.701 279.823 262.254 280.347 261.995 280.903L259.768 280.108C260.165 279.18 260.696 278.457 261.359 277.94C262.028 277.417 262.757 277.052 263.546 276.847C264.342 276.634 265.124 276.528 265.893 276.528C266.383 276.528 266.947 276.588 267.583 276.707C268.226 276.82 268.846 277.055 269.442 277.413C270.046 277.771 270.546 278.312 270.944 279.034C271.342 279.757 271.54 280.724 271.54 281.938V292H269.194V289.932H269.075C268.915 290.263 268.65 290.618 268.279 290.996C267.908 291.374 267.414 291.695 266.798 291.96C266.181 292.225 265.429 292.358 264.54 292.358ZM264.898 290.25C265.826 290.25 266.609 290.068 267.245 289.703C267.888 289.339 268.372 288.868 268.697 288.291C269.028 287.714 269.194 287.108 269.194 286.472V284.324C269.094 284.443 268.876 284.553 268.538 284.652C268.206 284.745 267.822 284.828 267.384 284.901C266.953 284.967 266.532 285.027 266.121 285.08C265.717 285.126 265.389 285.166 265.137 285.199C264.527 285.278 263.957 285.408 263.427 285.587C262.903 285.759 262.479 286.021 262.154 286.372C261.836 286.717 261.677 287.187 261.677 287.784C261.677 288.599 261.978 289.216 262.582 289.634C263.192 290.045 263.964 290.25 264.898 290.25ZM286.642 280.148L284.534 280.744C284.401 280.393 284.206 280.052 283.947 279.72C283.695 279.382 283.35 279.104 282.913 278.885C282.475 278.666 281.915 278.557 281.233 278.557C280.298 278.557 279.519 278.772 278.896 279.203C278.279 279.627 277.971 280.168 277.971 280.824C277.971 281.407 278.183 281.868 278.608 282.206C279.032 282.544 279.695 282.826 280.596 283.051L282.863 283.608C284.229 283.939 285.246 284.446 285.916 285.129C286.585 285.805 286.92 286.677 286.92 287.744C286.92 288.619 286.668 289.402 286.164 290.091C285.667 290.78 284.971 291.324 284.076 291.722C283.181 292.119 282.141 292.318 280.954 292.318C279.396 292.318 278.107 291.98 277.086 291.304C276.065 290.628 275.419 289.64 275.147 288.341L277.375 287.784C277.587 288.606 277.988 289.223 278.578 289.634C279.174 290.045 279.953 290.25 280.914 290.25C282.008 290.25 282.877 290.018 283.52 289.554C284.169 289.083 284.494 288.52 284.494 287.864C284.494 287.333 284.308 286.889 283.937 286.531C283.566 286.167 282.996 285.895 282.227 285.716L279.681 285.119C278.283 284.788 277.255 284.274 276.599 283.578C275.949 282.875 275.625 281.997 275.625 280.943C275.625 280.081 275.867 279.319 276.35 278.656C276.841 277.993 277.507 277.473 278.349 277.095C279.198 276.717 280.159 276.528 281.233 276.528C282.744 276.528 283.931 276.86 284.792 277.523C285.661 278.186 286.277 279.061 286.642 280.148ZM292.64 286.432L292.6 283.528H293.077L299.759 276.727H302.663L295.543 283.926H295.344L292.64 286.432ZM290.452 292V271.636H292.799V292H290.452ZM300.157 292L294.191 284.443L295.862 282.812L303.14 292H300.157ZM305.683 292V276.727H308.029V292H305.683ZM306.876 274.182C306.419 274.182 306.024 274.026 305.693 273.714C305.368 273.403 305.206 273.028 305.206 272.591C305.206 272.153 305.368 271.779 305.693 271.467C306.024 271.156 306.419 271 306.876 271C307.333 271 307.725 271.156 308.049 271.467C308.381 271.779 308.547 272.153 308.547 272.591C308.547 273.028 308.381 273.403 308.049 273.714C307.725 274.026 307.333 274.182 306.876 274.182ZM314.674 282.812V292H312.327V276.727H314.594V279.114H314.793C315.151 278.338 315.695 277.715 316.424 277.244C317.153 276.767 318.094 276.528 319.248 276.528C320.282 276.528 321.187 276.741 321.962 277.165C322.738 277.582 323.341 278.219 323.772 279.074C324.203 279.922 324.418 280.996 324.418 282.295V292H322.072V282.455C322.072 281.255 321.76 280.32 321.137 279.651C320.514 278.974 319.659 278.636 318.572 278.636C317.823 278.636 317.153 278.799 316.563 279.124C315.98 279.448 315.519 279.922 315.181 280.545C314.843 281.169 314.674 281.924 314.674 282.812ZM334.871 298.045C333.738 298.045 332.763 297.9 331.948 297.608C331.132 297.323 330.453 296.945 329.909 296.474C329.373 296.01 328.945 295.513 328.627 294.983L330.496 293.67C330.708 293.949 330.977 294.267 331.301 294.625C331.626 294.99 332.07 295.304 332.634 295.57C333.204 295.841 333.95 295.977 334.871 295.977C336.104 295.977 337.122 295.679 337.924 295.082C338.726 294.486 339.127 293.551 339.127 292.278V289.176H338.928C338.756 289.455 338.51 289.799 338.192 290.21C337.881 290.615 337.43 290.976 336.84 291.294C336.257 291.606 335.468 291.761 334.473 291.761C333.24 291.761 332.133 291.47 331.152 290.886C330.178 290.303 329.406 289.455 328.836 288.341C328.272 287.227 327.99 285.875 327.99 284.284C327.99 282.72 328.266 281.357 328.816 280.197C329.366 279.031 330.132 278.129 331.113 277.493C332.094 276.85 333.227 276.528 334.513 276.528C335.507 276.528 336.296 276.694 336.88 277.026C337.47 277.35 337.92 277.722 338.232 278.139C338.55 278.55 338.795 278.888 338.968 279.153H339.206V276.727H341.473V292.438C341.473 293.75 341.175 294.817 340.578 295.639C339.989 296.468 339.193 297.074 338.192 297.459C337.198 297.85 336.091 298.045 334.871 298.045ZM334.792 289.653C335.733 289.653 336.528 289.438 337.178 289.007C337.828 288.576 338.321 287.956 338.659 287.148C338.998 286.339 339.167 285.371 339.167 284.244C339.167 283.144 339.001 282.173 338.669 281.331C338.338 280.489 337.847 279.83 337.198 279.352C336.548 278.875 335.746 278.636 334.792 278.636C333.797 278.636 332.969 278.888 332.306 279.392C331.65 279.896 331.156 280.572 330.824 281.42C330.499 282.269 330.337 283.21 330.337 284.244C330.337 285.305 330.503 286.243 330.834 287.058C331.172 287.867 331.669 288.503 332.326 288.967C332.989 289.425 333.81 289.653 334.792 289.653Z" fill="#586858"/>
</svg>
