<svg width="371" height="405" viewBox="0 0 371 405" fill="none" xmlns="http://www.w3.org/2000/svg">
<path d="M26.5423 222.099C26.046 226.727 27.2906 232.358 28.7204 236.758C35.914 230.518 46 227.892 50.8896 232.256C54.8032 235.748 55.7815 240.105 54.0894 243.222C52.3974 246.338 48.2934 247.563 43.5 247C37.6062 246.307 31.0925 244.056 28.7204 236.758C25.6239 239.444 22.098 243.103 19.7515 246.222C23.9592 252.243 31.2305 256.304 39.8674 257.765C52.5121 259.903 65.113 257.765 68.5 247.5C72.2792 236.047 66.9173 225.157 54.0894 220C44.6503 216.205 34.3512 218.127 26.5423 222.099Z" fill="black"/>
<path d="M31.0267 202.362C35.6385 191.974 48.897 181.595 56.8774 176.035C60.4501 173.547 61.9946 168.918 60.3742 164.876V164.876C58.1864 159.42 51.4403 157.623 47.0405 161.522C36.8346 170.566 20.9478 186.281 16.0359 200.284C11.9531 211.924 12.3438 225.786 13.3452 231.448C17.077 227.668 22.0183 224.4 26.5423 222.099C26.6818 220.798 27.7836 209.667 31.0267 202.362Z" fill="black"/>
<path d="M28.7204 236.758C27.2906 232.358 26.046 226.727 26.5423 222.099C22.0183 224.4 17.077 227.668 13.3452 231.448C14.2254 236.425 16.9439 242.205 19.7515 246.222C22.098 243.103 25.6239 239.444 28.7204 236.758Z" fill="black"/>
<path d="M21.6836 283.942C14.3517 271.51 10.5424 260.352 18.4811 248.211C19.1364 247.209 18.9733 247.257 19.7515 246.222C16.9439 242.205 14.2254 236.425 13.3452 231.448C9.683 235.159 7.18635 238.601 5.14509 243.222C-0.50001 256 2.19503 275.515 10.283 289.672C11.9755 292.635 13.823 295.644 15.817 298.597C17.9449 294.288 20.5148 290.327 23.494 286.919C22.8657 285.918 22.2619 284.922 21.6836 283.942Z" fill="black"/>
<path d="M68.5 298.597C69.1818 303.782 67.0467 307.265 62 309.5C54.1834 312.961 42.3259 308.241 34.4861 299.894C31.9914 303.645 28.738 308.062 27.1361 312.603C37.7461 323.263 47 328.5 63.5 326.5C77.1856 324.841 87.6437 313.938 85.9929 298.597C84.3421 283.257 69.4512 274.91 56 273.5C42.5249 272.087 31.5548 277.7 23.494 286.919C26.3182 291.421 30.7776 295.945 34.4861 299.894C41.6084 289.184 51.1843 287.428 59 289.672C63.856 291.066 67.9875 294.7 68.5 298.597Z" fill="black"/>
<path d="M23.494 286.919C20.5148 290.327 17.9449 294.288 15.817 298.597C19.1858 303.587 22.9726 308.419 27.1361 312.603C28.738 308.062 31.9914 303.645 34.4861 299.894C30.7776 295.945 26.3182 291.421 23.494 286.919Z" fill="black"/>
<path d="M56.0135 366.5C39.9759 369.42 31.3471 357.383 25.9107 343.83C22.4247 335.139 23.3777 323.256 27.1361 312.603C22.9726 308.419 19.1858 303.587 15.817 298.597C8.85277 312.701 6.62418 333.686 10.283 348C16.0452 370.544 36 391 59 388C73.6247 386.092 85.9929 376.604 85.9929 363.5C85.9929 361 84.3154 355.059 78.5 353C69.1419 349.687 65.8945 364.701 56.0135 366.5Z" fill="black"/>
<path fill-rule="evenodd" clip-rule="evenodd" d="M188.756 81C275.119 81 371 110.346 371 175.481C371 236.354 269.468 249 188.756 249C119.627 249 41 227.617 41 175.481C41 118.426 113.105 81 188.756 81Z" fill="black"/>
<path d="M279.523 239.379C281.079 228.141 292.183 221.778 303.529 221.778H341.531C341.531 221.778 353.559 246.497 341.531 258.367C329.504 270.237 298.194 268.715 285.021 258.367C279.31 253.88 278.551 246.407 279.523 239.379Z" fill="black"/>
<path d="M326.855 240.405C326.623 237.318 325.985 234.633 325.896 233.449C325.807 232.264 325.43 229.519 328.757 228.693C332.083 227.866 335.047 235.048 335.035 240.235C335.025 244.666 335.12 250.12 330.397 250.494C328.564 250.639 327.362 250.077 327.046 248.733C326.595 246.821 327.087 243.492 326.855 240.405Z" fill="#E4628E"/>
<path d="M310.351 243.537C310.351 240.398 309.813 237.33 309.534 236.207C309.254 235.085 308.906 231.524 312.536 230.855C316.165 230.185 318.255 238.294 317.889 243.537C317.576 248.017 317.609 253.539 313.282 253.539C311.602 253.539 310.547 251.738 310.351 250.353C310.071 248.383 310.351 246.677 310.351 243.537Z" fill="#E4628E"/>
<path d="M294.799 243.395C294.799 240.415 293.922 237.126 293.671 236.06C293.42 234.995 293.049 231.486 296.307 230.851C299.565 230.215 302.12 238.418 301.792 243.395C301.511 247.647 301.588 252.765 297.703 252.765C296.196 252.765 294.975 251.727 294.799 250.412C294.548 248.543 294.799 246.375 294.799 243.395Z" fill="#E4628E"/>
<path d="M215.115 245.036C216.086 233.675 227.457 227.234 238.859 227.234H270.855C270.855 227.234 281.627 249.661 270.855 260.431C260.083 271.201 232.041 269.821 220.244 260.431C215.616 256.749 214.619 250.848 215.115 245.036Z" fill="black"/>
<path d="M243.665 244.708C243.665 241.635 242.784 238.243 242.532 237.144C242.281 236.045 241.526 233.489 244.797 232.833C248.068 232.178 250.788 239.576 250.458 244.708C250.176 249.094 250.206 254.499 246.306 254.499C244.793 254.499 243.464 253.813 243.287 252.458C243.036 250.529 243.665 247.782 243.665 244.708Z" fill="#E4628E"/>
<path d="M229.939 244.418C229.939 241.419 229.03 238.11 228.77 237.038C228.51 235.966 227.732 233.472 231.108 232.832C234.484 232.193 237.292 239.41 236.951 244.418C236.66 248.696 236.692 253.97 232.666 253.97C231.104 253.97 229.732 253.3 229.55 251.978C229.29 250.097 229.939 247.416 229.939 244.418Z" fill="#E4628E"/>
<path d="M256.111 244.195C256.111 241.459 255.231 238.439 254.979 237.461C254.727 236.483 253.972 234.207 257.243 233.623C260.514 233.04 263.234 239.625 262.904 244.195C262.622 248.099 262.652 252.911 258.753 252.911C257.239 252.911 255.91 252.3 255.733 251.093C255.482 249.377 256.111 246.931 256.111 244.195Z" fill="#E4628E"/>
<path d="M368.759 93.0492C368.759 124.859 333.776 141.073 292.416 141.073C251.057 141.073 215.148 124.859 215.148 93.0492C215.148 61.2395 251.057 32.9907 292.416 32.9907C333.776 32.9907 368.759 61.2395 368.759 93.0492Z" fill="black"/>
<path d="M257.512 6.04562C258.325 3.59054 261.651 3.23643 262.95 5.4665L284.545 42.5257C285.641 44.4058 284.429 46.7957 282.263 47.0263L247.15 50.7653C244.984 50.9959 243.308 48.9135 243.994 46.8438L257.512 6.04562Z" fill="black"/>
<path d="M321.386 5.46371C322.699 3.23503 326.024 3.58925 326.825 6.043L340.13 46.8191C340.805 48.8877 339.117 50.9688 336.951 50.7381L301.838 46.998C299.673 46.7673 298.473 44.3786 299.579 42.4997L321.386 5.46371Z" fill="black"/>
<path d="M283.09 115.211C286.726 110.958 297.181 110.958 300.817 115.211C303.061 117.836 303.061 120.486 300.817 123.111C297.181 127.364 286.726 127.364 283.09 123.111C280.845 120.486 280.845 117.836 283.09 115.211Z" fill="#E4628E"/>
<path d="M261.334 109.51C258.12 108.164 255.326 103.681 253.946 104.04C252.567 104.399 251.793 104.799 251.316 106.109C250.175 109.243 255.885 112.687 259.772 114.185C262.212 115.126 266.29 114.698 268.783 115.494C270.957 116.188 273.653 117.746 275.883 117.279C277.675 116.904 278.433 116.17 278.148 114.403C277.728 111.797 272.866 111.666 270.725 110.874C268.583 110.081 264.296 110.751 261.334 109.51Z" fill="#1DA573"/>
<path d="M321.624 127.232C324.571 128.165 327.436 132.056 328.616 131.585C329.796 131.115 330.44 130.666 330.739 129.401C331.456 126.374 326.124 123.738 322.571 122.73C320.34 122.097 316.795 122.9 314.531 122.407C312.558 121.977 310.046 120.796 308.128 121.451C306.587 121.977 305.988 122.735 306.399 124.35C307.006 126.731 311.292 126.37 313.246 126.895C315.2 127.419 318.907 126.372 321.624 127.232Z" fill="#1DA573"/>
<path d="M270.516 127.672C273.561 127.049 275.265 126.452 276.36 125.494C277.316 124.658 277.837 121.578 276.294 120.885C274.108 119.904 272.749 122.044 269.155 122.915C266.899 123.462 264.302 123.832 262.139 125.291C260.486 126.407 255.402 130.773 255.423 132.195C255.443 133.616 256.2 135.317 257.819 135.427C259.437 135.536 260.348 132.49 262.231 131.7C264.114 130.91 267.709 128.247 270.516 127.672Z" fill="#1DA573"/>
<path d="M313.462 108.386C310.409 109.703 306.704 111.402 306.192 112.683L306.189 112.689C305.679 113.966 305.391 114.685 306.571 115.747C309.141 118.063 312.698 114.994 316.279 113.302C318.527 112.24 322.01 109.785 324.166 108.574C326.046 107.518 328.839 106.801 329.764 104.817C330.507 103.223 330.464 102.049 328.79 100.907C326.321 99.2235 323.326 102.672 321.382 103.629C319.437 104.586 316.275 107.172 313.462 108.386Z" fill="#1DA573"/>
<path d="M204.397 98.7372C201.897 85.7373 211.897 83.2373 215.397 92.7373C218.897 102.237 220.935 107.237 223.897 111.737C228.9 119.34 238.397 132.737 247.397 137.237C257.599 142.339 262.251 144.42 272.397 145.737C290.578 148.098 301.868 145.932 319.274 141.187C328.527 138.664 337.872 133.071 342.853 129.817C347.833 126.563 349.968 136.945 347.122 139.734C344.276 142.523 340.864 145.841 327.199 150.974C291.897 164.237 267.298 157.776 261.897 156.737C248.897 154.237 229.953 143.769 220.397 130.737C214.897 123.237 206.897 111.737 204.397 98.7372Z" fill="#3A77AD"/>
<path d="M251.389 71.0001C244.632 71.0212 236.866 74.0708 235.33 78.4408C233.794 82.8107 238.015 82.0581 239.97 80.759C241.925 79.4598 245.669 76.6459 250.399 76.6626C255.078 76.6791 260.466 81.3935 262.281 82.1021C264.096 82.8107 267.727 81.8953 266.889 78.4408C266.051 74.9862 258.193 70.9789 251.389 71.0001Z" fill="#E4628E"/>
<ellipse cx="246.788" cy="87.8648" rx="6.82441" ry="6.77052" fill="white"/>
<path d="M337.005 71.0001C330.249 71.0212 322.483 74.0708 320.947 78.4408C319.411 82.8107 323.6 82.6926 325.555 81.3935C327.51 80.0943 332.276 77.3612 337.005 77.3778C341.683 77.3943 346.081 81.3935 347.897 82.1021C349.712 82.8106 353.342 81.8953 352.504 78.4408C351.667 74.9862 343.809 70.9789 337.005 71.0001Z" fill="#E4628E"/>
<ellipse cx="333.147" cy="87.8648" rx="6.82441" ry="6.77052" fill="white"/>
</svg>
