<svg width="458" height="842" viewBox="0 0 458 842" fill="none" xmlns="http://www.w3.org/2000/svg">
<path d="M332 414.432C309.198 379.25 278 356.932 278 356.932L271 319.232C271 319.232 305.085 316.48 339.5 329.932C371.539 342.454 409.739 376.823 426 405C444.369 436.83 460.712 484.192 456.5 515.5C453.978 534.247 435.448 548 421.5 548C403.985 548 388.441 541.124 377.798 520.124C361.137 487.25 348.233 439.478 332 414.432Z" fill="white"/>
<path d="M452.5 527C451.296 529.408 449 532 447.5 534C446.418 535.442 425.5 497.5 425.5 497.5L430.5 496C430.5 496 453.5 525 452.5 527Z" fill="#6D4F43" stroke="#6D4F43"/>
<path d="M402.388 544.346C405.041 545.657 408.809 546.398 411.469 547.152C413.387 547.695 407.969 500.319 407.969 500.319L402.439 502.35C402.439 502.35 400.184 543.257 402.388 544.346Z" fill="#6D4F43" stroke="#6D4F43"/>
<path d="M125.169 414.432C147.971 379.25 179.169 356.932 179.169 356.932L186.169 319.232C186.169 319.232 152.083 316.48 117.669 329.932C85.6293 342.454 47.43 376.823 31.1687 405C12.7995 436.83 -3.54317 484.192 0.668701 515.5C3.19072 534.247 21.721 548 35.6687 548C53.1836 548 68.7279 541.124 79.3708 520.124C96.0313 487.25 108.935 439.478 125.169 414.432Z" fill="white"/>
<path d="M4.6687 527C5.87285 529.408 8.1687 532 9.6687 534C10.7504 535.442 31.6687 497.5 31.6687 497.5L26.6687 496C26.6687 496 3.66871 525 4.6687 527Z" fill="#6D4F43" stroke="#6D4F43"/>
<path d="M54.781 544.346C52.1274 545.657 48.3595 546.398 45.6997 547.152C43.7817 547.695 49.2001 500.319 49.2001 500.319L54.7298 502.35C54.7298 502.35 56.9847 543.257 54.781 544.346Z" fill="#6D4F43" stroke="#6D4F43"/>
<path d="M330.64 730L323.14 570L244.14 582.5L237.64 730C237.64 730 224.14 781.781 235.64 805.5C243.64 822 251.889 830.846 267.64 836.5C278.64 840.449 305.64 844.5 330.64 835C347.362 828.646 362.14 813.979 362.14 790.5C362.14 759 330.64 730 330.64 730Z" fill="white" stroke="white"/>
<path d="M338.14 831.5C334.637 833.81 332.349 834.47 328.64 836C325.965 837.103 312.64 759 312.64 759L319.14 756.833C319.14 756.833 341.049 829.581 338.14 831.5Z" fill="#6D4F43" stroke="#6D4F43"/>
<path d="M279.787 839.523C283.861 840.708 286.088 840.603 290.144 840.969C293.07 841.234 283.64 761.306 283.64 761.306L276.64 761.162C276.64 761.162 276.403 838.539 279.787 839.523Z" fill="#6D4F43" stroke="#6D4F43"/>
<path d="M126.26 730L133.76 570L212.76 582.5L219.26 730C219.26 730 232.76 781.781 221.26 805.5C213.26 822 205.01 830.846 189.26 836.5C178.26 840.449 151.26 844.5 126.26 835C109.538 828.646 94.7596 813.979 94.7596 790.5C94.7597 759 126.26 730 126.26 730Z" fill="white" stroke="white"/>
<path d="M118.76 831.5C122.263 833.81 124.551 834.47 128.26 836C130.934 837.103 144.26 759 144.26 759L137.76 756.833C137.76 756.833 115.851 829.581 118.76 831.5Z" fill="#6D4F43" stroke="#6D4F43"/>
<path d="M177.113 839.523C173.038 840.708 170.811 840.603 166.755 840.969C163.83 841.234 173.259 761.306 173.259 761.306L180.26 761.162C180.26 761.162 180.496 838.539 177.113 839.523Z" fill="#6D4F43" stroke="#6D4F43"/>
<path d="M172.468 310H288.891C288.891 310 353.621 548.051 325 582.207C296.379 616.362 179.932 619.467 136.883 582.207C93.834 544.946 172.468 310 172.468 310Z" fill="#9C6F5C"/>
<circle cx="228.5" cy="337.5" r="27.5" fill="white"/>
<ellipse cx="229" cy="245.5" rx="99" ry="91.5" fill="white"/>
<circle cx="205" cy="222" r="10" fill="black"/>
<circle cx="251" cy="222" r="10" fill="black"/>
<path d="M155.617 27.8692C153.759 17.9482 159.541 7.75083 169.307 4.96768C171.905 4.22715 174.633 3.5034 177.362 2.86352C180.995 2.01123 184.841 1.40679 188.467 0.978123C197.964 -0.144435 205.796 6.82889 207.088 16.3572L226.988 163.136L182.672 172.3L155.617 27.8692Z" fill="white"/>
<path d="M245.861 17.0459C247.008 6.97774 255.416 -0.28523 265.404 1.01642C268.062 1.36275 270.836 1.77698 273.587 2.27002C277.25 2.92671 281.04 3.90104 284.572 4.95283C293.824 7.70715 299.15 17.4016 297.585 26.8734L273.479 172.782L229.163 163.618L245.861 17.0459Z" fill="white"/>
<rect x="225" y="268" width="7" height="21" fill="black"/>
<rect x="228.494" y="281.156" width="7" height="23" rx="3.5" transform="rotate(55.3409 228.494 281.156)" fill="black"/>
<rect width="7" height="23" rx="3.5" transform="matrix(-0.568693 0.82255 0.82255 0.568693 229.437 280.933)" fill="black"/>
<rect x="166" y="265.737" width="56.0756" height="12.4552" rx="6.22761" transform="rotate(-10 166 265.737)" fill="#83DB62"/>
<rect width="56.0756" height="12.4552" rx="6.22761" transform="matrix(-0.984808 -0.173648 -0.173648 0.984808 223.386 244.737)" fill="#83DB62"/>
<rect x="234" y="244.737" width="56.0756" height="12.4552" rx="6.22761" transform="rotate(-10 234 244.737)" fill="#83DB62"/>
<rect width="56.0756" height="12.4552" rx="6.22761" transform="matrix(-0.984808 -0.173648 -0.173648 0.984808 291.386 264.737)" fill="#83DB62"/>
<circle cx="228.5" cy="255.5" r="17.5" fill="#C20D0D"/>
</svg>
