<svg width="1901" height="1945" viewBox="0 0 1901 1945" fill="none" xmlns="http://www.w3.org/2000/svg">
<rect width="1901" height="1945" fill="#3E3F3D"/>
<path d="M716.34 504.489C698.185 476.129 673.345 458.138 673.345 458.138L667.771 427.749C667.771 427.749 694.91 425.531 722.312 436.374C747.821 446.468 778.236 474.172 791.183 496.886C805.809 522.543 818.821 560.722 815.467 585.959C813.459 601.07 798.706 612.157 787.6 612.157C773.655 612.157 761.278 606.614 752.804 589.686C739.539 563.187 729.265 524.678 716.34 504.489Z" fill="black"/>
<path d="M812.283 595.229C811.324 597.17 809.496 599.259 808.302 600.871C807.44 602.034 790.785 571.449 790.785 571.449L794.766 570.24C794.766 570.24 813.079 593.617 812.283 595.229Z" fill="#696F23" stroke="#696F23"/>
<path d="M772.383 609.211C774.496 610.268 777.496 610.865 779.614 611.473C781.141 611.911 776.827 573.721 776.827 573.721L772.424 575.358C772.424 575.358 770.629 608.334 772.383 609.211Z" fill="#696F23" stroke="#696F23"/>
<path d="M551.66 504.489C569.815 476.129 594.655 458.138 594.655 458.138L600.229 427.749C600.229 427.749 573.09 425.531 545.688 436.374C520.179 446.468 489.764 474.172 476.817 496.886C462.191 522.543 449.179 560.722 452.533 585.959C454.541 601.07 469.294 612.157 480.4 612.157C494.345 612.157 506.722 606.614 515.196 589.686C528.461 563.187 538.735 524.678 551.66 504.489Z" fill="black"/>
<path d="M455.717 595.229C456.676 597.17 458.504 599.259 459.698 600.871C460.56 602.034 477.215 571.449 477.215 571.449L473.234 570.24C473.234 570.24 454.921 593.617 455.717 595.229Z" fill="#696F23" stroke="#696F23"/>
<path d="M495.617 609.211C493.504 610.268 490.504 610.865 488.386 611.473C486.859 611.911 491.173 573.721 491.173 573.721L495.576 575.358C495.576 575.358 497.371 608.334 495.617 609.211Z" fill="#696F23" stroke="#696F23"/>
<path d="M715.257 758.866L709.285 629.891L646.385 639.967L641.21 758.866C641.21 758.866 630.461 800.605 639.618 819.726C645.987 833.026 652.555 840.157 665.096 844.714C673.854 847.897 695.352 851.163 715.257 843.505C728.571 838.383 740.337 826.56 740.337 807.634C740.337 782.242 715.257 758.866 715.257 758.866Z" fill="black" stroke="black"/>
<path d="M721.229 840.684C718.439 842.546 716.618 843.078 713.665 844.311C711.535 845.201 700.925 782.242 700.925 782.242L706.101 780.496C706.101 780.496 723.545 839.137 721.229 840.684Z" fill="#696F23" stroke="#696F23"/>
<path d="M674.768 847.152C678.012 848.107 679.785 848.022 683.014 848.317C685.343 848.53 677.835 784.101 677.835 784.101L672.262 783.985C672.262 783.985 672.073 846.358 674.768 847.152Z" fill="#696F23" stroke="#696F23"/>
<path d="M552.529 758.866L558.5 629.891L621.4 639.967L626.576 758.866C626.576 758.866 637.325 800.605 628.168 819.726C621.798 833.026 615.23 840.157 602.69 844.714C593.931 847.897 572.434 851.163 552.529 843.505C539.215 838.383 527.448 826.56 527.448 807.634C527.448 782.242 552.529 758.866 552.529 758.866Z" fill="black" stroke="black"/>
<path d="M546.557 840.684C549.346 842.546 551.168 843.078 554.121 844.311C556.25 845.201 566.86 782.242 566.86 782.242L561.685 780.496C561.685 780.496 544.241 839.137 546.557 840.684Z" fill="#696F23" stroke="#696F23"/>
<path d="M593.018 847.152C589.774 848.107 588.001 848.022 584.771 848.317C582.442 848.53 589.95 784.101 589.95 784.101L595.524 783.985C595.524 783.985 595.712 846.358 593.018 847.152Z" fill="#696F23" stroke="#696F23"/>
<path d="M589.32 420.307H682.017C682.017 420.307 733.555 612.198 710.767 639.73C687.979 667.263 595.263 669.766 560.987 639.73C526.711 609.695 589.32 420.307 589.32 420.307Z" fill="#D1DC4F"/>
<ellipse cx="633.933" cy="442.474" rx="21.8956" ry="22.1675" fill="black"/>
<ellipse cx="634.331" cy="368.314" rx="78.8243" ry="73.7574" fill="black"/>
<ellipse cx="615.222" cy="349.371" rx="7.96205" ry="8.06092" fill="white"/>
<ellipse cx="651.847" cy="349.371" rx="7.96205" ry="8.06092" fill="white"/>
<path d="M576.521 196.22C574.687 186.313 580.456 176.049 590.249 173.471C591.231 173.212 592.224 172.962 593.216 172.727C595.032 172.295 596.914 171.943 598.778 171.655C608.225 170.194 616.032 177.239 617.306 186.752L632.729 301.921L597.444 309.308L576.521 196.22Z" fill="black"/>
<path d="M647.375 187.545C648.506 177.491 656.883 170.189 666.829 171.742C667.826 171.898 668.831 172.067 669.831 172.248C671.662 172.58 673.532 173.013 675.366 173.499C684.664 175.963 689.971 185.754 688.428 195.21L669.746 309.697L634.461 302.31L647.375 187.545Z" fill="black"/>
<rect x="631.146" y="386.451" width="5.57343" height="16.9279" fill="white"/>
<rect width="5.62035" height="18.3866" rx="2.81018" transform="matrix(0.563945 0.825812 -0.819246 0.573442 633.928 397.056)" fill="white"/>
<rect width="5.62035" height="18.3866" rx="2.81018" transform="matrix(-0.563945 0.825812 0.819246 0.573442 634.679 396.876)" fill="white"/>
<rect width="44.6645" height="10.0364" rx="5.01818" transform="matrix(0.984437 -0.175738 0.171581 0.98517 584.17 384.627)" fill="#5A8948"/>
<rect width="44.6645" height="10.0364" rx="5.01818" transform="matrix(-0.984437 -0.175738 -0.171581 0.98517 629.861 367.699)" fill="#5A8948"/>
<rect width="44.6645" height="10.0364" rx="5.01818" transform="matrix(0.984437 -0.175738 0.171581 0.98517 638.312 367.699)" fill="#5A8948"/>
<rect width="44.6645" height="10.0364" rx="5.01818" transform="matrix(-0.984437 -0.175738 -0.171581 0.98517 684.003 383.821)" fill="#5A8948"/>
<ellipse cx="633.932" cy="376.375" rx="13.9336" ry="14.1066" fill="#9C0D0D"/>
<path d="M1378.34 504.489C1360.18 476.129 1335.34 458.138 1335.34 458.138L1329.77 427.749C1329.77 427.749 1356.91 425.531 1384.31 436.374C1409.82 446.468 1440.24 474.172 1453.18 496.886C1467.81 522.543 1480.82 560.722 1477.47 585.959C1475.46 601.07 1460.71 612.157 1449.6 612.157C1435.65 612.157 1423.28 606.614 1414.8 589.686C1401.54 563.187 1391.26 524.678 1378.34 504.489Z" fill="#DCE75A"/>
<path d="M1474.28 595.229C1473.32 597.17 1471.5 599.259 1470.3 600.871C1469.44 602.034 1452.79 571.449 1452.79 571.449L1456.77 570.24C1456.77 570.24 1475.08 593.617 1474.28 595.229Z" fill="#1B4163" stroke="#1B4163"/>
<path d="M1434.38 609.211C1436.5 610.268 1439.5 610.865 1441.61 611.473C1443.14 611.911 1438.83 573.721 1438.83 573.721L1434.42 575.358C1434.42 575.358 1432.63 608.334 1434.38 609.211Z" fill="#1B4163" stroke="#1B4163"/>
<path d="M1213.66 504.489C1231.82 476.129 1256.66 458.138 1256.66 458.138L1262.23 427.749C1262.23 427.749 1235.09 425.531 1207.69 436.374C1182.18 446.468 1151.76 474.172 1138.82 496.886C1124.19 522.543 1111.18 560.722 1114.53 585.959C1116.54 601.07 1131.29 612.157 1142.4 612.157C1156.35 612.157 1168.72 606.614 1177.2 589.686C1190.46 563.187 1200.74 524.678 1213.66 504.489Z" fill="#DCE75A"/>
<path d="M1117.72 595.229C1118.68 597.17 1120.5 599.259 1121.7 600.871C1122.56 602.034 1139.21 571.449 1139.21 571.449L1135.23 570.24C1135.23 570.24 1116.92 593.617 1117.72 595.229Z" fill="#1B4163" stroke="#1B4163"/>
<path d="M1157.62 609.211C1155.5 610.268 1152.5 610.865 1150.39 611.473C1148.86 611.911 1153.17 573.721 1153.17 573.721L1157.58 575.358C1157.58 575.358 1159.37 608.334 1157.62 609.211Z" fill="#1B4163" stroke="#1B4163"/>
<path d="M1377.26 758.866L1371.29 629.891L1308.39 639.967L1303.21 758.866C1303.21 758.866 1292.46 800.605 1301.62 819.726C1307.99 833.026 1314.56 840.157 1327.1 844.714C1335.85 847.897 1357.35 851.163 1377.26 843.505C1390.57 838.383 1402.34 826.56 1402.34 807.634C1402.34 782.242 1377.26 758.866 1377.26 758.866Z" fill="#DCE75A" stroke="#DCE75A"/>
<path d="M1383.23 840.684C1380.44 842.546 1378.62 843.078 1375.66 844.311C1373.54 845.201 1362.93 782.242 1362.93 782.242L1368.1 780.496C1368.1 780.496 1385.54 839.137 1383.23 840.684Z" fill="#1B4163" stroke="#1B4163"/>
<path d="M1336.77 847.152C1340.01 848.107 1341.78 848.022 1345.01 848.317C1347.34 848.53 1339.84 784.101 1339.84 784.101L1334.26 783.985C1334.26 783.985 1334.07 846.358 1336.77 847.152Z" fill="#1B4163" stroke="#1B4163"/>
<path d="M1214.53 758.866L1220.5 629.891L1283.4 639.967L1288.58 758.866C1288.58 758.866 1299.32 800.605 1290.17 819.726C1283.8 833.026 1277.23 840.157 1264.69 844.714C1255.93 847.897 1234.43 851.163 1214.53 843.505C1201.21 838.383 1189.45 826.56 1189.45 807.634C1189.45 782.242 1214.53 758.866 1214.53 758.866Z" fill="#DCE75A" stroke="#DCE75A"/>
<path d="M1208.56 840.684C1211.35 842.546 1213.17 843.078 1216.12 844.311C1218.25 845.201 1228.86 782.242 1228.86 782.242L1223.68 780.496C1223.68 780.496 1206.24 839.137 1208.56 840.684Z" fill="#1B4163" stroke="#1B4163"/>
<path d="M1255.02 847.152C1251.77 848.107 1250 848.022 1246.77 848.317C1244.44 848.53 1251.95 784.101 1251.95 784.101L1257.52 783.985C1257.52 783.985 1257.71 846.358 1255.02 847.152Z" fill="#1B4163" stroke="#1B4163"/>
<path d="M1251.32 420.307H1344.02C1344.02 420.307 1395.55 612.198 1372.77 639.73C1349.98 667.263 1257.26 669.766 1222.99 639.73C1188.71 609.695 1251.32 420.307 1251.32 420.307Z" fill="#2939C9"/>
<ellipse cx="1295.93" cy="442.474" rx="21.8956" ry="22.1675" fill="#DCE75A"/>
<ellipse cx="1296.33" cy="368.314" rx="78.8243" ry="73.7574" fill="#DCE75A"/>
<ellipse cx="1277.22" cy="349.371" rx="7.96205" ry="8.06092" fill="black"/>
<ellipse cx="1313.85" cy="349.371" rx="7.96205" ry="8.06092" fill="black"/>
<path d="M1238.52 196.22C1236.69 186.313 1242.46 176.049 1252.25 173.471C1253.23 173.212 1254.22 172.962 1255.22 172.727C1257.03 172.295 1258.91 171.943 1260.78 171.655C1270.22 170.194 1278.03 177.239 1279.31 186.752L1294.73 301.921L1259.44 309.308L1238.52 196.22Z" fill="#DCE75A"/>
<path d="M1309.37 187.545C1310.51 177.491 1318.88 170.189 1328.83 171.742C1329.83 171.898 1330.83 172.067 1331.83 172.248C1333.66 172.58 1335.53 173.013 1337.37 173.499C1346.66 175.963 1351.97 185.754 1350.43 195.21L1331.75 309.697L1296.46 302.31L1309.37 187.545Z" fill="#DCE75A"/>
<rect x="1293.15" y="386.451" width="5.57343" height="16.9279" fill="black"/>
<rect width="5.62035" height="18.3866" rx="2.81018" transform="matrix(0.563945 0.825812 -0.819246 0.573442 1295.93 397.056)" fill="black"/>
<rect width="5.62035" height="18.3866" rx="2.81018" transform="matrix(-0.563945 0.825812 0.819246 0.573442 1296.68 396.876)" fill="black"/>
<rect width="44.6645" height="10.0364" rx="5.01818" transform="matrix(0.984437 -0.175738 0.171581 0.98517 1246.17 384.627)" fill="#3CB012"/>
<rect width="44.6645" height="10.0364" rx="5.01818" transform="matrix(-0.984437 -0.175738 -0.171581 0.98517 1291.86 367.699)" fill="#3CB012"/>
<rect width="44.6645" height="10.0364" rx="5.01818" transform="matrix(0.984437 -0.175738 0.171581 0.98517 1300.31 367.699)" fill="#3CB012"/>
<rect width="44.6645" height="10.0364" rx="5.01818" transform="matrix(-0.984437 -0.175738 -0.171581 0.98517 1346 383.821)" fill="#3CB012"/>
<ellipse cx="1295.93" cy="376.375" rx="13.9336" ry="14.1066" fill="#C20D0D"/>
<path d="M716.34 1342.49C698.185 1314.13 673.345 1296.14 673.345 1296.14L667.771 1265.75C667.771 1265.75 694.91 1263.53 722.312 1274.37C747.821 1284.47 778.236 1312.17 791.183 1334.89C805.809 1360.54 818.821 1398.72 815.467 1423.96C813.459 1439.07 798.706 1450.16 787.6 1450.16C773.655 1450.16 761.278 1444.61 752.804 1427.69C739.539 1401.19 729.265 1362.68 716.34 1342.49Z" fill="#EFDFD9"/>
<path d="M812.283 1433.23C811.324 1435.17 809.496 1437.26 808.302 1438.87C807.44 1440.03 790.785 1409.45 790.785 1409.45L794.766 1408.24C794.766 1408.24 813.079 1431.62 812.283 1433.23Z" fill="#6D4F43" stroke="#6D4F43"/>
<path d="M772.383 1447.21C774.496 1448.27 777.496 1448.87 779.614 1449.47C781.141 1449.91 776.827 1411.72 776.827 1411.72L772.424 1413.36C772.424 1413.36 770.629 1446.33 772.383 1447.21Z" fill="#6D4F43" stroke="#6D4F43"/>
<path d="M551.66 1342.49C569.815 1314.13 594.655 1296.14 594.655 1296.14L600.229 1265.75C600.229 1265.75 573.09 1263.53 545.688 1274.37C520.179 1284.47 489.764 1312.17 476.817 1334.89C462.191 1360.54 449.179 1398.72 452.533 1423.96C454.541 1439.07 469.294 1450.16 480.4 1450.16C494.345 1450.16 506.722 1444.61 515.196 1427.69C528.461 1401.19 538.735 1362.68 551.66 1342.49Z" fill="#EFDFD9"/>
<path d="M455.717 1433.23C456.676 1435.17 458.504 1437.26 459.698 1438.87C460.56 1440.03 477.215 1409.45 477.215 1409.45L473.234 1408.24C473.234 1408.24 454.921 1431.62 455.717 1433.23Z" fill="#6D4F43" stroke="#6D4F43"/>
<path d="M495.617 1447.21C493.504 1448.27 490.504 1448.87 488.386 1449.47C486.859 1449.91 491.173 1411.72 491.173 1411.72L495.576 1413.36C495.576 1413.36 497.371 1446.33 495.617 1447.21Z" fill="#6D4F43" stroke="#6D4F43"/>
<path d="M715.257 1596.87L709.285 1467.89L646.385 1477.97L641.21 1596.87C641.21 1596.87 630.461 1638.61 639.618 1657.73C645.987 1671.03 652.555 1678.16 665.096 1682.71C673.854 1685.9 695.352 1689.16 715.257 1681.5C728.571 1676.38 740.337 1664.56 740.337 1645.63C740.337 1620.24 715.257 1596.87 715.257 1596.87Z" fill="#EFDFD9" stroke="#EFDFD9"/>
<path d="M721.229 1678.68C718.439 1680.55 716.618 1681.08 713.665 1682.31C711.535 1683.2 700.925 1620.24 700.925 1620.24L706.101 1618.5C706.101 1618.5 723.545 1677.14 721.229 1678.68Z" fill="#6D4F43" stroke="#6D4F43"/>
<path d="M674.768 1685.15C678.012 1686.11 679.785 1686.02 683.014 1686.32C685.343 1686.53 677.835 1622.1 677.835 1622.1L672.262 1621.98C672.262 1621.98 672.073 1684.36 674.768 1685.15Z" fill="#6D4F43" stroke="#6D4F43"/>
<path d="M552.529 1596.87L558.5 1467.89L621.4 1477.97L626.576 1596.87C626.576 1596.87 637.325 1638.61 628.168 1657.73C621.798 1671.03 615.23 1678.16 602.69 1682.71C593.931 1685.9 572.434 1689.16 552.529 1681.5C539.215 1676.38 527.448 1664.56 527.448 1645.63C527.448 1620.24 552.529 1596.87 552.529 1596.87Z" fill="#EFDFD9" stroke="#EFDFD9"/>
<path d="M546.557 1678.68C549.346 1680.55 551.168 1681.08 554.121 1682.31C556.25 1683.2 566.86 1620.24 566.86 1620.24L561.685 1618.5C561.685 1618.5 544.241 1677.14 546.557 1678.68Z" fill="#6D4F43" stroke="#6D4F43"/>
<path d="M593.018 1685.15C589.774 1686.11 588.001 1686.02 584.771 1686.32C582.442 1686.53 589.95 1622.1 589.95 1622.1L595.524 1621.98C595.524 1621.98 595.712 1684.36 593.018 1685.15Z" fill="#6D4F43" stroke="#6D4F43"/>
<path d="M589.32 1258.31H682.017C682.017 1258.31 733.555 1450.2 710.767 1477.73C687.979 1505.26 595.263 1507.77 560.987 1477.73C526.711 1447.7 589.32 1258.31 589.32 1258.31Z" fill="#EC5D94"/>
<ellipse cx="633.933" cy="1280.47" rx="21.8956" ry="22.1675" fill="#EFDFD9"/>
<ellipse cx="634.331" cy="1206.31" rx="78.8243" ry="73.7574" fill="#EFDFD9"/>
<ellipse cx="615.222" cy="1187.37" rx="7.96205" ry="8.06092" fill="black"/>
<ellipse cx="651.847" cy="1187.37" rx="7.96205" ry="8.06092" fill="black"/>
<path d="M576.521 1034.22C574.687 1024.31 580.456 1014.05 590.249 1011.47C591.231 1011.21 592.224 1010.96 593.216 1010.73C595.032 1010.3 596.914 1009.94 598.778 1009.65C608.225 1008.19 616.032 1015.24 617.306 1024.75L632.729 1139.92L597.444 1147.31L576.521 1034.22Z" fill="#EFDFD9"/>
<path d="M647.375 1025.55C648.506 1015.49 656.883 1008.19 666.829 1009.74C667.826 1009.9 668.831 1010.07 669.831 1010.25C671.662 1010.58 673.532 1011.01 675.366 1011.5C684.664 1013.96 689.971 1023.75 688.428 1033.21L669.746 1147.7L634.461 1140.31L647.375 1025.55Z" fill="#EFDFD9"/>
<rect x="631.146" y="1224.45" width="5.57343" height="16.9279" fill="black"/>
<rect width="5.62035" height="18.3866" rx="2.81018" transform="matrix(0.563945 0.825812 -0.819246 0.573442 633.928 1235.06)" fill="black"/>
<rect width="5.62035" height="18.3866" rx="2.81018" transform="matrix(-0.563945 0.825812 0.819246 0.573442 634.679 1234.88)" fill="black"/>
<rect width="44.6645" height="10.0364" rx="5.01818" transform="matrix(0.984437 -0.175738 0.171581 0.98517 584.17 1222.63)" fill="#6DAF55"/>
<rect width="44.6645" height="10.0364" rx="5.01818" transform="matrix(-0.984437 -0.175738 -0.171581 0.98517 629.861 1205.7)" fill="#6DAF55"/>
<rect width="44.6645" height="10.0364" rx="5.01818" transform="matrix(0.984437 -0.175738 0.171581 0.98517 638.312 1205.7)" fill="#6DAF55"/>
<rect width="44.6645" height="10.0364" rx="5.01818" transform="matrix(-0.984437 -0.175738 -0.171581 0.98517 684.003 1221.82)" fill="#6DAF55"/>
<ellipse cx="633.932" cy="1214.37" rx="13.9336" ry="14.1066" fill="#C20D0D"/>
<path d="M1378.34 1342.49C1360.18 1314.13 1335.34 1296.14 1335.34 1296.14L1329.77 1265.75C1329.77 1265.75 1356.91 1263.53 1384.31 1274.37C1409.82 1284.47 1440.24 1312.17 1453.18 1334.89C1467.81 1360.54 1480.82 1398.72 1477.47 1423.96C1475.46 1439.07 1460.71 1450.16 1449.6 1450.16C1435.65 1450.16 1423.28 1444.61 1414.8 1427.69C1401.54 1401.19 1391.26 1362.68 1378.34 1342.49Z" fill="#6D4F43"/>
<path d="M1474.28 1433.23C1473.32 1435.17 1471.5 1437.26 1470.3 1438.87C1469.44 1440.03 1452.79 1409.45 1452.79 1409.45L1456.77 1408.24C1456.77 1408.24 1475.08 1431.62 1474.28 1433.23Z" fill="#1B4163" stroke="#1B4163"/>
<path d="M1434.38 1447.21C1436.5 1448.27 1439.5 1448.87 1441.61 1449.47C1443.14 1449.91 1438.83 1411.72 1438.83 1411.72L1434.42 1413.36C1434.42 1413.36 1432.63 1446.33 1434.38 1447.21Z" fill="#1B4163" stroke="#1B4163"/>
<path d="M1213.66 1342.49C1231.82 1314.13 1256.66 1296.14 1256.66 1296.14L1262.23 1265.75C1262.23 1265.75 1235.09 1263.53 1207.69 1274.37C1182.18 1284.47 1151.76 1312.17 1138.82 1334.89C1124.19 1360.54 1111.18 1398.72 1114.53 1423.96C1116.54 1439.07 1131.29 1450.16 1142.4 1450.16C1156.35 1450.16 1168.72 1444.61 1177.2 1427.69C1190.46 1401.19 1200.74 1362.68 1213.66 1342.49Z" fill="#6D4F43"/>
<path d="M1117.72 1433.23C1118.68 1435.17 1120.5 1437.26 1121.7 1438.87C1122.56 1440.03 1139.21 1409.45 1139.21 1409.45L1135.23 1408.24C1135.23 1408.24 1116.92 1431.62 1117.72 1433.23Z" fill="#1B4163" stroke="#1B4163"/>
<path d="M1157.62 1447.21C1155.5 1448.27 1152.5 1448.87 1150.39 1449.47C1148.86 1449.91 1153.17 1411.72 1153.17 1411.72L1157.58 1413.36C1157.58 1413.36 1159.37 1446.33 1157.62 1447.21Z" fill="#1B4163" stroke="#1B4163"/>
<path d="M1377.26 1596.87L1371.29 1467.89L1308.39 1477.97L1303.21 1596.87C1303.21 1596.87 1292.46 1638.61 1301.62 1657.73C1307.99 1671.03 1314.56 1678.16 1327.1 1682.71C1335.85 1685.9 1357.35 1689.16 1377.26 1681.5C1390.57 1676.38 1402.34 1664.56 1402.34 1645.63C1402.34 1620.24 1377.26 1596.87 1377.26 1596.87Z" fill="#6D4F43" stroke="#6D4F43"/>
<path d="M1383.23 1678.68C1380.44 1680.55 1378.62 1681.08 1375.66 1682.31C1373.54 1683.2 1362.93 1620.24 1362.93 1620.24L1368.1 1618.5C1368.1 1618.5 1385.54 1677.14 1383.23 1678.68Z" fill="#1B4163" stroke="#1B4163"/>
<path d="M1336.77 1685.15C1340.01 1686.11 1341.78 1686.02 1345.01 1686.32C1347.34 1686.53 1339.84 1622.1 1339.84 1622.1L1334.26 1621.98C1334.26 1621.98 1334.07 1684.36 1336.77 1685.15Z" fill="#1B4163" stroke="#1B4163"/>
<path d="M1214.53 1596.87L1220.5 1467.89L1283.4 1477.97L1288.58 1596.87C1288.58 1596.87 1299.32 1638.61 1290.17 1657.73C1283.8 1671.03 1277.23 1678.16 1264.69 1682.71C1255.93 1685.9 1234.43 1689.16 1214.53 1681.5C1201.21 1676.38 1189.45 1664.56 1189.45 1645.63C1189.45 1620.24 1214.53 1596.87 1214.53 1596.87Z" fill="#6D4F43" stroke="#6D4F43"/>
<path d="M1208.56 1678.68C1211.35 1680.55 1213.17 1681.08 1216.12 1682.31C1218.25 1683.2 1228.86 1620.24 1228.86 1620.24L1223.68 1618.5C1223.68 1618.5 1206.24 1677.14 1208.56 1678.68Z" fill="#1B4163" stroke="#1B4163"/>
<path d="M1255.02 1685.15C1251.77 1686.11 1250 1686.02 1246.77 1686.32C1244.44 1686.53 1251.95 1622.1 1251.95 1622.1L1257.52 1621.98C1257.52 1621.98 1257.71 1684.36 1255.02 1685.15Z" fill="#1B4163" stroke="#1B4163"/>
<path d="M1251.32 1258.31H1344.02C1344.02 1258.31 1395.55 1450.2 1372.77 1477.73C1349.98 1505.26 1257.26 1507.77 1222.99 1477.73C1188.71 1447.7 1251.32 1258.31 1251.32 1258.31Z" fill="#3D8FD9"/>
<ellipse cx="1295.93" cy="1280.47" rx="21.8956" ry="22.1675" fill="#6D4F43"/>
<ellipse cx="1296.33" cy="1206.31" rx="78.8243" ry="73.7574" fill="#6D4F43"/>
<ellipse cx="1277.22" cy="1187.37" rx="7.96205" ry="8.06092" fill="black"/>
<ellipse cx="1313.85" cy="1187.37" rx="7.96205" ry="8.06092" fill="black"/>
<path d="M1238.52 1034.22C1236.69 1024.31 1242.46 1014.05 1252.25 1011.47C1253.23 1011.21 1254.22 1010.96 1255.22 1010.73C1257.03 1010.3 1258.91 1009.94 1260.78 1009.65C1270.22 1008.19 1278.03 1015.24 1279.31 1024.75L1294.73 1139.92L1259.44 1147.31L1238.52 1034.22Z" fill="#6D4F43"/>
<path d="M1309.37 1025.55C1310.51 1015.49 1318.88 1008.19 1328.83 1009.74C1329.83 1009.9 1330.83 1010.07 1331.83 1010.25C1333.66 1010.58 1335.53 1011.01 1337.37 1011.5C1346.66 1013.96 1351.97 1023.75 1350.43 1033.21L1331.75 1147.7L1296.46 1140.31L1309.37 1025.55Z" fill="#6D4F43"/>
<rect x="1293.15" y="1224.45" width="5.57343" height="16.9279" fill="black"/>
<rect width="5.62035" height="18.3866" rx="2.81018" transform="matrix(0.563945 0.825812 -0.819246 0.573442 1295.93 1235.06)" fill="black"/>
<rect width="5.62035" height="18.3866" rx="2.81018" transform="matrix(-0.563945 0.825812 0.819246 0.573442 1296.68 1234.88)" fill="black"/>
<rect width="44.6645" height="10.0364" rx="5.01818" transform="matrix(0.984437 -0.175738 0.171581 0.98517 1246.17 1222.63)" fill="#6DAF55"/>
<rect width="44.6645" height="10.0364" rx="5.01818" transform="matrix(-0.984437 -0.175738 -0.171581 0.98517 1291.86 1205.7)" fill="#6DAF55"/>
<rect width="44.6645" height="10.0364" rx="5.01818" transform="matrix(0.984437 -0.175738 0.171581 0.98517 1300.31 1205.7)" fill="#6DAF55"/>
<rect width="44.6645" height="10.0364" rx="5.01818" transform="matrix(-0.984437 -0.175738 -0.171581 0.98517 1346 1221.82)" fill="#6DAF55"/>
<ellipse cx="1295.93" cy="1214.37" rx="13.9336" ry="14.1066" fill="#C20D0D"/>
</svg>
