<svg width="364" height="684" viewBox="0 0 364 684" fill="none" xmlns="http://www.w3.org/2000/svg">
<path d="M264.34 336.489C246.185 308.129 221.345 290.138 221.345 290.138L215.771 259.749C215.771 259.749 242.91 257.531 270.312 268.374C295.821 278.468 326.236 306.172 339.183 328.886C353.809 354.543 366.821 392.722 363.467 417.959C361.459 433.07 346.706 444.157 335.6 444.157C321.655 444.157 309.278 438.614 300.804 421.686C287.539 395.187 277.265 356.678 264.34 336.489Z" fill="#6D4F43"/>
<path d="M360.283 427.229C359.324 429.17 357.496 431.259 356.302 432.871C355.44 434.034 338.785 403.449 338.785 403.449L342.766 402.24C342.766 402.24 361.079 425.617 360.283 427.229Z" fill="#1B4163" stroke="#1B4163"/>
<path d="M320.383 441.211C322.496 442.268 325.496 442.865 327.613 443.473C329.141 443.911 324.826 405.721 324.826 405.721L320.424 407.358C320.424 407.358 318.628 440.334 320.383 441.211Z" fill="#1B4163" stroke="#1B4163"/>
<path d="M99.66 336.489C117.815 308.129 142.655 290.138 142.655 290.138L148.229 259.749C148.229 259.749 121.09 257.531 93.6885 268.374C68.1786 278.468 37.7641 306.172 24.8168 328.886C10.1911 354.543 -2.82098 392.722 0.532532 417.959C2.54056 433.07 17.2945 444.157 28.3997 444.157C42.3451 444.157 54.7216 438.614 63.1955 421.686C76.4607 395.187 86.735 356.678 99.66 336.489Z" fill="#6D4F43"/>
<path d="M3.71731 427.229C4.67606 429.17 6.50403 431.259 7.69834 432.871C8.55956 434.034 25.2148 403.449 25.2148 403.449L21.2338 402.24C21.2338 402.24 2.92112 425.617 3.71731 427.229Z" fill="#1B4163" stroke="#1B4163"/>
<path d="M43.6169 441.211C41.5041 442.268 38.5041 442.865 36.3863 443.473C34.8592 443.911 39.1734 405.721 39.1734 405.721L43.5762 407.358C43.5762 407.358 45.3715 440.334 43.6169 441.211Z" fill="#1B4163" stroke="#1B4163"/>
<path d="M263.257 590.866L257.285 461.891L194.385 471.967L189.21 590.866C189.21 590.866 178.461 632.605 187.618 651.726C193.987 665.026 200.555 672.157 213.096 676.714C221.854 679.897 243.352 683.163 263.257 675.505C276.571 670.383 288.337 658.56 288.337 639.634C288.337 614.242 263.257 590.866 263.257 590.866Z" fill="#6D4F43" stroke="#6D4F43"/>
<path d="M269.228 672.684C266.439 674.546 264.617 675.078 261.664 676.311C259.535 677.201 248.925 614.242 248.925 614.242L254.1 612.496C254.1 612.496 271.545 671.137 269.228 672.684Z" fill="#1B4163" stroke="#1B4163"/>
<path d="M222.768 679.152C226.012 680.107 227.785 680.022 231.014 680.317C233.343 680.53 225.835 616.101 225.835 616.101L220.262 615.985C220.262 615.985 220.073 678.358 222.768 679.152Z" fill="#1B4163" stroke="#1B4163"/>
<path d="M100.528 590.866L106.5 461.891L169.4 471.967L174.575 590.866C174.575 590.866 185.324 632.605 176.168 651.726C169.798 665.026 163.23 672.157 150.689 676.714C141.931 679.897 120.433 683.163 100.528 675.505C87.2141 670.383 75.4477 658.56 75.4478 639.634C75.4478 614.242 100.528 590.866 100.528 590.866Z" fill="#6D4F43" stroke="#6D4F43"/>
<path d="M94.5568 672.684C97.3459 674.546 99.1678 675.078 102.121 676.311C104.25 677.201 114.86 614.242 114.86 614.242L109.685 612.496C109.685 612.496 92.2406 671.137 94.5568 672.684Z" fill="#1B4163" stroke="#1B4163"/>
<path d="M141.018 679.152C137.773 680.107 136 680.022 132.771 680.317C130.442 680.53 137.95 616.101 137.95 616.101L143.523 615.985C143.523 615.985 143.712 678.358 141.018 679.152Z" fill="#1B4163" stroke="#1B4163"/>
<path d="M137.32 252.307H230.017C230.017 252.307 281.555 444.198 258.767 471.73C235.979 499.263 143.263 501.766 108.987 471.73C74.7112 441.695 137.32 252.307 137.32 252.307Z" fill="#3D8FD9"/>
<ellipse cx="181.933" cy="274.474" rx="21.8956" ry="22.1675" fill="#6D4F43"/>
<ellipse cx="182.331" cy="200.314" rx="78.8243" ry="73.7574" fill="#6D4F43"/>
<ellipse cx="163.222" cy="181.371" rx="7.96205" ry="8.06092" fill="black"/>
<ellipse cx="199.847" cy="181.371" rx="7.96205" ry="8.06092" fill="black"/>
<path d="M124.521 28.2203C122.688 18.3129 128.456 8.04927 138.249 5.47063C139.232 5.21194 140.224 4.96219 141.216 4.72656C143.032 4.2954 144.914 3.94293 146.778 3.65478C156.225 2.19413 164.033 9.23948 165.306 18.752L180.729 133.921L145.445 141.308L124.521 28.2203Z" fill="#6D4F43"/>
<path d="M195.375 19.5451C196.506 9.49082 204.883 2.18856 214.829 3.74238C215.826 3.89826 216.831 4.06656 217.831 4.24812C219.662 4.58033 221.532 5.01339 223.366 5.49944C232.664 7.96328 237.971 17.7542 236.428 27.2104L217.746 141.697L182.461 134.31L195.375 19.5451Z" fill="#6D4F43"/>
<rect x="179.146" y="218.451" width="5.57343" height="16.9279" fill="black"/>
<rect width="5.62035" height="18.3866" rx="2.81018" transform="matrix(0.563945 0.825812 -0.819246 0.573442 181.928 229.056)" fill="black"/>
<rect width="5.62035" height="18.3866" rx="2.81018" transform="matrix(-0.563945 0.825812 0.819246 0.573442 182.679 228.876)" fill="black"/>
<rect width="44.6645" height="10.0364" rx="5.01818" transform="matrix(0.984437 -0.175738 0.171581 0.98517 132.169 216.627)" fill="#6DAF55"/>
<rect width="44.6645" height="10.0364" rx="5.01818" transform="matrix(-0.984437 -0.175738 -0.171581 0.98517 177.861 199.699)" fill="#6DAF55"/>
<rect width="44.6645" height="10.0364" rx="5.01818" transform="matrix(0.984437 -0.175738 0.171581 0.98517 186.312 199.699)" fill="#6DAF55"/>
<rect width="44.6645" height="10.0364" rx="5.01818" transform="matrix(-0.984437 -0.175738 -0.171581 0.98517 232.003 215.821)" fill="#6DAF55"/>
<ellipse cx="181.933" cy="208.375" rx="13.9336" ry="14.1066" fill="#C20D0D"/>
</svg>
